<svg width="1440" height="323" viewBox="0 0 1440 323" fill="none" xmlns="http://www.w3.org/2000/svg">
<path d="M35.4276 112.975C22.7449 121.848 10.9008 131.404 0 141.642V323H1441V113.572C1425.28 117.924 1408.93 120.824 1392.47 121.763C1376.01 122.787 1359.45 122.019 1343.42 119.459C1327.38 116.814 1311.87 112.549 1297.19 106.747C1282.52 100.945 1269 93.6083 1255.79 85.5032C1242.48 77.4834 1229.17 69.1223 1214.49 61.9557C1207.16 58.3724 1199.4 55.1304 1191.23 52.5709C1183.05 49.9261 1174.45 48.1344 1165.86 46.94C1157.16 45.6602 1148.36 45.3189 1139.66 45.4896C1130.85 45.5749 1122.15 46.5134 1113.66 47.7931C1096.58 50.438 1080.12 55.1304 1064.61 61.2732L1058.84 63.6621C1056.96 64.4294 1055.07 65.282 1053.19 66.1346L1053.18 66.1362C1051.3 66.9894 1049.41 67.8426 1047.63 68.6957C1045.85 69.5489 1043.96 70.4874 1042.18 71.3406C1034.95 74.8386 1027.82 78.5072 1020.8 82.0905L1020.08 82.4599C1006.28 89.5856 992.673 96.6119 978.66 102.567C964.51 108.624 949.836 113.487 934.742 115.705C927.196 116.9 919.649 117.326 912.102 117.07C904.556 116.814 897.009 115.791 889.672 114.17C887.89 113.743 886.003 113.316 884.221 112.805L881.496 112.037L880.134 111.695L878.771 111.269C876.989 110.672 875.207 110.16 873.425 109.562C871.644 108.88 869.966 108.283 868.185 107.6C861.162 104.87 854.559 101.628 848.06 97.9594C835.168 90.7075 823.114 81.8345 811.27 72.6203C799.321 63.4061 787.477 53.68 774.585 44.5511C761.797 35.4222 747.647 26.7199 731.715 20.1505C699.747 6.75575 661.07 4.28156 627.005 13.4958L620.716 15.2021L614.532 17.2497C612.436 17.932 610.445 18.6995 608.455 19.4671L608.453 19.468L605.413 20.5771L603.945 21.1743L602.478 21.7715L596.713 24.2457C594.827 25.0989 592.94 26.0373 591.053 26.8905L588.223 28.2556L585.498 29.6207C583.716 30.5591 581.829 31.4976 580.048 32.4361C572.92 36.2754 566.002 40.3706 559.189 44.4658C552.481 48.6463 545.878 52.8268 539.379 57.0074C532.776 61.1026 526.277 65.2831 519.779 69.2076C513.175 73.1322 506.572 76.8862 499.759 80.2988C486.133 87.2948 471.878 93.267 456.994 98.0447C427.332 107.6 395.154 111.695 363.394 108.795C347.463 107.344 331.635 104.614 316.123 100.775C300.505 96.9356 285.202 92.1579 270.109 86.9535C255.015 81.7492 239.817 75.8624 223.466 71.5112C215.395 69.3783 207.01 67.6719 198.415 66.5628C189.925 65.539 181.121 65.1124 172.631 65.2831C155.546 65.6243 138.566 68.1838 122.424 72.3644C106.283 76.5449 90.77 82.3464 76.3055 89.2571C61.841 96.1678 48.215 104.188 35.4276 112.975Z" fill="url(#paint0_linear)"/>
<g filter="url(#filter0_dii)">
<path d="M0 141.642C10.9008 131.404 22.7449 121.848 35.4276 112.975C48.215 104.188 61.841 96.1678 76.3055 89.2571C90.77 82.3464 106.283 76.5449 122.424 72.3644C138.566 68.1838 155.546 65.6243 172.631 65.2831C181.121 65.1124 189.925 65.539 198.415 66.5628C207.01 67.6719 215.395 69.3783 223.466 71.5112C239.817 75.8624 255.016 81.7492 270.109 86.9535C285.202 92.1579 300.505 96.9356 316.123 100.775C331.635 104.614 347.463 107.344 363.394 108.795C395.153 111.695 427.332 107.6 456.994 98.0447C471.878 93.267 486.133 87.2948 499.759 80.2988C506.572 76.8862 513.175 73.1322 519.779 69.2076C526.277 65.2831 532.776 61.1026 539.379 57.0074C545.878 52.8268 552.481 48.6463 559.189 44.4658C566.002 40.3706 572.92 36.2754 580.048 32.4361C581.829 31.4976 583.716 30.5591 585.498 29.6207L588.223 28.2556L591.053 26.8905C592.94 26.0373 594.826 25.0989 596.713 24.2457L602.478 21.7715L603.945 21.1743L605.413 20.5771L608.453 19.468C610.444 18.7001 612.435 17.9323 614.532 17.2497L620.716 15.2021L627.005 13.4958C661.07 4.28156 699.747 6.75575 731.715 20.1505C747.647 26.7199 761.797 35.4222 774.585 44.5511C787.477 53.68 799.321 63.4061 811.27 72.6203C823.114 81.8345 835.168 90.7075 848.06 97.9594C854.559 101.628 861.162 104.87 868.185 107.6C869.966 108.283 871.644 108.88 873.425 109.562C875.207 110.16 876.989 110.672 878.771 111.269L880.134 111.695L881.496 112.037L884.221 112.805C886.003 113.316 887.89 113.743 889.672 114.17C897.009 115.791 904.556 116.814 912.102 117.07C919.649 117.326 927.196 116.9 934.742 115.705C949.836 113.487 964.51 108.624 978.66 102.567C992.915 96.509 1006.75 89.3424 1020.8 82.0905C1027.82 78.5072 1034.95 74.8386 1042.18 71.3406C1043.96 70.4874 1045.85 69.5489 1047.63 68.6957C1049.41 67.8426 1051.3 66.9894 1053.18 66.1362C1055.07 65.2831 1056.96 64.4299 1058.84 63.6621L1064.61 61.2732C1080.12 55.1304 1096.58 50.438 1113.66 47.7931C1122.15 46.5134 1130.85 45.5749 1139.66 45.4896C1148.36 45.3189 1157.16 45.6602 1165.86 46.94C1174.45 48.1344 1183.05 49.9261 1191.23 52.5709C1199.4 55.1304 1207.16 58.3724 1214.49 61.9557C1229.17 69.1223 1242.48 77.4834 1255.79 85.5032C1269 93.6083 1282.52 100.945 1297.19 106.747C1311.87 112.549 1327.38 116.814 1343.42 119.459C1359.45 122.019 1376.01 122.787 1392.47 121.763C1408.93 120.824 1425.28 117.924 1441 113.572C1425.7 118.862 1409.45 122.531 1392.89 124.322C1376.22 126.114 1359.24 126.029 1342.58 124.152C1325.81 122.189 1309.46 118.265 1293.94 112.805C1278.33 107.344 1263.65 100.092 1249.92 92.4138C1236.09 84.7353 1222.67 76.8862 1208.52 70.658C1201.5 67.5013 1194.26 64.7712 1186.82 62.6383C1179.38 60.5053 1171.73 59.055 1163.97 58.2018C1156.22 57.2633 1148.25 57.178 1140.39 57.5192C1132.53 57.7752 1124.67 58.799 1116.91 60.1641C1101.4 62.8942 1086.41 67.5866 1072.16 73.4735L1066.81 75.777C1065.03 76.5449 1063.35 77.3981 1061.57 78.1659C1059.89 78.9338 1058.11 79.7869 1056.33 80.7254C1054.55 81.5786 1052.87 82.4318 1051.09 83.3702C1044.17 86.9535 1037.25 90.6222 1030.33 94.3761C1016.5 101.799 1002.45 109.392 987.36 116.132C979.813 119.459 971.952 122.531 963.776 125.175C955.601 127.82 947.111 129.953 938.306 131.404C929.502 132.854 920.383 133.451 911.369 133.281C902.354 133.11 893.34 132.001 884.536 130.124C875.836 128.247 867.451 125.858 859.38 122.701C851.309 119.63 843.658 115.876 836.426 111.866C821.961 103.846 809.174 94.4614 796.91 85.0766C784.647 75.6917 773.012 66.2216 760.854 57.6046C748.695 48.9876 736.013 41.3091 722.177 35.6781C695.03 24.2457 662.223 22.1128 633.189 29.8766L627.739 31.327L622.288 33.0333C620.506 33.5452 618.724 34.2278 616.943 34.9103L614.322 35.9341L612.96 36.446L611.702 36.9579L606.461 39.1761C604.679 39.944 603.002 40.7972 601.325 41.565L598.705 42.7594L596.189 44.0392C594.512 44.8924 592.835 45.7455 591.158 46.5987C584.45 50.182 577.846 53.9359 571.243 57.9458C564.64 61.9557 558.141 65.9656 551.538 70.0608C544.934 74.156 538.226 78.3365 531.308 82.3464C524.391 86.3563 517.263 90.2809 509.926 93.9495C506.258 95.8265 502.484 97.5328 498.816 99.2392C496.929 100.092 495.042 100.86 493.156 101.713C491.269 102.567 489.382 103.334 487.391 104.102L481.626 106.406L475.756 108.539L472.822 109.562L469.782 110.501C467.79 111.184 465.799 111.781 463.807 112.463C459.72 113.658 455.737 114.852 451.544 115.876C449.448 116.388 447.456 116.985 445.36 117.412L439.071 118.777C430.686 120.398 422.196 121.933 413.496 122.701L410.247 123.043C409.199 123.128 408.046 123.213 406.998 123.299L400.499 123.725L394 123.896L390.751 123.981H387.502C378.802 123.896 370.207 123.469 361.613 122.531C344.528 120.739 327.862 117.326 311.721 112.975C303.65 110.842 295.684 108.453 287.823 105.809C279.962 103.249 272.31 100.434 264.658 97.6181C249.46 91.9019 234.786 85.8444 219.588 81.3226C212.041 79.1044 204.285 77.2274 196.529 76.033C188.667 74.7532 180.806 74.156 172.736 74.0707C156.594 73.8148 140.452 75.6917 124.73 79.1044C109.008 82.5171 93.8096 87.6361 79.1355 93.7789C64.5662 99.9217 50.6258 107.259 37.419 115.364C24.2123 123.043 11.7393 132.086 0 141.642Z" fill="#1515F0"/>
</g>
<defs>
<filter id="filter0_dii" x="-28" y="0" width="1497" height="189.642" filterUnits="userSpaceOnUse" color-interpolation-filters="sRGB">
<feFlood flood-opacity="0" result="BackgroundImageFix"/>
<feColorMatrix in="SourceAlpha" type="matrix" values="0 0 0 0 0 0 0 0 0 0 0 0 0 0 0 0 0 0 127 0"/>
<feOffset dy="20"/>
<feGaussianBlur stdDeviation="14"/>
<feColorMatrix type="matrix" values="0 0 0 0 0 0 0 0 0 0 0 0 0 0 0 0 0 0 0.45 0"/>
<feBlend mode="normal" in2="BackgroundImageFix" result="effect1_dropShadow"/>
<feBlend mode="normal" in="SourceGraphic" in2="effect1_dropShadow" result="shape"/>
<feColorMatrix in="SourceAlpha" type="matrix" values="0 0 0 0 0 0 0 0 0 0 0 0 0 0 0 0 0 0 127 0" result="hardAlpha"/>
<feOffset dy="2"/>
<feGaussianBlur stdDeviation="1"/>
<feComposite in2="hardAlpha" operator="arithmetic" k2="-1" k3="1"/>
<feColorMatrix type="matrix" values="0 0 0 0 1 0 0 0 0 1 0 0 0 0 1 0 0 0 0.35 0"/>
<feBlend mode="normal" in2="shape" result="effect2_innerShadow"/>
<feColorMatrix in="SourceAlpha" type="matrix" values="0 0 0 0 0 0 0 0 0 0 0 0 0 0 0 0 0 0 127 0" result="hardAlpha"/>
<feOffset dy="-4"/>
<feGaussianBlur stdDeviation="2"/>
<feComposite in2="hardAlpha" operator="arithmetic" k2="-1" k3="1"/>
<feColorMatrix type="matrix" values="0 0 0 0 0 0 0 0 0 0 0 0 0 0 0 0 0 0 0.7 0"/>
<feBlend mode="normal" in2="effect2_innerShadow" result="effect3_innerShadow"/>
</filter>
<linearGradient id="paint0_linear" x1="720.5" y1="58.0418" x2="720.5" y2="320" gradientUnits="userSpaceOnUse">
<stop stop-color="#1515F0" stop-opacity="0.26"/>
<stop offset="1" stop-color="#1515F0" stop-opacity="0"/>
</linearGradient>
</defs>
</svg>
