<svg width="443" height="157" viewBox="0 0 443 157" fill="none" xmlns="http://www.w3.org/2000/svg">
<path fill-rule="evenodd" clip-rule="evenodd" d="M108.714 54.8356V49.9254C108.714 45.4244 110.603 42.2874 115.28 42.2874C119.417 42.2874 121.396 45.0152 121.53 48.1978H128.681C128.591 41.469 123.689 35.8314 115.37 35.8314C105.656 35.8314 100.979 42.0146 100.979 50.2891V54.4719C100.979 62.7465 105.656 68.9297 115.37 68.9297C123.689 68.9297 128.591 63.292 128.681 56.5633H121.53C121.396 59.7458 119.417 62.4737 115.28 62.4737C110.603 62.4737 108.714 59.3366 108.714 54.8356ZM151.975 68.2932H160.969L154.539 57.5635C158.181 55.7904 160.385 52.2441 160.385 47.6977C160.385 41.1962 156.247 36.4679 148.603 36.4679H133.808V68.2932H141.542V58.8365H146.624L151.975 68.2932ZM152.65 47.7886C152.65 50.6983 150.941 52.6533 147.703 52.6533H141.542V42.742H147.703C150.941 42.742 152.65 44.7424 152.65 47.7886ZM193.571 50.3346V54.4264C193.571 62.7465 188.67 68.9297 179.136 68.9297C169.603 68.9297 164.701 62.7465 164.701 54.4264V50.3346C164.701 42.0146 169.603 35.8314 179.136 35.8314C188.67 35.8314 193.571 42.0146 193.571 50.3346ZM185.837 54.8356V49.9254C185.837 45.379 183.633 42.3328 179.136 42.3328C174.639 42.3328 172.436 45.379 172.436 49.9254V54.8356C172.436 59.3821 174.639 62.4282 179.136 62.4282C183.633 62.4282 185.837 59.3821 185.837 54.8356ZM223.399 58.5182C223.399 54.1082 221.375 51.2894 216.339 49.9254L207.974 47.6522C206.715 47.3339 205.951 46.561 205.951 45.0607C205.951 42.7875 207.66 41.8327 210.358 41.8327C213.596 41.8327 214.765 43.6058 214.765 45.7427V46.2882H221.915V45.5153C221.915 39.6959 217.418 35.8314 210.358 35.8314C202.893 35.8314 198.441 39.4685 198.441 45.7881C198.441 50.9711 200.959 53.1534 205.861 54.381L213.73 56.3814C215.304 56.7906 215.889 57.7908 215.889 59.2002C215.889 61.6553 213.775 62.9738 210.583 62.9738C207.03 62.9738 205.321 61.3371 205.321 58.6546V58.0181H197.901V58.882C197.901 65.2925 202.983 68.9297 210.538 68.9297C217.823 68.9297 223.399 64.8833 223.399 58.5182ZM245.586 49.9254C250.623 51.2894 252.647 54.1082 252.647 58.5182C252.647 64.8833 247.07 68.9297 239.785 68.9297C232.23 68.9297 227.149 65.2925 227.149 58.882V58.0181H234.569V58.6546C234.569 61.3371 236.278 62.9738 239.83 62.9738C243.023 62.9738 245.137 61.6553 245.137 59.2002C245.137 57.7908 244.552 56.7906 242.978 56.3814L235.109 54.381C230.207 53.1534 227.689 50.9711 227.689 45.7881C227.689 39.4685 232.141 35.8314 239.605 35.8314C246.666 35.8314 251.163 39.6959 251.163 45.5153V46.2882H244.013V45.7427C244.013 43.6058 242.843 41.8327 239.605 41.8327C236.907 41.8327 235.198 42.7875 235.198 45.0607C235.198 46.561 235.963 47.3339 237.222 47.6522L245.586 49.9254ZM264.351 54.8356V49.9254C264.351 45.4244 266.24 42.2874 270.917 42.2874C275.054 42.2874 277.033 45.0152 277.167 48.1978H284.318C284.228 41.469 279.326 35.8314 271.007 35.8314C261.293 35.8314 256.616 42.0146 256.616 50.2891V54.4719C256.616 62.7465 261.293 68.9297 271.007 68.9297C279.326 68.9297 284.228 63.292 284.318 56.5633H277.167C277.033 59.7458 275.054 62.4737 270.917 62.4737C266.24 62.4737 264.351 59.3366 264.351 54.8356ZM315.887 36.4679V68.2932H308.152V55.8358H297.179V68.2932H289.444V36.4679H297.179V48.8343H308.152V36.4679H315.887ZM342.578 68.2932H350.313L339.07 36.4679H331.156L319.913 68.2932H327.648L329.402 62.3827H340.779L342.578 68.2932ZM335.113 43.5149L338.89 56.1086H331.29L335.113 43.5149ZM381.064 36.4679V68.2932H373.689L361.907 49.6981V68.2932H354.352V36.4679H361.682L373.509 55.0629V36.4679H381.064ZM413.998 47.4703C413.818 40.6961 408.827 35.8314 400.417 35.8314C391.873 35.8314 386.387 41.2417 386.387 50.1073V54.5628C386.387 62.5646 391.109 68.9297 400.462 68.9297C408.557 68.9297 414.313 63.7467 414.313 55.7904V51.2894H400.597V57.6089H406.713C406.578 60.5642 404.285 62.6555 400.642 62.6555C395.92 62.6555 394.122 59.3366 394.122 54.7447V49.7436C394.122 44.697 396.325 42.2874 400.642 42.2874C404.42 42.2874 406.488 44.7879 406.623 47.4703H413.998ZM442.455 68.2932H419.61V36.4679H442.41V42.9693H427.345V48.9252H441.061V55.4266H427.345V61.7917H442.455V68.2932ZM235.904 100.33C239.321 101.285 241.975 103.422 241.975 107.878C241.975 113.333 237.343 116.789 231.137 116.789H215.892V84.9634H230.957C236.893 84.9634 240.041 88.6006 240.041 93.1016C240.041 96.466 238.692 98.8301 235.904 100.33ZM230.867 110.651C233.071 110.651 234.33 109.196 234.33 107.15C234.33 105.013 232.981 103.74 230.732 103.74H223.447V110.651H230.867ZM223.447 91.1011V97.6481H229.203C231.227 97.6481 232.351 96.3296 232.351 94.2382C232.351 92.2832 231.137 91.1011 229.113 91.1011H223.447ZM273.994 116.789H266.259L264.46 110.878H253.083L251.329 116.789H243.594L254.837 84.9634H262.751L273.994 116.789ZM262.571 104.604L258.794 92.0104L254.972 104.604H262.571ZM304.745 116.789V84.9634H297.19V103.558L285.363 84.9634H278.033V116.789H285.588V98.1936L297.37 116.789H304.745ZM318.792 101.331V116.789H311.057V84.9634H318.792V100.149L328.191 84.9634H337.095L326.707 100.74L337.409 116.789H328.326L318.792 101.331Z" fill="white"/>
<path d="M61.1012 68.8823C60.9086 68.6889 60.7161 68.4955 60.4915 68.2698C60.6118 68.3988 60.7402 68.5197 60.8605 68.6567C60.9327 68.7211 61.021 68.8017 61.1012 68.8823Z" fill="white"/>
<path d="M64.7708 35.3202C65.5731 35.3122 66.1507 35.8587 66.1507 36.6303C66.1507 37.3777 65.533 37.9403 64.7387 37.9082C65.533 37.9403 66.1507 37.3777 66.1507 36.6303C66.1587 35.8587 65.5811 35.3122 64.7708 35.3202Z" fill="white"/>
<path d="M63.6887 34.5459C63.5524 34.5459 63.4242 34.57 63.2879 34.586C60.8029 34.7789 58.7748 36.8525 58.7428 39.3842C58.7107 42.0685 60.9552 44.343 63.6647 44.3671C64.2819 44.3752 64.8751 44.2386 65.4282 44.0216C67.2238 43.2982 68.5385 41.506 68.5385 39.4565C68.5545 36.7319 66.4062 34.57 63.6887 34.5459ZM64.7388 37.9134C63.9452 37.8812 63.5765 37.3508 63.4803 36.6435C63.3921 36.0086 64.1056 35.3255 64.7789 35.3174C65.5805 35.3094 66.1577 35.8559 66.1577 36.6274C66.1497 37.3749 65.5324 37.9455 64.7388 37.9134Z" fill="white"/>
<path d="M63.4735 36.6463C63.3852 36.0113 64.0993 35.3282 64.7732 35.3202C64.1073 35.3282 63.3852 36.0113 63.4735 36.6463C63.5698 37.3535 63.9388 37.8759 64.7331 37.9161C63.9468 37.8759 63.5778 37.3535 63.4735 36.6463Z" fill="white"/>
<path d="M91.681 1.58659C91.5929 1.3937 91.3363 1.20885 91.1199 1.13651C91.1039 1.12848 91.0878 1.12847 91.0718 1.12847C91.0397 1.11239 91.0157 1.08828 90.9916 1.08025C88.1379 0.228319 85.22 -0.0851205 82.254 0.0193613C80.787 0.0756207 79.3361 0.228325 77.8932 0.509622C75.0154 1.05614 72.2658 1.99647 69.5965 3.17792C67.5844 4.07003 65.6605 5.13092 63.8088 6.32845C62.0933 7.42952 60.4179 8.57882 58.8708 9.90494C57.6042 10.998 56.3698 12.1151 55.1192 13.2162C54.9589 13.3609 54.5902 13.5939 54.502 13.5216C54.4699 13.4734 54.5501 13.1921 54.6303 13.0876C55.4078 11.9946 56.1213 10.8533 56.995 9.84868C58.7826 7.7912 60.8588 6.04716 63.1274 4.52815C63.424 4.32723 63.8168 4.14237 63.7366 3.70034C63.6885 3.43511 63.5042 3.31456 63.2958 3.23419C63.1675 3.17793 63.0312 3.1297 62.8949 3.08951C60.9711 2.4787 59.0392 1.95629 57.0271 1.70714C55.2796 1.49014 53.524 1.38566 51.7685 1.47407C50.4939 1.53836 49.2193 1.71517 47.9448 1.86788C45.6121 2.14917 42.6942 2.80822 41.107 3.43511C40.1611 3.78071 37.9806 7.87156 37.9806 7.87156C37.0347 9.6799 36.153 11.5124 35.4716 13.4412C34.9185 15.0165 34.4054 16.6078 33.8603 18.1831C33.7722 18.4323 33.684 18.8904 33.3473 18.8502C33.211 18.8422 33.203 18.4885 33.219 18.3278C33.3473 16.9936 33.4034 15.6434 33.6599 14.3414C34.197 11.6651 35.1269 9.1173 36.3454 6.666C36.5057 6.34452 36.7542 5.9909 36.4576 5.6453C36.2973 5.45241 36.0888 5.4283 35.8804 5.44438C34.4696 6.07127 33.0908 6.76245 31.7441 7.5099C29.6438 8.67527 27.6558 10.0175 25.7079 11.432C25.3632 11.6811 25.0265 11.9303 24.6898 12.1875C24.6498 12.2116 24.6177 12.2437 24.5856 12.2678C24.289 12.5009 23.9924 12.726 23.6958 12.9671C17.0664 18.0224 12.1285 24.6208 8.16849 32.2158C8.00015 32.5614 7.83181 32.907 7.65545 33.2526C7.14242 34.2894 6.62938 35.3262 6.10031 36.3549C5.72355 37.1024 5.36282 37.8578 5.01011 38.6214C4.60129 39.5295 4.2085 40.4458 3.8638 41.3781C2.88583 44.0142 2.02008 46.6825 1.45093 49.4312C0.809632 52.4853 0.304613 55.5555 0.136274 58.6899C0.0480956 60.3375 0 61.9771 0 63.6166C0 64.9267 0.0160284 66.2367 0.0961902 67.5467C0.248498 70.0463 0.513031 72.5217 0.921856 74.9891C1.2906 77.2153 1.75555 79.4255 2.24453 81.6277C2.56518 83.0743 2.95798 84.513 3.37482 85.9355C3.5672 86.5865 3.79166 87.2215 4.00008 87.8644C4.24056 88.6199 4.48104 89.3754 4.72954 90.1228C6.7897 87.8242 10.7016 84.6737 16.8099 84.5532C20.5054 84.513 23.7199 85.7266 26.8702 86.9402C31.6799 88.7887 35.4716 90.2434 39.5117 86.9C43.3996 83.6852 44.57 80.6873 45.604 78.0432C47.079 74.2738 48.3536 71.0187 56.5942 70.4963C58.8387 70.3517 60.963 70.4401 62.943 70.6732C62.6144 70.3597 62.2857 70.0463 61.949 69.7248C61.7486 69.5239 61.436 69.2184 61.0833 68.8648C61.0031 68.7925 60.9149 68.7121 60.8428 68.6398C60.7145 68.5112 60.5943 68.3826 60.474 68.254C59.5121 67.2413 58.5742 66.2769 57.5722 65.3526C56.3938 64.2515 55.1353 63.1987 53.6603 62.1458C53.8767 62.1056 54.1012 62.0976 54.3256 62.1057C55.2635 62.1217 56.2816 62.4673 57.1393 62.7165C57.7806 62.9013 58.3257 63.0219 58.6624 62.8933C58.8147 62.837 58.943 62.7406 59.0071 62.5557C59.456 61.6556 59.7686 60.6992 59.953 59.6945C60.45 57.0182 59.969 54.0364 58.1414 51.119L56.1213 47.6791C55.2555 46.3369 54.3657 45.0028 53.3637 43.7731C52.3376 42.5193 51.2314 41.3379 50.1252 40.1484C49.9087 39.9153 49.6843 39.6742 49.4678 39.4411C48.8346 38.7499 48.7784 38.3561 49.2273 37.6328C49.2594 37.5846 49.2674 37.5444 49.2995 37.4962C49.3877 37.3595 49.4919 37.2229 49.5961 37.0943C50.3737 36.1459 51.1272 35.1735 51.9368 34.2492C53.4358 32.5534 55.0471 30.9861 56.971 29.7726C58.8548 28.5831 60.8348 27.6749 63.0873 27.49C64.6505 27.3614 66.1174 27.5141 67.4802 27.9642C68.859 28.4143 70.1335 29.1698 71.3199 30.2387C73.1637 31.9104 74.1577 34 74.4703 36.4272C74.7028 38.2275 74.5425 40.0118 73.9733 41.7558C73.5244 43.1301 72.9232 44.4 72.2097 45.6056C71.5765 46.6745 70.8229 47.6711 69.9812 48.6195C69.6927 48.9409 69.4281 49.2785 69.1155 49.5839C68.5223 50.1626 67.5523 49.9456 66.8469 49.8331L63.0793 49.174C63.1755 49.3749 63.2797 49.6 63.3839 49.8089C63.7767 50.6287 64.1695 51.4967 64.5623 52.413C65.404 54.382 66.2537 56.5119 67.0954 58.6256C67.8569 60.5304 68.6185 62.403 69.38 64.0988C69.6846 64.782 69.9973 65.441 70.3019 66.0518C70.3019 66.0518 76.5144 54.3177 80.6989 39.4894C80.7069 39.4733 80.7069 39.4572 80.7149 39.4492V39.4411C80.7229 39.417 80.7229 39.3929 80.7309 39.3688C81.4845 36.6684 81.4283 33.8715 80.8271 31.0263C80.3301 28.7117 79.761 26.4211 79.3121 24.0984C79.296 24.0261 79.28 23.9457 79.264 23.8734C78.8872 21.856 78.9032 19.8146 79.3201 17.7973C79.8652 15.1773 81.0997 12.8626 82.6308 10.7167C83.8252 9.04498 85.2441 7.54204 86.7751 6.17574C88.2662 4.84963 89.7972 3.5637 91.3123 2.26973C91.5608 2.08488 91.8093 1.87592 91.681 1.58659Z" fill="white"/>
<path d="M56.7553 72.9143C57.4447 72.8741 58.1181 72.85 58.7754 72.85C61.3406 72.85 63.7214 73.1634 65.8537 73.6055C66.6232 74.3449 67.3928 75.0923 68.1543 75.8157C75.5132 82.8159 82.6315 89.3018 89.4934 95.9163L96.6599 102.217C108.869 113.678 120.548 124.633 126.777 130.484C127.105 130.789 127.418 131.079 127.715 131.36C128.083 131.738 128.46 132.115 128.829 132.493C129.198 132.871 129.574 133.249 129.943 133.618C133.077 136.785 136.781 140.498 140.548 143.56C140.805 143.97 141.029 144.42 141.342 144.79C141.727 145.248 141.799 145.618 141.566 145.915C141.454 146.068 141.286 146.204 141.005 146.309C140.661 146.437 140.316 146.566 139.971 146.678C139.619 146.791 139.274 146.895 138.913 146.976C138.079 147.048 137.238 147.08 136.396 147.088C135.675 147.169 134.977 147.201 134.28 147.201C130.4 147.201 126.849 146.076 123.514 144.227C122.977 143.97 122.456 143.705 121.943 143.407C121.462 143.15 120.973 142.893 120.5 142.62C119.362 141.961 118.231 141.269 117.117 140.57C116.652 140.281 116.235 139.919 115.786 139.598C113.277 137.814 110.816 135.957 108.564 133.851C106.624 132.035 104.716 130.186 102.88 128.257C100.965 126.24 99.1288 124.134 97.3011 122.029C97.1809 121.892 97.0767 121.739 96.9565 121.603C96.1148 120.606 95.3292 119.561 94.5115 118.549C94.3111 118.308 94.0626 118.115 93.8302 117.898C93.7821 117.874 93.75 117.866 93.7259 117.866C93.6458 117.866 93.6378 117.954 93.6378 118.01C93.6698 118.219 93.6778 118.436 93.742 118.629C93.8382 118.943 93.9584 119.256 94.1107 119.545C94.9123 121.072 95.722 122.599 96.5316 124.118C96.9084 124.826 97.2771 125.549 97.6779 126.248C98.6078 127.856 99.5136 129.471 100.5 131.038C100.852 131.593 101.205 132.155 101.558 132.71C102.768 134.639 103.987 136.56 105.309 138.408C107.714 141.768 110.408 144.894 113.43 147.723C114.937 149.13 116.596 150.343 118.392 151.356C118.776 151.573 119.169 151.766 119.57 151.951C119.971 152.136 120.372 152.312 120.765 152.505C121.558 153.293 121.149 153.703 120.765 153.751C120.724 153.775 120.684 153.783 120.644 153.807C120.324 153.968 119.995 154.121 119.666 154.257C117.823 155.021 115.883 155.375 113.863 155.375H113.823C110.151 155.367 106.8 154.273 103.61 152.537C100.107 150.625 96.9565 148.262 94.1989 145.368C92.8923 144.002 91.5455 142.676 90.295 141.261C89.79 140.683 89.317 140.088 88.8441 139.485C88.323 138.81 87.81 138.135 87.2889 137.468C85.2448 134.848 83.3931 132.091 81.5975 129.294C80.5313 127.647 79.5854 125.927 78.5914 124.231C78.1505 123.492 77.7256 122.744 77.2928 121.997C77.0282 121.53 76.7637 121.072 76.4911 120.614C76.3228 120.325 75.946 119.859 75.7136 119.859H75.7056C75.6174 119.923 75.6414 120.261 75.6655 120.421L75.6688 120.448C75.7319 120.946 75.7958 121.451 75.914 121.94C76.6034 124.834 77.429 127.679 78.399 130.5C79.3048 133.152 80.379 135.724 81.5895 138.231C82.3991 139.895 83.369 141.478 84.2749 143.094C84.5875 143.64 84.9081 144.171 85.2528 144.693C85.7659 145.473 86.3511 146.18 86.9122 146.92C88.2509 148.68 89.6697 150.367 91.289 151.886C92.4033 152.939 93.6698 153.823 94.8722 154.788C94.9284 154.836 94.9925 154.868 95.0486 154.916C95.2731 155.093 95.5376 155.302 95.4013 155.592C95.3452 155.712 95.2089 155.817 95.0566 155.897C94.9765 155.945 94.9043 155.993 94.8241 156.009C93.7981 156.259 92.764 156.355 91.7299 156.355C91.265 156.355 90.8081 156.331 90.3431 156.299C89.7579 156.251 89.1728 156.17 88.5956 156.082C85.4452 155.592 82.6075 154.346 79.9702 152.562C76.924 150.496 74.3989 147.908 72.1945 144.991C72.0502 144.806 71.8979 144.637 71.7616 144.444C69.998 142.033 68.4589 139.501 67.1042 136.849C65.533 133.755 64.1222 130.588 62.9919 127.301C62.2143 125.051 61.5249 122.768 60.8115 120.486L60.3546 119.015L60.3545 119.015C60.2423 118.645 60.1301 118.275 59.9858 117.922C59.9377 117.809 59.7854 117.657 59.6812 117.649C59.5369 117.713 59.4648 117.849 59.4247 117.97C59.3606 118.155 59.3365 118.364 59.3205 118.565C59.2323 119.851 59.1201 121.129 59.08 122.415C58.9678 126.321 59.2483 130.186 59.9538 134.036C60.4027 136.463 61.036 138.834 61.8937 141.141C62.8476 143.721 64.1382 146.116 65.7655 148.31L65.7655 148.31C66.1263 148.8 66.487 149.29 66.8878 149.765C67.0401 149.95 67.1924 150.142 67.2966 150.351C67.3527 150.456 67.3206 150.528 67.3126 150.617C67.2966 150.818 67.1924 150.97 66.9118 150.994C66.8717 151.002 66.8316 151.002 66.7916 151.002C66.6793 151.002 66.5751 150.994 66.4709 150.97C64.4027 150.552 62.4628 149.805 60.6432 148.744C58.7834 147.659 57.1561 146.277 55.6411 144.733C54.5348 143.608 53.5809 142.387 52.6991 141.125C51.2081 138.979 49.9736 136.672 48.9716 134.213C47.5608 130.757 46.6469 127.164 45.9415 123.524C45.5808 121.651 45.3804 119.746 45.1639 117.849C45.0357 116.74 44.9555 115.631 44.8593 114.514C44.8112 113.911 44.7471 113.301 44.691 112.698C44.6669 112.392 44.707 111.999 44.3543 111.886C44.2982 111.87 44.2501 111.862 44.202 111.862C43.9134 111.862 43.745 112.167 43.5927 112.392C42.0937 114.538 40.8753 116.837 40.0095 119.312C39.6648 120.293 39.3602 121.297 39.0957 122.31C38.2139 125.75 38.1818 129.214 38.9514 132.678C39.1839 133.731 39.5366 134.759 39.8251 135.804C39.9053 136.094 40.1458 136.439 39.8652 136.68C39.777 136.753 39.6889 136.785 39.6007 136.785C39.3843 136.785 39.1678 136.6 38.9754 136.487C36.9073 135.306 35.296 133.699 34.0054 131.81C33.5324 131.111 33.0835 130.379 32.6908 129.6C31.4563 127.172 30.7668 124.576 30.4141 121.876C30.366 121.547 30.358 121.217 30.326 120.888C30.0935 118.34 30.2378 115.8 30.5023 113.252C30.6386 111.934 30.8791 110.64 31.1516 109.354C31.352 108.398 31.5605 107.45 31.7689 106.493C31.809 106.3 31.8651 106.099 31.8651 105.898C31.8651 105.697 31.7689 105.585 31.6246 105.585C31.5685 105.585 31.4963 105.609 31.4242 105.649C31.2799 105.722 31.1677 105.85 31.0554 105.971C28.9873 108.245 27.2077 110.737 25.7728 113.461C24.6826 115.527 23.897 117.721 23.5443 120.052C23.4962 120.413 23.5122 120.783 23.5042 121.153L23.5036 121.175C23.496 121.45 23.4881 121.735 23.1916 121.86C23.1274 121.892 23.0633 121.9 23.0072 121.9C22.7988 121.9 22.6224 121.747 22.4701 121.595C22.1815 121.313 21.909 121.016 21.6444 120.711C21.3398 120.365 21.0833 119.995 20.8268 119.626C19.7446 118.058 19.0312 116.306 18.6223 114.426C18.3017 112.987 18.2937 111.508 18.4059 110.037C18.6464 106.879 19.7045 104.002 21.1234 101.245C21.412 100.682 21.6925 100.12 22.0132 99.5652C22.2697 99.1231 22.5182 98.6731 22.7346 98.2069C22.7988 98.0622 22.895 97.8131 22.7667 97.6925C22.6865 97.6443 22.5984 97.6282 22.5102 97.6282C22.414 97.6282 22.3258 97.6443 22.2457 97.6765C21.2036 98.0703 20.2737 98.6409 19.4159 99.3482C17.3959 101.012 15.8648 103.045 14.8387 105.456C14.502 106.26 14.2375 107.104 13.9249 107.932C13.8287 108.181 13.7806 108.559 13.476 108.559H13.4198C13.2194 108.527 13.011 108.334 12.8667 108.133C12.8427 108.093 12.8026 108.06 12.7866 108.028C11.9208 106.469 11.0471 104.926 10.2615 103.327C9.70034 102.193 9.30754 101.382 8.77847 100.232C8.82657 100.176 8.93881 100.072 8.9869 100.015C10.6222 98.1828 12.2575 96.2378 14.2215 94.6867C14.7586 94.2607 15.2876 93.8267 15.7846 93.3606C15.9449 93.2239 16.1934 92.9667 16.0812 92.7497C15.9449 92.581 15.6564 92.4765 15.4399 92.4765H15.1032C13.7405 92.4765 12.3858 92.6372 11.1192 93.1435C9.54001 93.7785 8.07306 95.0242 7.15921 95.7717C6.91071 95.0885 6.38965 93.674 6.14917 92.9909L5.95679 92.4363C7.46383 90.5235 10.9749 87.0917 16.8828 86.9791C16.9951 86.9711 17.1073 86.9711 17.2195 86.9711C20.2032 86.9711 23.1244 88.0914 25.9214 89.164L26.0293 89.2054C28.7468 90.2502 31.5204 91.3111 34.326 91.3111C36.5465 91.3111 38.7991 90.644 41.0596 88.7714C45.4204 85.1547 46.7752 81.7068 47.8574 78.934C49.2682 75.3254 50.0458 73.3402 56.7553 72.9143Z" fill="white"/>
<path d="M442.131 103.65C442.131 114.693 433.18 123.645 422.137 123.645L365.895 123.645C354.852 123.645 345.901 114.693 345.901 103.65L345.901 101.297C345.901 90.2549 354.848 81.3032 365.891 81.3032C385.199 81.3032 412.935 81.3032 422.885 81.3032C438.755 81.3032 442.131 69.3801 442.131 69.3801L442.131 103.65Z" fill="white"/>
<path d="M370.269 105.998V113.657H364.695V91.084H373.922C375.69 91.084 377.252 91.4044 378.607 92.0452C379.972 92.6757 381.026 93.5801 381.767 94.7583C382.519 95.9263 382.894 97.2544 382.894 98.7428C382.894 100.944 382.085 102.707 380.465 104.029C378.856 105.342 376.643 105.998 373.827 105.998H370.269ZM370.269 101.797H373.922C375.002 101.797 375.822 101.533 376.383 101.006C376.955 100.479 377.241 99.735 377.241 98.7738C377.241 97.7195 376.95 96.8772 376.368 96.2467C375.785 95.6162 374.991 95.2958 373.985 95.2855H370.269V101.797Z" fill="#1515F0"/>
<path d="M394.471 105.688H391.454V113.657H385.88V91.084H394.98C397.722 91.084 399.866 91.6783 401.411 92.8669C402.957 94.0555 403.73 95.7351 403.73 97.9056C403.73 99.4766 403.402 100.779 402.745 101.812C402.099 102.846 401.083 103.683 399.696 104.324L404.524 113.425V113.657H398.553L394.471 105.688ZM391.454 101.487H394.98C396.038 101.487 396.832 101.218 397.362 100.681C397.902 100.133 398.172 99.3732 398.172 98.4017C398.172 97.4301 397.902 96.6704 397.362 96.1227C396.822 95.5645 396.028 95.2855 394.98 95.2855H391.454V101.487Z" fill="#1515F0"/>
<path d="M426.677 102.836C426.677 105.037 426.259 106.985 425.423 108.681C424.586 110.376 423.395 111.683 421.85 112.603C420.315 113.512 418.562 113.967 416.593 113.967C414.624 113.967 412.877 113.528 411.353 112.649C409.828 111.761 408.637 110.494 407.779 108.851C406.932 107.208 406.488 105.321 406.445 103.192V101.921C406.445 99.7091 406.858 97.7609 407.684 96.0761C408.521 94.3811 409.712 93.0736 411.257 92.1537C412.814 91.2339 414.582 90.7739 416.561 90.7739C418.52 90.7739 420.267 91.2287 421.802 92.1382C423.337 93.0478 424.528 94.3449 425.375 96.0296C426.233 97.704 426.667 99.6265 426.677 101.797V102.836ZM421.008 101.89C421.008 99.6471 420.622 97.9469 419.849 96.7893C419.086 95.6214 417.991 95.0374 416.561 95.0374C413.766 95.0374 412.29 97.0839 412.131 101.177L412.115 102.836C412.115 105.048 412.491 106.748 413.242 107.936C413.994 109.125 415.111 109.719 416.593 109.719C418.001 109.719 419.086 109.135 419.849 107.967C420.611 106.799 420.997 105.12 421.008 102.929V101.89Z" fill="#1515F0"/>
</svg>
