<svg width="71" height="70" viewBox="0 0 71 70" fill="none" xmlns="http://www.w3.org/2000/svg">
<path d="M56.6512 5.24409C51.5178 4.07739 37.9841 3.29959 33.0061 1.58843C20.6391 -2.61169 8.42767 1.43287 5.78316 14.7332C4.8498 19.4778 3.6831 30.1337 1.97194 34.6449C-2.69486 47.1675 0.805239 60.6234 13.7167 64.2013C18.2279 65.4458 30.4394 67.1569 35.0284 68.4014C48.0177 71.9015 61.2403 70.0348 63.4181 58.99C64.3515 54.2454 66.0626 38.4561 67.696 33.9449C72.4406 21.4223 70.6516 8.35528 56.6512 5.24409Z" fill="#F2F4F8"/>
<path d="M49.9959 25.5411C49.9959 27.4139 50.0026 29.2797 49.9888 31.1525C49.9888 31.6551 49.9341 32.1646 49.879 32.6672C49.8172 33.2594 49.7413 33.8584 49.652 34.4505C49.4733 35.6829 49.1983 36.8947 48.8477 38.0927C48.1051 40.6403 47.0325 43.0225 45.5199 45.2051C44.3169 46.9538 42.9487 48.5651 41.3881 50.0042C39.6555 51.6152 37.6755 52.8339 35.4615 53.66C35.2277 53.7497 35.0146 53.7497 34.7809 53.667C33.1102 53.0472 31.577 52.2003 30.1607 51.1194C28.9506 50.1969 27.8781 49.116 26.8743 47.9729C25.9186 46.8852 25.0317 45.7353 24.2548 44.5097C22.921 42.4166 21.9653 40.1583 21.2984 37.7691C21.0097 36.7433 20.7759 35.6967 20.6178 34.6433C20.5146 33.9617 20.4184 33.2869 20.3496 32.6053C20.2877 31.9994 20.2396 31.3866 20.2396 30.7738C20.2465 27.0008 20.2465 23.2277 20.2396 19.4546C20.2396 19.3307 20.2809 19.2756 20.3909 19.2205C22.5703 18.1533 24.8529 17.396 27.218 16.8934C28.2493 16.673 29.2875 16.4871 30.3257 16.3219C30.9376 16.2186 31.5563 16.1635 32.1682 16.1153C32.842 16.0602 33.5158 16.0258 34.1896 16.012C35.0215 15.9983 35.8534 15.9914 36.6784 16.0189C37.3934 16.0465 38.1154 16.1084 38.8304 16.1911C40.6043 16.3838 42.3573 16.7212 44.0969 17.1481C46.0838 17.6438 48.002 18.3255 49.8377 19.2205C49.9478 19.2756 49.9888 19.3376 49.9888 19.4615C49.9959 21.4857 49.9959 23.51 49.9959 25.5411ZM45.0386 26.2916C45.0319 26.3604 45.0249 26.3948 45.0249 26.4362C45.0319 26.6565 45.0319 26.8837 45.0524 27.104C45.0937 27.524 45.2724 27.8752 45.5958 28.1506C45.7607 28.2883 45.9464 28.3571 46.1526 28.3089C46.3037 28.2745 46.4481 28.2263 46.5996 28.1988C46.6751 28.185 46.7574 28.185 46.84 28.1781C46.8471 28.1988 46.8608 28.2125 46.8676 28.2332C46.792 28.3227 46.7232 28.4398 46.6338 28.5086C46.5032 28.605 46.3521 28.6739 46.2077 28.7427C46.0425 28.8253 45.8843 28.9217 45.7882 29.0939C45.4306 29.7273 45.3893 30.3607 45.7812 31.001C46.0357 31.4141 46.3726 31.7584 46.7164 32.082C47.3075 32.6328 47.782 33.2731 48.2082 33.9548C48.3046 34.1062 48.4007 34.2577 48.5108 34.4023C48.5726 34.4849 48.6552 34.5744 48.7788 34.5056C48.9027 34.4367 48.8544 34.3197 48.8201 34.2233C48.7241 33.9685 48.6207 33.7069 48.5038 33.459C47.9607 32.3712 47.8301 31.2145 48.0088 30.0302C48.1051 29.3693 48.2633 28.7152 48.4144 28.0611C48.6277 27.1453 48.8752 26.2365 48.9645 25.2932C49.0263 24.5909 48.9783 23.9093 48.8272 23.2208C48.6552 22.429 48.222 21.8162 47.5621 21.3687C47.232 21.1484 46.8608 21.0107 46.4552 21.0795C45.7194 21.2103 45.1145 21.589 44.6605 22.1742C44.3857 22.5254 44.145 22.911 43.9388 23.3034C43.2305 24.646 42.9555 26.0988 42.9007 27.6067C42.8869 27.9991 42.8937 28.3916 42.9279 28.7771C42.983 29.3761 43.0448 29.9751 43.1412 30.5742C43.2718 31.3522 43.4918 32.1095 43.7806 32.8463C43.8219 32.9427 43.7873 33.0184 43.705 33.0322C43.5744 33.0597 43.43 33.0941 43.2993 33.0666C42.8799 32.984 42.5155 32.7774 42.1992 32.4882C41.6836 32.0131 41.3881 31.4073 41.2024 30.7394C41.1886 30.6981 41.1749 30.6568 41.1544 30.581C41.1198 30.6499 41.0993 30.6774 41.0923 30.7119C41.051 30.9184 40.9962 31.1319 40.9824 31.3384C40.9549 31.9856 41.1544 32.5846 41.4224 33.1698C41.6286 33.6174 41.8761 34.0305 42.2613 34.3472C42.5843 34.6157 42.9555 34.8016 43.3336 34.9669C43.7188 35.1321 44.1037 35.3042 44.4818 35.4764C44.688 35.5728 44.7226 35.7656 44.7226 35.9652C44.7226 36.0134 44.6743 36.0823 44.6333 36.0961C44.592 36.1098 44.5231 36.0754 44.4889 36.041C44.3787 35.9446 44.2894 35.8207 44.1725 35.7311C43.7531 35.4007 43.1344 35.5452 42.8937 36.0272C42.6737 36.4747 42.763 36.9223 43.0586 37.3285C43.0656 37.3354 43.0794 37.3354 43.1069 37.3423C43.1687 37.239 43.2443 37.1426 43.2923 37.0324C43.4024 36.7983 43.6087 36.6744 43.8357 36.5987C44.2961 36.4403 44.7156 36.6744 44.7774 37.1357C44.8187 37.4249 44.7501 37.6865 44.5782 37.9206C44.0556 38.6229 43.4024 38.8708 42.5636 38.7262C42.1374 38.6504 41.773 38.4232 41.5597 38.0445C41.1886 37.3767 40.7554 36.757 40.295 36.1511C39.9441 35.6898 39.5797 35.2285 39.3322 34.6915C39.0847 34.1544 38.9748 33.5899 39.0641 33.0046C39.1192 32.6535 39.2223 32.3023 39.2912 31.9512C39.3049 31.8961 39.2979 31.8204 39.2636 31.7859C38.8922 31.4004 38.6722 30.9322 38.5073 30.4365C38.4728 30.3263 38.4318 30.2161 38.3834 30.0715C38.3421 30.1542 38.3149 30.2024 38.2941 30.2574C38.1705 30.6223 38.1016 30.9941 38.1084 31.3797C38.1084 31.4899 38.0674 31.5243 37.971 31.4899C37.8128 31.4348 37.6479 31.3935 37.5035 31.3109C36.8433 30.9253 36.5615 30.3056 36.4584 29.5758C36.4378 29.4312 36.424 29.2935 36.3965 29.1076C36.3415 29.1765 36.314 29.2109 36.2934 29.2453C36.0115 29.6515 35.6334 29.9201 35.159 30.0509C34.7671 30.1611 34.3615 30.1679 33.9627 30.1129C33.4402 30.0371 32.9245 29.9476 32.3814 29.8581C32.4433 29.7686 32.4983 29.6929 32.5533 29.6171C32.8351 29.2384 33.117 28.8666 33.3989 28.4879C33.4333 28.4466 33.4471 28.3916 33.4745 28.3434C33.4677 28.3365 33.4608 28.3296 33.447 28.3227C33.2958 28.3916 33.1445 28.4604 32.9933 28.5224C32.2851 28.8184 31.5495 28.9837 30.7794 28.9217C30.7382 28.9217 30.6832 28.9493 30.6557 28.9837C30.2982 29.4725 29.8169 29.7824 29.2531 29.9614C28.7994 30.106 28.3387 30.2161 27.8849 30.3332C27.2662 30.4915 26.668 30.705 26.173 31.1387C26.1661 31.1456 26.1593 31.1387 26.1455 31.1456C26.1249 31.125 26.0974 31.1043 26.0699 31.0837C25.7949 30.8289 25.5198 30.5673 25.2311 30.3194C24.9767 30.0991 24.6948 29.9063 24.3648 29.8237C23.7391 29.6722 23.1479 30.0096 22.8041 30.4502C22.7903 30.464 22.7903 30.4847 22.7835 30.5053C22.8041 30.5122 22.8179 30.5191 22.8247 30.5122C22.9829 30.4778 23.1341 30.4433 23.2923 30.4158C23.4573 30.3814 23.5673 30.4915 23.5398 30.6568C23.526 30.7256 23.5054 30.7876 23.4848 30.8496C23.4366 31.0286 23.4848 31.1594 23.6567 31.2076C23.7873 31.2489 23.9248 31.2558 24.0623 31.2558C24.2135 31.2558 24.3717 31.2283 24.5229 31.2214C24.6604 31.2214 24.7361 31.2971 24.7705 31.4279C24.7979 31.5519 24.7292 31.6276 24.626 31.6551C24.5298 31.6895 24.4198 31.7171 24.3236 31.7033C24.1035 31.6689 23.8904 31.6069 23.6773 31.5656C23.0791 31.4555 22.5978 31.6551 22.4329 32.3092C22.4122 32.3781 22.3916 32.4469 22.3916 32.5158C22.3778 32.6741 22.371 32.8394 22.4604 33.0046C22.6735 32.8394 22.8729 32.6879 23.0791 32.5295C23.1135 32.5777 23.1479 32.6122 23.1754 32.6466C23.5329 33.0872 23.8217 33.1285 24.2892 32.8118C24.4542 32.7017 24.6192 32.5777 24.7842 32.4676C24.9767 32.3368 25.2036 32.2817 25.4305 32.2473C25.5405 32.2335 25.6299 32.261 25.6642 32.3849C25.6986 32.502 25.6574 32.5984 25.5405 32.6535C25.403 32.7154 25.2655 32.7567 25.128 32.8118C24.8736 32.922 24.6123 33.0184 24.3785 33.163C24.0829 33.3489 24.0004 33.5761 24.0898 33.8997C24.1929 34.2715 24.4129 34.5813 24.6948 34.8361C24.7086 34.8429 24.7223 34.8429 24.7361 34.8498C24.7567 34.719 24.7567 34.5813 24.7911 34.4643C24.8461 34.2853 24.9492 34.1269 25.1486 34.0994C25.3067 34.0787 25.4786 34.0925 25.6367 34.12C26.0011 34.1888 26.1867 34.0649 26.2417 33.6931C26.2624 33.5623 26.283 33.4246 26.3311 33.3007C26.3655 33.1974 26.4411 33.101 26.5649 33.1354C26.8193 33.1974 26.9774 33.0803 27.1012 32.8807C27.2043 32.7223 27.2799 32.5502 27.383 32.3918C27.4518 32.2955 27.5343 32.1991 27.6237 32.1233C27.7131 32.0476 27.9193 32.0476 27.9812 32.0958C28.0499 32.1577 28.0568 32.323 27.9881 32.4538C27.9675 32.4951 27.94 32.5364 27.9124 32.5709C27.8024 32.7017 27.6993 32.8394 27.5824 32.9702C27.3418 33.2525 27.1562 33.5623 27.1355 33.9479C27.1287 34.1131 27.1768 34.1613 27.328 34.12C27.5893 34.0512 27.8437 33.9685 28.0981 33.8997C28.2218 33.8652 28.3112 33.7964 28.3731 33.6794C28.4487 33.5279 28.5243 33.3764 28.5931 33.2249C28.7306 32.922 28.8475 32.6122 29.0056 32.323C29.1088 32.1371 29.26 31.9718 29.3975 31.8066C29.4181 31.7791 29.5006 31.7584 29.5213 31.7791C29.5556 31.8135 29.5831 31.8755 29.5831 31.9237C29.5831 31.9718 29.5556 32.0269 29.535 32.0751C29.4112 32.3092 29.2806 32.5502 29.15 32.7843C29.0125 33.0322 28.875 33.2869 28.8475 33.5761C28.8406 33.6656 28.8544 33.7138 28.9506 33.6863C29.1844 33.6174 29.425 33.5485 29.6519 33.4659C29.6931 33.4521 29.7413 33.3971 29.7481 33.3489C29.8513 32.86 30.0644 32.4194 30.3325 32.0063C30.4769 31.7928 30.6419 31.5863 30.8001 31.3797C30.8619 31.2971 30.9719 31.2971 31.0544 31.3659C31.1438 31.4348 31.0751 31.4968 31.0407 31.5519C30.917 31.7308 30.7863 31.903 30.6557 32.082C30.4426 32.3781 30.2569 32.681 30.1744 33.0459C30.1538 33.1423 30.1469 33.2387 30.1263 33.3558C30.3807 33.2869 30.5938 33.2249 30.8138 33.163C31.0132 33.1079 31.1576 32.984 31.2538 32.8118C31.3157 32.7085 31.3707 32.5984 31.4051 32.4813C31.4876 32.2335 31.5563 31.9856 31.6388 31.7377C31.7351 31.4486 31.8932 31.2007 32.1682 31.0423C32.2439 30.9941 32.3195 30.9597 32.402 31.0217C32.4845 31.0837 32.5051 31.1732 32.457 31.2558C32.3607 31.4348 32.2576 31.6138 32.1407 31.7791C31.9551 32.02 31.742 32.2473 31.6457 32.5433C31.6114 32.6535 31.5907 32.7636 31.5632 32.8807C31.852 32.8807 32.1132 32.8876 32.3676 32.8807C32.567 32.8738 32.7114 32.798 32.7801 32.5846C32.8558 32.3161 32.9589 32.0613 33.0551 31.7997C33.1858 31.4417 33.3439 31.0905 33.6189 30.8083C33.7152 30.705 33.7839 30.6981 33.8871 30.7807C33.9764 30.8496 33.9558 30.9391 33.9077 31.0148C33.8596 31.0974 33.7977 31.1732 33.7495 31.2558C33.6533 31.3935 33.5502 31.5312 33.4745 31.6758C33.4264 31.7722 33.4196 31.8823 33.3989 31.9856C33.4402 31.9994 33.4471 32.0063 33.4539 32.0063C33.7977 31.9443 34.1346 31.8823 34.4783 31.8066C34.5127 31.7997 34.5608 31.7377 34.5677 31.6895C34.609 31.4692 34.6296 31.242 34.6708 31.0217C34.7052 30.8496 34.8015 30.705 34.9596 30.6086C35.1108 30.5191 35.2896 30.6155 35.3034 30.7876C35.3171 30.9666 35.2827 31.1387 35.2002 31.2971C35.1246 31.4486 35.0352 31.5932 34.9734 31.7446C34.9046 31.903 34.7946 32.0063 34.6433 32.0682C34.5402 32.1095 34.4302 32.1371 34.3202 32.1646C34.1002 32.2197 33.8733 32.2679 33.6464 32.323C33.557 32.3436 33.5295 32.4056 33.5845 32.4882C33.8252 32.8738 34.0452 33.28 34.3065 33.6518C34.7465 34.2715 35.269 34.8154 35.9015 35.2492C35.9909 35.3111 36.0803 35.3869 36.149 35.4764C36.6303 36.0892 36.7402 36.7846 36.5478 37.5282C36.4103 38.0583 36.1697 38.5403 35.9428 39.0291C35.6953 39.5662 35.4409 40.1101 35.3859 40.716C35.3446 41.1429 35.5028 41.3976 35.929 41.4802C36.0734 41.5078 36.2178 41.5215 36.3622 41.5353C36.4584 41.5422 36.5203 41.5766 36.5134 41.6868C36.5065 41.7901 36.4447 41.8176 36.3622 41.8176C36.1559 41.8107 35.9428 41.797 35.7365 41.7832C35.5509 41.7694 35.379 41.7832 35.2209 41.8933C35.0627 42.0104 35.0559 42.1275 35.2071 42.2514C35.3102 42.334 35.4271 42.4028 35.5303 42.4924C35.654 42.6094 35.7984 42.6369 35.9497 42.6025C36.1834 42.5474 36.4103 42.4717 36.6372 42.4097C36.7815 42.3684 36.9259 42.3202 37.0773 42.3753C37.1872 42.4097 37.3111 42.5406 37.2835 42.6025C37.2352 42.7058 37.1391 42.7264 37.036 42.7333C36.7472 42.754 36.4515 42.7747 36.1628 42.816C36.0596 42.8297 35.9634 42.9055 35.8465 42.9605C36.0115 43.1671 36.1697 43.3392 36.3897 43.4287C36.4515 43.4563 36.5409 43.4632 36.6097 43.4425C36.8228 43.3943 37.036 43.3255 37.249 43.2704C37.4279 43.2222 37.4965 43.2566 37.5858 43.3943C37.6409 43.4838 37.6271 43.532 37.524 43.5596C37.4485 43.5802 37.3729 43.5802 37.304 43.594C37.1459 43.6215 36.9947 43.6491 36.8433 43.6972C36.7472 43.7248 36.7264 43.8005 36.7953 43.8969C36.9054 44.0346 37.0152 44.1861 37.1254 44.3307C37.2352 44.4753 37.3521 44.5166 37.5311 44.4615C37.6066 44.4408 37.6755 44.3995 37.744 44.3582C38.0879 44.1586 38.418 44.31 38.6585 44.5373C38.8304 44.7025 38.7824 45.1982 38.6104 45.3704C38.4452 45.5288 38.2736 45.6872 38.1016 45.8453C37.5858 46.3067 37.0428 46.7406 36.6578 47.3258C36.5134 47.5461 36.3072 47.6974 36.0665 47.8077C35.8465 47.911 35.6196 48.0004 35.3927 48.0831C35.2346 48.145 35.0696 48.1313 34.9183 48.0485C34.7877 47.9729 34.6502 47.8904 34.5265 47.7939C34.2102 47.5598 33.8733 47.5666 33.5295 47.7182C33.3508 47.7939 33.2339 47.9315 33.2202 48.1245C33.1995 48.3378 33.1858 48.5513 33.1927 48.7648C33.1995 48.8886 33.2545 49.0057 33.2889 49.1227C33.3164 49.1297 33.337 49.1435 33.3645 49.1503C33.392 49.1022 33.4127 49.0538 33.447 49.0057C33.6121 48.8059 33.8252 48.7235 34.0796 48.7302C34.4302 48.7302 34.7396 48.8819 35.0421 49.0265C35.0765 49.0403 35.0971 49.0884 35.1315 49.1227C34.9321 49.2606 34.7465 49.2122 34.554 49.1365C34.279 49.0332 33.9971 49.0676 33.7771 49.2606C33.5089 49.4947 33.3714 49.8112 33.3508 50.1693C33.3439 50.2796 33.3714 50.3896 33.3852 50.5066C33.3989 50.5137 33.4127 50.5204 33.4196 50.5275C33.6189 50.252 33.9008 50.2383 34.1964 50.2658C34.279 50.2726 34.3615 50.2931 34.4439 50.3069C34.6433 50.3483 34.8427 50.3691 35.0215 50.2245C35.1315 50.135 35.2415 50.0523 35.3584 49.9628C35.4202 49.9144 35.4821 49.8596 35.5577 49.832C35.709 49.7701 35.8534 49.8733 35.8328 50.0317C35.819 50.128 35.7571 50.2174 35.6953 50.3001C35.6196 50.3966 35.5096 50.4723 35.434 50.5756C35.269 50.7888 35.3102 51.0437 35.5234 51.2021C35.6128 51.2711 35.6678 51.3605 35.6609 51.4705C35.654 51.56 35.6265 51.6565 35.6059 51.746C35.6059 51.746 35.6196 51.753 35.6334 51.753C36.0459 51.6565 36.4584 51.5533 36.7748 51.2365C36.8366 51.1675 36.9121 51.0781 36.9192 50.9956C36.9329 50.7821 36.9259 50.5685 36.9121 50.362C36.8984 50.1969 36.9602 50.0523 37.1183 50.0042C37.2077 49.9766 37.304 49.9766 37.4004 49.9696C37.5448 49.9628 37.5996 49.9144 37.6066 49.7768C37.6066 49.7149 37.5996 49.6531 37.5929 49.5909C37.5791 49.4119 37.5586 49.233 37.5586 49.0538C37.5586 48.9162 37.6409 48.8059 37.7302 48.7924C37.8333 48.7716 37.9502 48.8681 37.9985 48.9989C38.0123 49.0332 38.019 49.0746 38.019 49.1089C38.0123 49.3016 37.9985 49.4947 38.0053 49.6874C38.0123 49.8525 38.0536 50.018 38.0879 50.1761C38.1084 50.2588 38.1705 50.2726 38.239 50.2107C38.3216 50.1417 38.4042 50.0799 38.4865 50.018C38.6172 49.9215 38.6927 49.7974 38.7065 49.6393C38.7135 49.5222 38.7135 49.4052 38.6998 49.2882C38.6655 49.0127 38.6034 48.744 38.5759 48.4686C38.5624 48.3378 38.5759 48.2002 38.6104 48.0761C38.6447 47.9523 38.7753 47.8834 38.8855 47.911C39.0161 47.9385 38.9953 48.0488 39.0023 48.145C39.0023 48.1794 39.0023 48.2207 39.0023 48.2553C38.9953 48.4618 38.9678 48.6683 38.9815 48.8681C38.9886 49.0057 39.0504 49.1365 39.1054 49.2673C39.133 49.3363 39.1878 49.343 39.2566 49.3016C39.3872 49.2122 39.5111 49.1227 39.6555 49.0608C39.7999 48.9919 39.8547 48.8819 39.8685 48.744C39.8822 48.6064 39.8685 48.4686 39.8547 48.331C39.8204 48.0418 39.7586 47.7596 39.7586 47.4704C39.7586 47.3049 39.848 47.133 39.9168 46.9746C39.9373 46.9265 40.0199 46.8781 40.0747 46.8781C40.116 46.8781 40.1778 46.9538 40.1848 47.0022C40.2124 47.126 40.2261 47.2501 40.2124 47.3739C40.1848 47.6012 40.1298 47.8282 40.1022 48.0556C40.0885 48.1794 40.1506 48.2829 40.2466 48.3653C40.3497 48.2553 40.4391 48.1588 40.5354 48.0623C40.6318 47.9661 40.7349 47.8834 40.831 47.7872C40.9687 47.6493 41.01 47.5047 40.9203 47.312C40.8105 47.0503 40.7141 46.7819 40.6385 46.5065C40.5767 46.2862 40.563 46.0589 40.6661 45.8386C40.7279 45.7007 40.8518 45.6872 40.9274 45.8177C40.9754 45.9005 41.0167 46.0037 41.0305 46.1002C41.0647 46.3343 41.0855 46.5751 41.106 46.8092C41.1198 47.009 41.2299 47.1606 41.3122 47.312C41.4499 47.1536 41.5735 47.0022 41.7042 46.8576C41.8831 46.6716 41.9379 46.4581 41.8899 46.2173C41.8486 46.0245 41.7868 45.8315 41.7179 45.6388C41.6148 45.3428 41.4912 45.0536 41.3948 44.7507C41.3468 44.5992 41.3398 44.434 41.4429 44.2894C41.4979 44.2068 41.5735 44.1792 41.6356 44.255C41.7112 44.3445 41.7868 44.4477 41.8281 44.5579C41.8761 44.7094 41.8831 44.8677 41.9174 45.0261C41.9587 45.2464 42.041 45.2809 42.2267 45.15C42.268 45.1225 42.3093 45.0881 42.3436 45.0536C42.5088 44.8402 42.6804 44.6336 42.8248 44.4133C42.9625 44.1999 42.9007 44.0209 42.6599 43.9176C42.536 43.8625 42.4057 43.835 42.2885 43.7661C42.1992 43.7179 42.1169 43.6353 42.0618 43.5527C41.9174 43.3323 41.8005 43.0914 41.6423 42.8779C41.278 42.396 40.8242 42.0104 40.343 41.6593C40.2191 41.5697 40.1848 41.4734 40.1986 41.3288C40.2674 40.6678 40.3155 40.0068 40.2812 39.3458C40.2537 38.8639 40.1986 38.3957 40.068 37.9344C40.0474 37.8587 39.9924 37.7622 39.9306 37.7209C39.7791 37.6246 39.7516 37.4937 39.7791 37.3423C39.7862 37.2941 39.8204 37.2252 39.8547 37.2115C39.896 37.1977 39.9786 37.2115 40.0129 37.239C40.123 37.356 40.2261 37.4731 40.3017 37.6108C40.4461 37.8655 40.4941 38.1478 40.5012 38.437C40.5079 38.7331 40.5972 38.9741 40.8448 39.1462C41.1473 39.3596 41.4499 39.5662 41.7592 39.7658C41.8281 39.814 41.9174 39.8416 42.0067 39.8553C42.495 39.9586 42.99 39.9999 43.4918 39.9173C44.1792 39.8002 44.7636 39.4904 45.2038 38.9534C45.9118 38.0927 46.077 37.0737 45.9188 36.0065C45.8157 35.2836 45.63 34.5675 45.4376 33.8652C45.1901 32.9633 44.9013 32.0751 44.64 31.1801C44.3237 30.0715 44.0899 28.9424 44.0969 27.7788C44.0969 27.4207 44.0969 27.0627 44.1587 26.7116C44.2481 26.2159 44.3925 25.7339 44.5299 25.2519C44.7364 24.529 45.0044 23.8336 45.4443 23.2208C45.7536 22.7802 46.1593 22.5254 46.7232 22.5185C47.005 22.5185 47.459 22.8765 47.5345 23.1657C47.7407 24.0264 47.6652 24.8664 47.3075 25.6719C47.1218 26.0919 46.8538 26.4568 46.4481 26.6978C46.3037 26.7804 46.1456 26.808 45.9739 26.7804C45.6576 26.7322 45.403 26.5739 45.1625 26.3811C45.135 26.3604 45.0937 26.3329 45.0386 26.2916ZM35.6746 18.952C35.599 18.9589 35.5577 18.9589 35.5165 18.9589C35.2965 18.952 35.2896 18.952 35.3102 19.1723C35.3515 19.5304 35.4065 19.8884 35.599 20.2051C35.7296 20.4185 35.8809 20.4185 35.9978 20.1913C36.0734 20.0467 36.1834 19.9572 36.3278 19.9091C36.699 19.7782 37.0703 19.7507 37.4552 19.8333C37.6204 19.8677 37.7165 19.9572 37.7715 20.1156C37.8817 20.4254 37.7991 20.6802 37.5791 20.8936C37.3934 21.0657 37.3591 21.2792 37.3866 21.5133C37.4142 21.6992 37.4552 21.8782 37.4622 22.0572C37.476 22.3464 37.3796 22.5185 37.0636 22.4015C36.8228 22.312 36.5822 22.2913 36.3347 22.312C36.2521 22.3189 36.1765 22.3189 36.094 22.312C35.7228 22.2982 35.5577 22.1742 35.4478 21.8162C35.4202 21.7267 35.379 21.7267 35.3102 21.7543C35.159 21.8231 35.0352 21.9333 34.9802 22.0848C34.884 22.3257 34.8152 22.5736 34.7327 22.8215C34.6983 22.9247 34.7396 22.9936 34.8358 23.0074C34.9596 23.0211 35.0902 23.028 35.2209 23.0143C35.4065 23.0005 35.5715 22.9936 35.7434 23.1175C36.0665 23.3585 36.4447 23.4549 36.8433 23.4618C37.2627 23.4687 37.6617 23.3516 38.0674 23.269C38.5691 23.1588 38.9815 22.9179 39.3459 22.5667C39.4561 22.4634 39.5729 22.3602 39.6898 22.2775C39.8134 22.1949 39.944 22.1192 40.0817 22.0503C40.1643 22.009 40.2329 22.0572 40.2261 22.1467C40.2191 22.2775 40.2053 22.4084 40.0955 22.5116C39.6485 22.9316 39.133 23.2414 38.5624 23.448C37.7786 23.7372 36.9534 23.8336 36.1353 23.9506C35.4478 24.047 34.7602 24.1503 34.0796 24.288C33.7358 24.3569 33.392 24.4601 33.0895 24.6323C32.3882 25.0178 31.9551 25.6513 31.6663 26.3742C31.3707 27.1109 31.1163 27.8614 30.8413 28.605C30.8344 28.6257 30.8344 28.6463 30.8276 28.6807C30.8826 28.6876 30.9238 28.6945 30.9651 28.6876C31.3295 28.667 31.6938 28.667 32.0514 28.605C32.7801 28.4811 33.4196 28.185 33.9421 27.6342C34.7946 26.746 35.7159 25.9336 36.7815 25.3001C37.0085 25.1693 37.249 25.0936 37.4965 25.0591C37.5586 25.0523 37.6479 25.1005 37.696 25.1487C37.7373 25.1969 37.6271 25.3345 37.5448 25.3621C37.476 25.3827 37.4072 25.4034 37.3383 25.4241C36.3553 25.7408 35.5303 26.3191 34.8084 27.0421C34.0727 27.7719 33.4745 28.605 32.9108 29.4657C32.897 29.4863 32.8901 29.5207 32.8764 29.5483C32.9039 29.562 32.9245 29.5758 32.9452 29.5827C33.3439 29.7135 33.7289 29.865 34.1552 29.8994C34.609 29.9407 35.0352 29.8719 35.4271 29.6515C35.8534 29.4175 36.1697 29.0663 36.4447 28.6739C36.7197 28.2814 36.981 27.8683 37.256 27.4758C37.5173 27.0903 37.8128 26.7391 38.2185 26.4913C38.2598 26.4637 38.3421 26.4499 38.3697 26.4775C38.4385 26.5326 38.4936 26.6083 38.5278 26.684C38.5349 26.7047 38.4385 26.7804 38.3834 26.8149C37.7853 27.1453 37.304 27.586 36.9947 28.1919C36.7953 28.5775 36.6509 28.9906 36.6715 29.4312C36.7059 30.1335 37.0565 30.6705 37.6204 31.0699C37.6617 31.0974 37.7097 31.1181 37.7578 31.1387C37.8199 30.9046 37.8609 30.6774 37.9367 30.4571C38.1497 29.8306 38.5416 29.3073 38.9268 28.784C38.9678 28.7289 39.0574 28.6945 39.133 28.6876C39.1743 28.6807 39.2361 28.7289 39.2704 28.7702C39.2841 28.7909 39.2566 28.8529 39.2361 28.8873C39.1192 29.0457 39.0023 29.204 38.8717 29.3555C38.6585 29.5896 38.6172 29.865 38.6793 30.1542C38.8509 30.9253 39.2704 31.5312 39.896 32.0063C39.9306 32.0338 39.9786 32.0476 40.0337 32.0751C40.0404 32.0269 40.0474 31.9994 40.0474 31.965C40.0404 31.4623 40.1573 30.9872 40.3497 30.526C40.5149 30.1197 40.6728 29.7135 40.8035 29.3004C40.9892 28.7221 40.8998 28.1368 40.7349 27.5653C40.6593 27.2968 40.5492 27.0352 40.4599 26.7735C40.4186 26.6565 40.4804 26.4913 40.5767 26.4499C40.6728 26.4086 40.7211 26.4431 40.7829 26.6152C40.8861 26.8837 40.9824 27.1522 41.0855 27.4139C41.2437 27.7925 41.4361 28.1506 41.7868 28.3916C41.8281 28.4191 41.8831 28.4398 41.9517 28.4811C41.9312 28.3089 41.9107 28.1643 41.9036 28.0198C41.8761 27.5171 41.9654 27.0352 42.0961 26.5532C42.2885 25.8441 42.2885 25.1487 41.9862 24.4601C41.9241 24.3224 41.8899 24.1779 41.8486 24.0264C41.8281 23.9575 41.8143 23.8749 41.8281 23.8061C41.8418 23.7441 41.8831 23.6683 41.9379 23.6477C41.9792 23.627 42.0756 23.6683 42.1031 23.7097C42.1924 23.8542 42.2542 24.0057 42.3368 24.1572C42.4191 24.3086 42.488 24.467 42.5843 24.6047C42.6737 24.7355 42.8111 24.8044 42.99 24.8044C42.9763 24.6667 42.9625 24.5428 42.9625 24.4119C42.9417 23.9162 43.0243 23.4343 43.0999 22.9523C43.1754 22.429 43.2856 21.9126 43.2167 21.3756C43.1687 20.99 43.031 20.6458 42.7701 20.3566C42.6394 20.212 42.488 20.2464 42.4191 20.4254C42.3986 20.4874 42.3781 20.5563 42.3506 20.6182C42.3023 20.7215 42.2062 20.6871 42.1306 20.6664C42.0343 20.632 42.1031 20.57 42.1236 20.5218C42.2613 20.2395 42.3368 19.9435 42.3781 19.6336C42.4057 19.3927 42.3781 19.1792 42.1716 19.0071C41.8005 18.6973 41.3811 18.5596 40.9068 18.594C40.8448 18.6009 40.7762 18.6628 40.7349 18.7179C40.7003 18.7592 40.7003 18.8281 40.6731 18.8832C40.6385 18.9451 40.5835 18.9933 40.5425 19.0484C40.4874 19.0002 40.4323 18.9589 40.3773 18.9038C40.3635 18.89 40.3497 18.8556 40.3497 18.835C40.336 18.6973 40.2466 18.6146 40.1573 18.5251C39.7036 18.0914 39.181 17.8366 38.5486 17.8366C38.2873 17.8366 38.1772 17.9537 38.1634 18.2153C38.1634 18.2704 38.1634 18.3255 38.1634 18.3805C38.1567 18.4219 38.1429 18.4632 38.1359 18.5045C38.1084 18.4976 38.1016 18.5045 38.0946 18.4976C37.2147 18.1189 36.2865 18.0638 35.3515 18.0638C35.2553 18.0638 35.2071 18.1051 35.2415 18.1946C35.3102 18.3599 35.379 18.5251 35.4615 18.6835C35.5234 18.7592 35.5921 18.835 35.6746 18.952ZM21.044 21.4031C21.0784 21.4031 21.0991 21.4031 21.1128 21.3962C21.4359 21.3136 21.6834 21.4444 21.8691 21.6923C21.9516 21.8025 22.0135 21.9264 22.0753 22.0503C22.2472 22.429 22.3022 22.8283 22.3366 23.2346C22.3985 23.8611 22.4122 24.4808 22.3022 25.1005C22.1716 25.8372 21.8622 26.4706 21.2709 26.9526C21.2365 26.9801 21.2228 27.0765 21.2365 27.1247C21.3878 27.6549 21.5597 28.185 21.8691 28.6532C22.096 28.9975 22.3228 29.3279 22.6872 29.5414C22.8866 29.6653 23.1066 29.7066 23.3404 29.6584C23.5054 29.624 23.6704 29.5758 23.8423 29.562C24.3236 29.5138 24.7842 29.5896 25.1692 29.9132C25.4099 30.1129 25.6299 30.34 25.8567 30.5535C25.9736 30.6636 26.0836 30.7738 26.2005 30.884C26.3105 30.7945 26.4205 30.705 26.5374 30.6223C27.0049 30.285 27.548 30.1473 28.0981 30.0165C28.49 29.9269 28.9025 29.865 29.26 29.6997C30.2844 29.2246 30.8619 28.3847 31.0819 27.2831C31.1026 27.1867 31.0682 27.1316 31.0063 27.0627C30.8413 26.8768 30.6626 26.7047 30.5388 26.4913C30.0575 25.6788 29.865 24.7837 29.8169 23.8474C29.7894 23.3034 29.8856 22.7802 30.0232 22.2569C30.085 22.0228 30.1882 21.8162 30.3669 21.6579C30.5457 21.4995 30.7519 21.4444 30.9857 21.5064C31.0201 21.5133 31.0613 21.5271 31.1301 21.5408C31.0819 21.4651 31.0544 21.4238 31.0201 21.3894C30.7863 21.1139 30.5525 20.8385 30.3188 20.5631C30.1744 20.391 30.0369 20.2189 29.8925 20.0536C29.8719 20.0261 29.8169 20.0123 29.7757 20.0123C29.3219 20.0399 28.8819 19.9985 28.4487 19.854C28.16 19.7645 27.8712 19.6749 27.5824 19.5992C27.1218 19.4822 26.6886 19.5579 26.3036 19.8402C26.228 19.8953 26.1867 19.8677 26.118 19.8333C25.9186 19.7369 25.7192 19.6268 25.5061 19.5786C25.0455 19.4753 24.5917 19.5855 24.1654 19.7438C23.6567 19.9366 23.141 20.0536 22.591 19.9779C22.5497 19.971 22.481 20.0123 22.4535 20.0536C22.3778 20.1569 22.316 20.274 22.2472 20.3841C22.1166 20.5838 21.9447 20.7353 21.7041 20.8041C21.5597 20.8454 21.4222 20.9143 21.2916 20.99C21.1678 21.0933 21.0715 21.2241 21.044 21.4031ZM25.128 43.3874C25.1486 43.3736 25.1623 43.3668 25.1692 43.353C25.3342 43.1327 25.5405 43.0845 25.8017 43.1464C26.0149 43.1947 26.2211 43.1533 26.3861 42.995C26.4893 42.8986 26.5787 42.7953 26.6611 42.6851C26.7712 42.5406 26.8674 42.3822 26.9774 42.2307C27.0874 42.0724 27.218 41.9346 27.3968 41.8589C27.5343 41.797 27.6374 41.8107 27.6993 41.9071C27.7612 41.9897 27.7406 42.093 27.6374 42.1963C27.548 42.2927 27.4449 42.3822 27.3487 42.4786C27.1974 42.6301 27.0943 42.8091 27.0599 43.0225C27.0462 43.0983 27.0668 43.1878 27.1493 43.1533C27.2937 43.1051 27.4312 43.1051 27.5755 43.0983C27.6443 43.0983 27.7268 43.0569 27.7749 43.0018C27.8712 42.9124 27.9537 42.8091 28.0224 42.7058C28.1462 42.5337 28.2562 42.3478 28.38 42.1757C28.5243 41.9691 28.7237 41.8245 28.9506 41.7074C29.0331 41.6661 29.1294 41.6592 29.205 41.735C29.2806 41.8107 29.2394 41.8933 29.1912 41.9484C29.095 42.0724 28.9919 42.1825 28.8819 42.2927C28.6275 42.5612 28.3731 42.8297 28.1187 43.0914C28.0981 43.112 28.0843 43.1465 28.0774 43.1602C28.3112 43.1947 28.5312 43.236 28.7512 43.2497C28.8475 43.2566 28.9712 43.2291 29.04 43.174C29.1706 43.0707 29.2738 42.933 29.3769 42.8022C29.535 42.5956 29.6588 42.3684 29.8238 42.1825C29.9475 42.0448 30.1125 41.9484 30.2707 41.852C30.3119 41.8245 30.3944 41.8796 30.4563 41.8933C30.4426 41.9415 30.4426 41.9966 30.415 42.0379C30.3463 42.1343 30.2638 42.2307 30.1882 42.3202C29.9613 42.5956 29.7344 42.871 29.5075 43.1464C29.48 43.1809 29.4663 43.2222 29.4319 43.2773C29.6656 43.2979 29.8788 43.3186 30.0919 43.3392C30.305 43.3599 30.4838 43.3186 30.5663 43.0914C30.5732 43.0707 30.5869 43.0569 30.6007 43.0363C30.8344 42.6714 31.0682 42.3064 31.4188 42.0379C31.4738 41.9897 31.5632 41.9622 31.632 41.9553C31.7557 41.9484 31.797 42.0173 31.742 42.1275C31.6663 42.2651 31.577 42.3891 31.4876 42.513C31.3363 42.7333 31.1851 42.9468 31.0338 43.1602C31.0063 43.2015 30.9994 43.2497 30.9719 43.3117C31.0201 43.3048 31.0407 43.3048 31.0682 43.3048C31.2813 43.2635 31.4945 43.2153 31.7076 43.174C32.017 43.112 32.237 42.8917 32.292 42.575C32.3195 42.4166 32.3401 42.2514 32.3607 42.093C32.3745 41.976 32.457 41.914 32.5601 41.9209C32.6633 41.9278 32.6495 42.031 32.6495 42.1137C32.6564 42.2238 32.6495 42.334 32.6495 42.4579C32.7251 42.4373 32.7801 42.4235 32.8283 42.4097C33.2064 42.2858 33.3577 41.9209 33.1858 41.5629C33.0964 41.377 33.0139 41.1773 32.9658 40.9776C32.9176 40.7917 32.9176 40.592 33.0414 40.4337C33.3095 40.0826 33.392 39.6832 33.3783 39.2495C33.3714 39.1049 33.3302 39.0567 33.1858 39.0498C33.0964 39.0429 33.007 39.0498 32.9245 39.0291C32.8764 39.0154 32.8145 38.9603 32.8076 38.919C32.7939 38.8432 32.8008 38.7468 32.9108 38.7399C33.0964 38.7399 33.2889 38.7124 33.4539 38.7675C33.7977 38.8777 34.1277 39.036 34.4715 39.1668C34.719 39.2632 34.9734 39.3596 35.2277 39.4422C35.3102 39.4698 35.3927 39.4835 35.434 39.3596C35.6678 38.7055 35.9084 38.0583 36.1353 37.4042C36.1559 37.3491 36.149 37.2734 36.1284 37.2183C35.9497 36.8259 35.6815 36.5161 35.2621 36.3714C35.0696 36.3026 34.994 36.1718 35.0077 35.9721C35.0146 35.8275 35.0215 35.6898 35.0077 35.5452C34.994 35.38 34.9596 35.2079 34.939 35.0357C34.9046 35.0426 34.884 35.0426 34.8702 35.0495C34.4371 35.2423 33.9764 35.2836 33.5089 35.2698C33.0551 35.256 32.6014 35.2216 32.1545 35.2216C31.6388 35.2285 31.1782 35.3869 30.8069 35.7725C30.4426 36.1511 30.4288 36.3577 30.7382 36.7846C30.8138 36.8878 30.8894 36.9911 30.9376 37.1013C30.9651 37.1701 30.9513 37.2596 30.9582 37.3423C30.8757 37.3216 30.7794 37.3216 30.7244 37.2665C30.6075 37.1633 30.5113 37.0324 30.4082 36.9085C30.2844 36.757 30.1744 36.5918 30.0369 36.4472C29.9544 36.3577 29.8238 36.2475 29.7138 36.3164C29.6381 36.3646 29.6038 36.5229 29.59 36.64C29.5694 36.8397 29.5831 37.0393 29.5831 37.2459C29.5831 37.6383 29.6038 37.6659 29.9682 37.8104C30.0025 37.8242 30.03 37.8311 30.0644 37.8449C30.2157 37.9 30.3738 37.955 30.525 38.017C30.6832 38.0858 30.8001 38.2029 30.8688 38.3681C30.9101 38.4852 30.8826 38.5334 30.7588 38.5472C30.58 38.5609 30.4288 38.4921 30.2913 38.3888C30.1744 38.2993 30.0644 38.2029 29.9407 38.1272C29.8513 38.0721 29.7481 38.0445 29.6519 38.0239C29.6313 38.017 29.5694 38.0721 29.5694 38.0927C29.5625 38.2649 29.5694 38.437 29.5625 38.6091C29.5556 38.7055 29.6106 38.7331 29.6863 38.7675C29.9063 38.8708 30.1263 38.9741 30.3257 39.1117C30.4701 39.2081 30.58 39.3527 30.6969 39.4835C30.7657 39.5593 30.7382 39.6488 30.6694 39.7039C30.6419 39.7245 30.5525 39.697 30.5113 39.6626C30.3875 39.5662 30.2913 39.4422 30.1607 39.3527C29.9888 39.2426 29.81 39.153 29.6244 39.0635C29.5557 39.0291 29.5006 39.0635 29.5006 39.1462C29.5006 39.2977 29.5075 39.4491 29.5075 39.6006C29.5075 39.697 29.5556 39.759 29.6381 39.7934C29.7 39.8209 29.7619 39.8416 29.8238 39.876C30.0163 39.9793 30.2157 40.0688 30.3875 40.1927C30.5457 40.3029 30.5732 40.475 30.4976 40.5783C30.415 40.6747 30.2501 40.6678 30.1056 40.5438C29.9957 40.4544 29.8925 40.3511 29.7894 40.2547C29.7 40.172 29.6106 40.1376 29.48 40.1445C29.1019 40.1652 28.7168 40.1996 28.3387 40.1858C27.9606 40.1789 27.5824 40.1032 27.2318 39.9449C26.9018 39.7934 26.6474 39.5593 26.4205 39.277C26.0836 38.8708 25.623 38.8432 25.1486 38.8914C25.0798 38.8983 24.9973 38.9052 24.9423 38.9465C24.7705 39.0635 24.6054 39.1944 24.4404 39.3252C24.3236 39.4216 24.2548 39.5455 24.241 39.7039C24.2342 39.7865 24.2754 39.8278 24.351 39.8003C24.4267 39.7727 24.5023 39.7314 24.5711 39.6832C24.6673 39.6144 24.7705 39.6281 24.8667 39.6626C24.963 39.697 24.9767 39.7727 24.9698 39.8691C24.963 40.0757 25.0523 40.1927 25.2586 40.2409C25.4442 40.2822 25.6367 40.296 25.8292 40.3235C26.0286 40.3511 26.2349 40.3855 26.3586 40.5714C26.4549 40.7229 26.393 40.8399 26.2142 40.8606C25.9874 40.8881 25.7949 40.8124 25.6299 40.654C25.4374 40.4681 25.1898 40.4544 24.9698 40.5301C24.5161 40.6747 24.2135 40.9983 24.1036 41.4802C24.0829 41.5766 24.0761 41.6799 24.1654 41.7763C24.2342 41.6937 24.3029 41.6179 24.3648 41.5422C24.4886 41.4045 24.6192 41.377 24.7773 41.4802C24.8529 41.5284 24.9148 41.5904 24.9767 41.6524C25.2242 41.9002 25.458 41.914 25.733 41.7006C25.8361 41.6179 25.9392 41.5284 26.0561 41.4665C26.1249 41.4321 26.2142 41.4183 26.2968 41.4252C26.448 41.4458 26.5236 41.6248 26.4342 41.7488C26.2899 41.9622 26.0561 41.9966 25.8292 42.0311C25.6299 42.0586 25.4305 42.0724 25.2311 42.1068C25.0661 42.1343 24.9561 42.2376 24.9286 42.4029C24.9011 42.5474 24.8736 42.692 24.8736 42.8366C24.9011 43.0156 24.9423 43.2291 25.128 43.3874ZM30.1332 23.269C30.1332 23.2759 30.1263 23.3034 30.1263 23.331C30.0919 23.8405 30.1194 24.3431 30.2019 24.8457C30.3188 25.5205 30.5732 26.1332 31.0201 26.6565C31.0544 26.6978 31.1026 26.7322 31.137 26.7666C31.3157 26.4155 31.467 26.0712 31.6595 25.7477C31.852 25.4241 32.0789 25.128 32.292 24.8113C31.577 24.3018 30.8551 23.7854 30.1332 23.269ZM37.1804 22.0779C37.2009 22.0641 37.2147 22.0435 37.2352 22.0297C37.2352 22.0159 37.2422 21.9953 37.2422 21.9815C37.1529 21.5477 36.9397 21.1966 36.5409 20.99C36.3759 20.9074 36.204 20.8317 36.0253 20.7972C35.5302 20.7077 35.0284 20.632 34.5265 20.5631C34.0658 20.5012 33.7633 20.274 33.6258 19.8264C33.5777 19.6681 33.5227 19.5166 33.4608 19.3651C33.4058 19.2343 33.3852 19.2274 33.2545 19.2894C33.0345 19.3995 32.9176 19.5923 32.8833 19.8127C32.8214 20.2946 32.9589 20.7284 33.3095 21.0726C33.3783 21.1415 33.4883 21.1897 33.5845 21.2035C33.9352 21.2379 34.2927 21.2654 34.6502 21.2792C35.0902 21.2999 35.5302 21.293 35.9703 21.3343C36.424 21.3756 36.8228 21.5615 37.1254 21.9264C37.1459 21.9815 37.1596 22.0366 37.1804 22.0779ZM36.2315 36.8121C36.4172 36.2475 35.764 35.1941 35.3102 35.2354C35.3102 35.4213 35.3102 35.6003 35.3102 35.7862C35.3102 35.9928 35.3377 36.041 35.5371 36.1167C35.709 36.1787 35.8396 36.275 35.9359 36.4403C36.0184 36.5711 36.1284 36.6882 36.2315 36.8121ZM30.917 21.7405C30.7519 21.7405 30.6144 21.8713 30.6076 22.0228C30.6076 22.1742 30.7519 22.3189 30.9032 22.3189C31.0544 22.3189 31.2057 22.1742 31.2057 22.0228C31.2126 21.8782 31.0751 21.7405 30.917 21.7405ZM21.5803 21.9126C21.5803 21.7543 21.4428 21.6166 21.2778 21.6235C21.1266 21.6303 20.989 21.768 20.989 21.9195C20.989 22.0779 21.1197 22.2018 21.2778 22.2087C21.4497 22.2018 21.5803 22.0779 21.5803 21.9126Z" fill="#111629"/>
<path d="M39.7721 19.9023C39.6828 19.9023 39.6072 19.9161 39.5316 19.8954C39.4765 19.8816 39.4147 19.8403 39.3664 19.8059C39.1051 19.5994 39.1051 19.5994 38.8234 19.7715C38.7683 19.8059 38.6722 19.8128 38.6101 19.7922C38.5758 19.7784 38.5553 19.6889 38.5483 19.6269C38.5345 19.4204 38.6309 19.2551 38.734 19.0899C38.7821 19.0141 38.8852 19.021 38.9335 19.1036C39.0641 19.3308 39.2771 19.4617 39.5041 19.5787C39.669 19.682 39.7308 19.7577 39.7721 19.9023Z" fill="#F2F4F8"/>
<path d="M40.9899 19.6551C41.0104 19.4692 41.0722 19.3177 41.2166 19.2076C41.3334 19.1249 41.4916 19.1249 41.6155 19.2282C41.7116 19.3039 41.7942 19.3935 41.8698 19.483C41.904 19.5243 41.9111 19.5931 41.8973 19.6482C41.8906 19.6964 41.8493 19.7377 41.8217 19.779C41.7872 19.7515 41.7391 19.7239 41.7116 19.6895C41.6841 19.6551 41.6636 19.6138 41.636 19.5725C41.5742 19.4761 41.4916 19.4554 41.3885 19.483C41.2854 19.5036 41.2236 19.5587 41.2236 19.6689C41.2236 19.6964 41.2236 19.7239 41.2098 19.7446C41.1823 19.7859 41.141 19.8203 41.1067 19.8548C41.0792 19.8203 41.0379 19.7859 41.0174 19.7515C40.9966 19.7239 40.9966 19.6826 40.9899 19.6551Z" fill="#F2F4F8"/>
<path d="M25.2449 22.7321C25.1212 22.7596 25.0662 22.7252 25.0593 22.5737C25.0593 22.5256 25.0387 22.4842 25.0318 22.4429C25.0181 22.4429 25.0043 22.4429 24.9974 22.4429C24.9837 22.5049 24.9699 22.5737 24.9562 22.6426C24.8599 22.6013 24.8599 22.5531 24.8806 22.4774C24.8943 22.436 24.8806 22.381 24.8806 22.3396C24.8599 22.3396 24.8393 22.3396 24.8187 22.3396C24.8118 22.4429 24.8118 22.5462 24.7912 22.6357C24.7637 22.739 24.688 22.8147 24.5712 22.856C24.578 22.801 24.5849 22.7596 24.5918 22.7183C24.4611 22.8354 24.3168 22.9111 24.1793 22.918C24.1243 22.8698 24.0899 22.8078 24.0555 22.8078C24.0143 22.8078 23.9386 22.856 23.9386 22.8905C23.9318 23.0213 23.8699 23.097 23.753 23.1452C23.7393 23.1521 23.7255 23.1728 23.7186 23.1865C23.5742 22.9937 23.423 23.1934 23.2717 23.1452C23.2305 23.0281 23.2167 23.0213 22.9692 23.1039C23.0311 22.9731 23.0861 22.856 23.1411 22.7321C23.1892 22.6219 23.2924 22.5806 23.3886 22.6219C23.5192 22.6701 23.6361 22.6357 23.753 22.5875C23.8974 22.5187 24.028 22.436 24.1724 22.3603C24.1243 22.2846 24.0899 22.2295 24.0486 22.1675C24.1105 22.1469 24.1587 22.14 24.2205 22.1193C24.0761 22.0298 23.8836 22.1606 23.7736 21.9541C23.8699 21.9541 23.9455 21.9541 24.0418 21.9541C23.9112 21.8026 23.6843 21.9678 23.5811 21.7682C23.6705 21.7613 23.7461 21.7544 23.8149 21.7475C23.8149 21.7338 23.8149 21.72 23.8149 21.7131C23.7393 21.7062 23.6568 21.7062 23.5811 21.6993C23.4986 21.6993 23.4161 21.6993 23.3886 21.5892C23.423 21.5823 23.4711 21.5823 23.4849 21.5616C23.5124 21.5272 23.5467 21.4721 23.533 21.4446C23.5192 21.417 23.4505 21.3826 23.4161 21.3964C23.2511 21.4446 23.1892 21.4308 23.0449 21.238C23.1274 21.2036 23.2099 21.1761 23.2855 21.1416C23.3061 21.1279 23.3336 21.0866 23.3267 21.0659C23.313 21.0384 23.2786 21.0108 23.2511 21.0039C23.0792 20.9902 23.0723 20.9764 23.1067 20.8111C23.1136 20.7698 23.0998 20.7285 23.093 20.6803C23.313 20.6872 23.3749 20.6183 23.2992 20.4325C23.4092 20.398 23.5055 20.701 23.6155 20.4462C23.7255 20.522 23.7805 20.7079 23.7324 20.8387C23.6293 21.0866 23.6361 21.1279 23.8424 21.3137C23.918 21.3826 24.0074 21.4377 24.0968 21.4997C24.1655 21.5479 24.2205 21.5341 24.2618 21.4584C24.2962 21.3964 24.3443 21.3413 24.3924 21.2793C24.2686 21.2242 24.3099 21.1348 24.3305 21.0384C24.3512 20.9351 24.3512 20.8318 24.3512 20.7285C24.3512 20.6321 24.3855 20.577 24.5024 20.5701C24.6056 20.5633 24.7087 20.5357 24.8049 20.4944C25.0387 20.3912 25.2381 20.5082 25.4512 20.5633C25.4925 20.577 25.5337 20.6046 25.5681 20.5977C25.6918 20.5839 25.7125 20.6459 25.7125 20.7561C25.7125 20.88 25.7331 21.0039 25.7469 21.1279C25.7537 21.1829 25.7469 21.2311 25.7469 21.3137C25.6987 21.2587 25.6643 21.2242 25.6368 21.1898C25.6162 21.3413 25.7125 21.4584 25.8706 21.4928C26.3312 21.6029 26.785 21.5892 27.2388 21.4515C27.6444 21.3344 28.0432 21.2587 28.4626 21.3757C28.5588 21.4033 28.6757 21.3826 28.7788 21.362C28.8407 21.3482 28.937 21.3137 28.8957 21.2105C28.8613 21.1348 28.7376 21.1003 28.6551 21.1416C28.5107 21.2174 28.5038 21.2174 28.4763 21.059C28.4282 21.0797 28.3732 21.1003 28.3182 21.121C28.3113 21.0866 28.3044 21.0521 28.3044 21.0246C28.2151 21.059 28.1188 21.1003 28.0226 21.1416C28.0157 21.1279 28.0019 21.1141 27.9951 21.1003C28.1532 20.9419 28.3113 20.7836 28.4626 20.6252C28.4763 20.6252 28.4832 20.6321 28.497 20.6321C28.4695 20.7905 28.5657 20.8456 28.6826 20.8938C28.7582 20.9213 28.8407 20.9557 28.9163 20.9902C29.0195 21.0384 29.0882 21.121 29.0813 21.238C29.0745 21.362 29.0195 21.4721 28.8957 21.5203C28.8201 21.5479 28.7445 21.5616 28.6688 21.5823C28.6001 21.596 28.5794 21.6305 28.6069 21.6993C28.6688 21.8646 28.7307 21.9059 28.9095 21.9059C28.9988 21.9059 29.102 21.899 29.1295 22.0298C29.0813 22.0436 29.0401 22.0574 28.9988 22.078C28.9988 22.0849 28.9988 22.0987 28.9988 22.1056C29.1089 22.1262 29.2188 22.1538 29.322 22.1744C29.322 22.1882 29.322 22.202 29.322 22.2157C29.2601 22.2295 29.1982 22.2433 29.1157 22.2639C29.2051 22.4223 29.4457 22.381 29.4732 22.5806C29.2945 22.5737 29.2876 22.5806 29.3082 22.7459C29.3151 22.8216 29.3289 22.9042 29.3426 22.98C29.3632 23.0832 29.322 23.1383 29.2188 23.159C29.1432 23.1728 29.0745 23.2072 28.9988 23.2347C28.9301 23.0764 28.8476 23.0695 28.5794 23.2141C28.5726 23.1659 28.5726 23.0901 28.5519 23.0763C28.5176 23.0557 28.4557 23.0832 28.4007 23.0901C28.4282 23.0144 28.442 22.9249 28.4901 22.8629C28.5176 22.8216 28.5932 22.801 28.6482 22.7872C28.7238 22.7734 28.8063 22.7872 28.8682 22.7596C28.9163 22.739 28.9645 22.6701 28.9713 22.615C28.9782 22.5393 28.9095 22.5118 28.8407 22.5187C28.7582 22.5324 28.6826 22.5462 28.5794 22.5669C28.5176 22.5393 28.4351 22.498 28.3457 22.4567C28.2151 22.4016 28.1669 22.2914 28.1463 22.1606C28.1326 22.078 28.0982 21.9954 28.0707 21.9128C28.0088 21.9541 27.9469 22.0023 27.8782 22.0436C27.7132 22.1262 27.61 22.257 27.6032 22.4498C27.6032 22.4636 27.5963 22.4705 27.5825 22.4842C27.5757 22.4911 27.5619 22.498 27.5413 22.5118C27.5207 22.4636 27.5069 22.4223 27.4863 22.3741C27.4725 22.3741 27.4588 22.3741 27.4519 22.3741C27.4381 22.4636 27.4313 22.5531 27.4175 22.6701C27.3832 22.6013 27.3625 22.56 27.3419 22.5118C27.3282 22.5118 27.3144 22.5118 27.3007 22.5118C27.2938 22.6288 27.2869 22.7528 27.28 22.8698C27.2663 22.8698 27.2525 22.8698 27.2456 22.8698C27.225 22.8423 27.2044 22.8147 27.1769 22.7803C27.1494 22.7941 27.1219 22.801 27.1013 22.8216C26.9637 22.9593 26.8125 23.0763 26.6338 23.1246C26.5031 23.159 26.3656 23.1934 26.2212 23.1246C26.1662 23.097 26.0837 23.1177 26.015 23.1177C26.0218 23.0006 26.0081 22.9937 25.8706 23.0144C25.9256 22.7803 26.125 22.6701 26.345 22.7596C26.5994 22.856 26.7025 22.8078 26.7988 22.5462C26.7644 22.5393 26.73 22.5393 26.6956 22.5324C26.6956 22.5187 26.6956 22.5118 26.7025 22.498C26.73 22.4429 26.7506 22.3809 26.7781 22.3259C26.8675 22.1193 27.0188 22.016 27.2456 21.9954C27.3282 21.9885 27.4106 21.9678 27.4932 21.9472C27.5894 21.9196 27.6444 21.837 27.61 21.7406C27.5757 21.6442 27.4794 21.6787 27.4106 21.6993C27.3282 21.7269 27.2525 21.7682 27.17 21.8095C26.8813 21.9403 26.5994 22.0711 26.3106 22.1951C26.2625 22.2157 26.2144 22.2433 26.1662 22.2708C26.0975 22.319 26.0562 22.381 26.1319 22.4567C25.9875 22.5669 25.7743 22.5875 25.6575 22.5118C25.5887 22.4705 25.5818 22.4154 25.6162 22.3534C25.6643 22.2708 25.7193 22.1882 25.7675 22.1124C25.8293 22.016 25.8087 21.9403 25.6918 21.8783C25.6643 22.0229 25.6918 22.1813 25.5406 22.2708C25.5268 22.2157 25.5131 22.1675 25.4993 22.0918C25.3687 22.202 25.4581 22.3052 25.4718 22.3947C25.4856 22.4842 25.5406 22.5669 25.5818 22.6564C25.4237 22.7114 25.3206 22.6357 25.3206 22.4705C25.3206 22.436 25.3137 22.4016 25.2931 22.3809C25.2725 22.3603 25.2381 22.3465 25.2106 22.3534C25.1968 22.3534 25.1762 22.4016 25.1831 22.4223C25.1831 22.5187 25.2106 22.6219 25.2449 22.7321ZM24.5437 20.9282C24.4474 21.0315 24.468 21.1554 24.578 21.2449C24.7499 21.3688 24.8393 21.5272 24.8256 21.7406C24.8256 21.7888 24.8462 21.8577 24.8806 21.8921C24.9287 21.9265 25.0043 21.9609 25.0524 21.9472C25.1006 21.9334 25.1762 21.8646 25.1762 21.8164C25.1762 21.5616 25.2656 21.362 25.4925 21.2242C25.5887 21.1623 25.5887 21.0246 25.4856 20.9351C25.4925 21.0934 25.4443 21.2036 25.2862 21.2518C25.2656 21.2587 25.2656 21.3069 25.2449 21.3206C25.2037 21.3482 25.1487 21.3688 25.1006 21.3895C25.1006 21.3482 25.1006 21.3138 25.1006 21.2724C25.1006 21.238 25.1006 21.1761 25.0937 21.1761C25.0456 21.1692 24.9906 21.1692 24.9424 21.1829C24.9355 21.1829 24.9424 21.2449 24.9424 21.2793C24.9424 21.3137 24.9424 21.3551 24.9424 21.3895C24.9012 21.3826 24.8531 21.3826 24.8187 21.362C24.7499 21.3069 24.6812 21.2449 24.6262 21.1829C24.5918 21.1485 24.5712 21.0934 24.5505 21.0452C24.5437 21.0108 24.5437 20.9695 24.5437 20.9282ZM24.3512 21.6236C24.2205 21.7888 24.2136 21.9816 24.3443 22.1056C24.4405 22.1951 24.5505 22.2708 24.6674 22.3672C24.6949 22.2157 24.6743 22.0711 24.5712 21.9059C24.5437 21.9816 24.523 22.0298 24.4955 22.0849C24.2618 21.9885 24.4749 21.7544 24.3512 21.6236ZM25.0868 20.9075C25.0799 20.9213 25.0799 20.9419 25.0731 20.9557C25.1143 21.0039 25.1487 21.0521 25.1899 21.1003C25.2656 21.0384 25.3412 20.9764 25.4099 20.9075C25.4031 20.8937 25.3962 20.8869 25.3893 20.8731C25.2862 20.8869 25.1831 20.8937 25.0868 20.9075ZM24.9768 20.9213C24.8805 20.9144 24.7912 20.9006 24.7087 20.8938C24.7568 20.9764 24.8256 21.0315 24.8943 21.0866C24.9012 21.0934 24.9355 21.0728 24.9424 21.0521C24.9562 21.0108 24.9631 20.9695 24.9768 20.9213ZM25.5268 20.8524C25.5406 20.8524 25.5543 20.8524 25.5681 20.8524C25.6024 20.7974 25.6368 20.7423 25.6781 20.6941C25.6643 20.6803 25.6575 20.6666 25.6437 20.6597C25.5956 20.6872 25.5406 20.7079 25.4993 20.7423C25.4856 20.7561 25.52 20.8111 25.5268 20.8524ZM24.4887 20.8249C24.5024 20.8249 24.5162 20.8249 24.523 20.8318C24.5299 20.7836 24.5574 20.7354 24.5437 20.701C24.5368 20.6734 24.4749 20.6597 24.4405 20.639C24.4337 20.6459 24.4268 20.6597 24.4199 20.6666C24.4405 20.7148 24.468 20.7698 24.4887 20.8249Z" fill="#F2F4F8"/>
<path d="M28.4696 24.0744C28.4146 24.0951 28.3596 24.1157 28.3115 24.1295C28.3046 24.0951 28.2978 24.0606 28.2978 24.0331C28.2152 24.0675 28.1258 24.1019 28.0365 24.1364C28.0296 24.1226 28.0159 24.1019 28.009 24.0882C28.1602 23.9367 28.3046 23.7852 28.4559 23.6338C28.4696 23.6269 28.4834 23.6269 28.4903 23.62C28.449 23.8265 28.5934 23.861 28.7171 23.9092C28.779 23.9367 28.8409 23.9574 28.9028 23.9918C29.0059 24.04 29.0884 24.1226 29.0746 24.2466C29.0609 24.3773 29.0059 24.4875 28.8684 24.5357C28.8065 24.5564 28.7378 24.5702 28.6759 24.5839C28.6002 24.5977 28.5796 24.6321 28.6071 24.7078C28.6759 24.8731 28.7309 24.9144 28.9096 24.9144C29.0059 24.9144 29.0953 24.9075 29.1297 25.0383C29.0815 25.0521 29.0403 25.0659 28.9921 25.0796C28.9921 25.0934 28.9921 25.1072 28.9921 25.1141C29.0471 25.1209 29.109 25.1278 29.164 25.1416C29.219 25.1554 29.2671 25.1691 29.3221 25.1898C29.3221 25.2036 29.3221 25.2105 29.3221 25.2242C29.2603 25.238 29.1984 25.2518 29.1159 25.2724C29.2122 25.4239 29.439 25.3895 29.4734 25.596C29.4184 25.596 29.3703 25.5891 29.2946 25.5823C29.3084 25.7131 29.3222 25.837 29.3428 25.9609C29.3703 26.1055 29.3428 26.1399 29.1984 26.1813C29.1297 26.195 29.0678 26.2295 29.0059 26.257C28.944 26.0918 28.834 26.0849 28.5934 26.2295C28.5865 26.1813 28.5865 26.1055 28.5659 26.0918C28.5246 26.0711 28.4628 26.0918 28.4077 26.0986C28.4352 26.0229 28.4559 25.9403 28.4971 25.8714C28.5178 25.837 28.5865 25.8163 28.6346 25.8095C28.7103 25.7957 28.7859 25.8026 28.8615 25.7888C28.9372 25.775 28.9921 25.7268 28.9784 25.6374C28.9715 25.5478 28.9096 25.5134 28.8271 25.5203C28.7515 25.5341 28.6759 25.5616 28.5934 25.5891C28.5178 25.5547 28.4284 25.5134 28.3321 25.4652C28.2084 25.4032 28.1671 25.2931 28.1465 25.1691C28.1327 25.0865 28.0984 25.0108 28.0777 24.9351C28.0159 24.9764 27.954 25.0246 27.8852 25.059C27.7202 25.1485 27.6171 25.2655 27.6033 25.4583C27.6033 25.479 27.5758 25.4996 27.5483 25.5341C27.5277 25.4721 27.5071 25.4308 27.4933 25.3895C27.4796 25.3895 27.4658 25.3895 27.4521 25.3895C27.4452 25.479 27.4383 25.5685 27.4246 25.6924C27.3902 25.6236 27.3627 25.5754 27.3421 25.5341C27.3283 25.5341 27.3146 25.5341 27.294 25.5341C27.294 25.6511 27.294 25.7682 27.294 25.8852C27.2802 25.8852 27.2664 25.8921 27.2527 25.8921C27.2252 25.8645 27.2046 25.837 27.1702 25.7957C27.1358 25.8232 27.0946 25.8439 27.0671 25.8714C26.9502 26.016 26.7783 26.0986 26.6133 26.1537C26.4964 26.1881 26.352 26.2295 26.2145 26.1468C26.1664 26.1193 26.077 26.1468 26.0014 26.1537C26.0633 26.0092 25.9602 26.0229 25.8295 26.0436C25.9189 25.9403 25.9808 25.8508 26.0633 25.7888C26.1114 25.7544 26.2008 25.7613 26.2695 25.7613C26.3108 25.7613 26.3452 25.7888 26.3864 25.8026C26.5514 25.8577 26.7096 25.8508 26.7852 25.5685C26.7508 25.5616 26.7164 25.5616 26.6821 25.5547C26.7096 25.4996 26.7371 25.4514 26.7508 25.3964C26.8333 25.1554 26.9983 25.0383 27.2527 25.0246C27.3283 25.0177 27.4108 24.997 27.4865 24.9764C27.5827 24.942 27.6308 24.8662 27.5965 24.7698C27.5621 24.6734 27.4658 24.7078 27.3971 24.7354C27.1977 24.8249 27.0052 24.9213 26.8058 25.0108C26.6133 25.1003 26.4139 25.176 26.2214 25.2656C26.0839 25.3275 26.0633 25.3826 26.1251 25.5134C25.9739 25.5272 25.8433 25.6442 25.6851 25.5616C25.5958 25.5203 25.5683 25.4445 25.6232 25.3551C25.6714 25.2862 25.7126 25.2173 25.7608 25.1416C25.8226 25.0452 25.8089 24.9695 25.692 24.9006C25.6508 25.0383 25.692 25.2036 25.5408 25.2931C25.527 25.238 25.5133 25.1898 25.4995 25.1416C25.3895 25.2036 25.4032 25.2793 25.5889 25.6718C25.417 25.72 25.3208 25.6511 25.3139 25.479C25.3139 25.4377 25.2795 25.3964 25.2589 25.3619C25.252 25.3551 25.197 25.3619 25.197 25.3619C25.1901 25.4032 25.1832 25.4445 25.1901 25.479C25.2107 25.5685 25.2382 25.6511 25.2589 25.7475C25.1626 25.7819 25.087 25.7406 25.0732 25.6029C25.0664 25.5547 25.0526 25.5065 25.0457 25.4583C25.032 25.4583 25.0182 25.4583 25.0045 25.4583C24.9907 25.5203 24.977 25.5891 24.9632 25.658C24.8601 25.6167 24.867 25.5547 24.8876 25.479C24.9014 25.4377 24.8876 25.3964 24.8601 25.3482C24.7776 25.5272 24.8464 25.775 24.5782 25.8645C24.5782 25.8163 24.5851 25.7819 24.5851 25.7475C24.4476 25.8232 24.3101 25.8921 24.1726 25.9678C24.1726 25.9541 24.1726 25.9334 24.1726 25.9196C24.1245 25.8852 24.0626 25.8232 24.0419 25.8301C23.9938 25.8577 23.9388 25.9265 23.9388 25.9747C23.9388 26.1262 23.8013 26.1124 23.7394 26.1813C23.6363 26.0918 23.6363 26.0918 23.2925 26.1744C23.2582 26.0367 23.2375 26.0367 22.9832 26.1193C23.045 25.9885 23.1 25.8714 23.1482 25.7475C23.1963 25.6442 23.2857 25.596 23.3819 25.6305C23.5607 25.6924 23.7119 25.6236 23.8632 25.5478C23.9732 25.4927 24.0694 25.4239 24.1795 25.3551C24.1313 25.2862 24.0969 25.2311 24.0557 25.1691C24.1176 25.1554 24.1588 25.1416 24.2344 25.1209C24.0832 25.0383 23.8907 25.1554 23.7807 24.9626C23.8769 24.9626 23.9526 24.9626 24.0557 24.9626C23.9182 24.8111 23.7051 24.9764 23.5882 24.7767C23.6776 24.7698 23.7463 24.7629 23.8426 24.756C23.7051 24.639 23.4851 24.8042 23.3957 24.5977C23.4369 24.5908 23.4782 24.5977 23.4919 24.577C23.5194 24.5426 23.5538 24.4875 23.5469 24.46C23.5332 24.4255 23.4507 24.3911 23.4369 24.398C23.2513 24.5288 23.1825 24.3429 23.0382 24.2603C23.1482 24.2121 23.2238 24.1846 23.2994 24.1433C23.32 24.1295 23.3475 24.0882 23.3407 24.0744C23.3269 24.0469 23.2925 24.0193 23.2651 24.0124C23.0932 23.9987 23.0863 23.9849 23.1206 23.8197C23.1275 23.7783 23.1069 23.7301 23.1069 23.7026C23.1688 23.6888 23.2582 23.6888 23.2994 23.6475C23.3407 23.6131 23.3338 23.5236 23.3613 23.4341C23.43 23.4134 23.5332 23.7301 23.6432 23.4479C23.7601 23.5512 23.8013 23.7233 23.7532 23.8541C23.6569 24.0951 23.6569 24.1295 23.8494 24.3085C23.932 24.3842 24.0213 24.4393 24.1107 24.5082C24.1795 24.5564 24.2413 24.5564 24.2894 24.4737C24.3238 24.4118 24.372 24.3567 24.4132 24.3016C24.3995 24.3016 24.3857 24.3016 24.372 24.3016C24.3651 24.2328 24.3513 24.157 24.3513 24.0882C24.3582 23.978 24.372 23.861 24.3788 23.7508C24.3857 23.6475 24.4201 23.5993 24.537 23.5856C24.6813 23.5718 24.8189 23.5098 24.9563 23.4754C25.0045 23.4616 25.0664 23.4547 25.1145 23.4685C25.3001 23.5167 25.4858 23.5649 25.6645 23.6269C25.692 23.6338 25.7264 23.6751 25.7264 23.7026C25.7195 23.8679 25.7126 24.0331 25.7745 24.1984C25.7814 24.2259 25.7677 24.2603 25.7539 24.3154C25.7126 24.2672 25.6851 24.2328 25.6508 24.1984C25.6232 24.3429 25.7126 24.4737 25.8708 24.5082C26.3314 24.6183 26.7852 24.6046 27.2389 24.4806C27.4521 24.4255 27.6721 24.3636 27.8921 24.3429C28.0709 24.3292 28.2565 24.3773 28.4421 24.3911C28.559 24.398 28.6828 24.4049 28.7996 24.3842C28.8615 24.3773 28.9578 24.3429 28.9234 24.2328C28.8959 24.1501 28.7584 24.1157 28.6759 24.157C28.5109 24.2259 28.4971 24.219 28.4696 24.0744ZM24.5438 23.9298C24.4476 24.0469 24.4545 24.157 24.5713 24.2534C24.7363 24.3911 24.8464 24.5495 24.8326 24.7767C24.8257 24.8318 24.867 24.9075 24.9082 24.9351C24.9495 24.9695 25.032 24.9833 25.0801 24.9626C25.1282 24.942 25.1832 24.8731 25.1832 24.8249C25.1832 24.577 25.2657 24.3842 25.4858 24.2534C25.5889 24.1915 25.5958 24.0537 25.5064 23.9642C25.4858 24.0331 25.4858 24.1088 25.4445 24.1639C25.3826 24.2466 25.3001 24.3223 25.2107 24.3842C25.1832 24.4049 25.1214 24.3911 25.0595 24.398C25.0801 24.3498 25.1008 24.3292 25.1008 24.3016C25.1008 24.2672 25.1076 24.1984 25.0939 24.1915C25.0457 24.1777 24.9976 24.1846 24.9495 24.1915C24.9426 24.1915 24.9495 24.2603 24.9426 24.2947C24.9426 24.3292 24.9426 24.3705 24.9357 24.4049C24.8945 24.3911 24.8464 24.3911 24.812 24.3705C24.7432 24.3223 24.6813 24.2603 24.6264 24.1984C24.592 24.1639 24.5645 24.1157 24.5507 24.0675C24.537 24.04 24.5438 23.9987 24.5438 23.9298ZM24.3445 24.639C24.207 24.8593 24.2138 25.059 24.3857 25.1691C24.4819 25.2311 24.5645 25.3 24.6332 25.3895C24.6332 25.3895 24.647 25.3895 24.6882 25.3826C24.6607 25.238 24.6332 25.0934 24.6057 24.9488C24.5851 24.9488 24.5713 24.9488 24.5507 24.9488C24.5301 24.997 24.5095 25.0521 24.4888 25.1072C24.2551 25.0177 24.4682 24.7836 24.3445 24.639ZM25.417 23.9229C25.4101 23.9161 25.4032 23.9023 25.3964 23.8954C25.3414 23.9023 25.2864 23.9023 25.2382 23.9092C25.1901 23.9161 25.1351 23.9298 25.087 23.9367C25.0801 23.9505 25.0732 23.9642 25.0664 23.9711C25.1145 24.0124 25.1832 24.1019 25.197 24.0951C25.2726 24.0537 25.3414 23.9849 25.417 23.9229ZM24.7088 23.9161C24.702 23.9229 24.6951 23.9298 24.6882 23.9436C24.7501 23.9987 24.8189 24.0537 24.8807 24.1088C24.8876 24.1157 24.922 24.0882 24.9357 24.0744C24.9495 24.04 24.9563 23.9987 24.9701 23.9505C24.9151 23.9436 24.8807 23.9436 24.8395 23.9436C24.7982 23.9229 24.757 23.9161 24.7088 23.9161ZM25.6783 23.7164C25.6645 23.7026 25.6576 23.6888 25.6439 23.6751C25.5958 23.7026 25.5408 23.7301 25.5064 23.7646C25.4926 23.7783 25.5339 23.8334 25.5545 23.9023C25.6026 23.8197 25.6439 23.7715 25.6783 23.7164ZM24.482 23.8472C24.4957 23.8541 24.5095 23.8541 24.5232 23.861C24.537 23.8128 24.5645 23.7646 24.5507 23.7301C24.5438 23.7026 24.482 23.6819 24.4476 23.6613C24.4407 23.6682 24.4338 23.6819 24.4201 23.6888C24.4407 23.737 24.4613 23.7921 24.482 23.8472Z" fill="#F2F4F8"/>
<path d="M26.1523 28.5501C25.9735 28.5707 25.8429 28.6809 25.6848 28.6052C25.5954 28.557 25.561 28.495 25.6229 28.3986C25.671 28.3229 25.7191 28.254 25.7673 28.1783C25.8292 28.0888 25.8085 28.013 25.6985 27.9511C25.6848 28.0337 25.6848 28.1025 25.6573 28.1714C25.6367 28.2334 25.5885 28.2884 25.5266 28.3435C25.5198 28.2953 25.506 28.2403 25.4991 28.192C25.396 28.2609 25.4029 28.2884 25.5885 28.7222C25.4373 28.7704 25.3204 28.6947 25.3135 28.5501C25.3135 28.5225 25.3135 28.4881 25.2997 28.4674C25.2791 28.4399 25.2447 28.4261 25.2172 28.4055C25.2035 28.433 25.176 28.4674 25.1829 28.495C25.2035 28.5914 25.2379 28.6947 25.2654 28.791C25.1416 28.8255 25.1072 28.7979 25.0866 28.6465C25.0797 28.5983 25.0591 28.5501 25.0454 28.5019C25.0316 28.5019 25.0179 28.5019 25.011 28.5019C24.9972 28.5638 24.9835 28.6258 24.9697 28.6878C24.8597 28.6465 24.8872 28.5845 24.9079 28.5088C24.9147 28.4743 24.8941 28.433 24.8872 28.3917C24.8666 28.4261 24.8391 28.4537 24.8254 28.4881C24.791 28.5914 24.7772 28.7015 24.736 28.8048C24.7154 28.853 24.6535 28.8806 24.5847 28.9356C24.5985 28.8599 24.6053 28.8186 24.6122 28.7428C24.5366 28.8117 24.4816 28.8737 24.4197 28.9081C24.351 28.9425 24.2685 28.9563 24.1928 28.977C24.1928 28.9632 24.1997 28.9563 24.1997 28.9425C24.1516 28.915 24.0828 28.853 24.0553 28.8668C24.0072 28.8874 23.9866 28.9632 23.9522 29.0114C23.8903 29.0871 23.8285 29.1628 23.7597 29.2386C23.6084 29.0458 23.4572 29.2317 23.3059 29.1766C23.2578 29.0114 23.1272 29.1353 23.0034 29.1353C23.0584 29.0045 23.1134 28.8943 23.1684 28.7773C23.2165 28.6809 23.2991 28.6396 23.4022 28.6671C23.6084 28.7291 23.7735 28.6396 23.9384 28.5501C24.0278 28.5019 24.1034 28.4468 24.1997 28.3848C24.1516 28.316 24.1172 28.2609 24.076 28.1989C24.1447 28.1852 24.1928 28.1783 24.2685 28.1645C24.1172 28.0543 23.9041 28.1989 23.8078 27.9924C23.8972 27.9924 23.9797 27.9924 24.0553 27.9924C24.0553 27.9786 24.0553 27.958 24.0622 27.9442C23.9866 27.9373 23.9178 27.9304 23.8422 27.9167C23.7735 27.9029 23.6978 27.8822 23.6291 27.8616C23.6291 27.8409 23.6291 27.8202 23.6359 27.7996C23.7116 27.7927 23.7872 27.7858 23.8628 27.7789C23.8628 27.7652 23.8628 27.7583 23.8697 27.7445C23.7941 27.7376 23.7184 27.7376 23.6428 27.7307C23.5603 27.7307 23.4709 27.7376 23.4297 27.6275C23.464 27.6206 23.4984 27.6206 23.5122 27.5999C23.5397 27.5655 23.5603 27.5242 23.5809 27.4898C23.5397 27.4691 23.4916 27.4209 23.4503 27.4278C23.2784 27.4622 23.1822 27.4278 23.079 27.2694C23.1615 27.235 23.2509 27.2006 23.3266 27.1593C23.3472 27.1524 23.3678 27.1042 23.3609 27.0904C23.3472 27.0629 23.3197 27.0422 23.2922 27.0353C23.1134 27.0078 23.1134 27.0078 23.1341 26.8357C23.1409 26.7944 23.1272 26.7462 23.1203 26.7048C23.3266 26.7324 23.3884 26.6704 23.3403 26.4708C23.4503 26.4639 23.5603 26.7255 23.6703 26.4639C23.7597 26.6222 23.8422 26.7668 23.7391 26.9321C23.6566 27.0629 23.6909 27.173 23.7941 27.2694C23.9041 27.3727 24.0278 27.4622 24.1516 27.5449C24.1791 27.5655 24.2547 27.5449 24.2754 27.5242C24.3372 27.4622 24.3785 27.3796 24.3922 27.3107C24.3785 27.2488 24.3578 27.1868 24.3578 27.1248C24.3647 27.0078 24.3922 26.8839 24.3991 26.7668C24.406 26.6635 24.4266 26.6222 24.5435 26.6085C24.6879 26.5878 24.8254 26.5258 24.9629 26.4914C25.0179 26.4777 25.0866 26.4708 25.1416 26.4914C25.3204 26.5396 25.506 26.5878 25.6848 26.6429C25.7123 26.6498 25.7466 26.6911 25.7466 26.7186C25.7604 26.8908 25.7673 27.056 25.781 27.2281C25.781 27.2488 25.7741 27.2763 25.7398 27.3176C25.7191 27.2832 25.6985 27.2488 25.671 27.2144C25.6367 27.3383 25.7329 27.4898 25.8704 27.5242C26.3311 27.6412 26.7848 27.6275 27.2386 27.5035C27.658 27.3796 28.0774 27.297 28.5105 27.4209C28.5999 27.4484 28.7099 27.4278 28.8062 27.4071C28.8543 27.4002 28.9093 27.3452 28.9299 27.297C28.9368 27.2763 28.8886 27.2006 28.8543 27.1868C28.8062 27.1662 28.7236 27.1593 28.6824 27.1868C28.5518 27.2557 28.5243 27.2488 28.5105 27.1042C28.4624 27.1248 28.4074 27.1455 28.3593 27.1662C28.3455 27.1317 28.3386 27.1042 28.3318 27.0766C28.2492 27.1111 28.1599 27.1455 28.0705 27.1799C28.0636 27.1662 28.0499 27.1524 28.043 27.1317C28.1942 26.9802 28.3455 26.8219 28.5036 26.6635C28.538 26.7462 28.5449 26.815 28.5861 26.8563C28.6274 26.9045 28.703 26.9183 28.7649 26.9527C28.8268 26.9802 28.8886 27.0078 28.9505 27.0353C29.0537 27.0835 29.1155 27.1593 29.1155 27.2763C29.1155 27.4002 29.0605 27.4966 28.9505 27.5517C28.8818 27.5862 28.7993 27.6068 28.7236 27.6206C28.6137 27.6343 28.6137 27.6825 28.6549 27.7652C28.7099 27.8891 28.7924 27.958 28.9368 27.9442C29.0399 27.9304 29.1361 27.9511 29.1705 28.0819C29.1224 28.0956 29.0743 28.1094 29.033 28.1232C29.033 28.1301 29.0262 28.1438 29.0262 28.1507C29.1361 28.1783 29.2462 28.2058 29.363 28.2334C29.363 28.2471 29.363 28.2609 29.3562 28.2747C29.3149 28.2747 29.2806 28.2747 29.2393 28.2816C29.2118 28.2884 29.1843 28.3091 29.1568 28.3229C29.1774 28.3435 29.1912 28.3779 29.2187 28.3917C29.2737 28.4192 29.3355 28.4399 29.3905 28.4743C29.4318 28.5019 29.4593 28.5501 29.5143 28.6189C29.4318 28.6258 29.3905 28.6258 29.3218 28.6327C29.3355 28.7566 29.3424 28.8806 29.363 29.0045C29.3837 29.1353 29.3562 29.1973 29.2255 29.2179C29.1568 29.2317 29.0949 29.2592 29.0262 29.2799C28.9574 29.1353 28.8749 29.1284 28.6136 29.2524C28.5999 29.2042 28.593 29.1422 28.5655 29.1215C28.5311 29.1009 28.4761 29.1353 28.4211 29.1422C28.4486 29.0665 28.4624 28.9907 28.5036 28.9288C28.5243 28.8874 28.5861 28.8599 28.6343 28.853C28.7099 28.8324 28.7924 28.8392 28.868 28.8255C28.9574 28.8117 28.9987 28.7635 28.9918 28.6671C28.9849 28.5776 28.923 28.557 28.8474 28.5638C28.7649 28.5776 28.6893 28.6052 28.6068 28.6258C28.538 28.5914 28.4624 28.5432 28.3799 28.5156C28.2217 28.4606 28.1874 28.3297 28.1667 28.192C28.1599 28.1507 28.1599 28.1094 28.153 28.0681C28.1255 27.958 28.0842 27.9511 28.0017 28.0199C27.9605 28.0543 27.9124 28.1025 27.8642 28.1301C27.7336 28.1989 27.658 28.2953 27.6442 28.4468C27.6374 28.4881 27.6167 28.5294 27.5892 28.5914C27.5617 28.5225 27.5411 28.4812 27.5205 28.433C27.5136 28.433 27.4998 28.433 27.493 28.433C27.4792 28.5225 27.4724 28.6052 27.4586 28.6947C27.4517 28.6947 27.4449 28.6947 27.4311 28.6947C27.4105 28.6534 27.3898 28.6121 27.3692 28.5638C27.3555 28.5638 27.3417 28.5638 27.328 28.5638C27.3211 28.6878 27.3142 28.8117 27.3004 28.9494C27.2455 28.9012 27.218 28.853 27.1836 28.853C27.1492 28.853 27.1148 28.8874 27.0804 28.915C27.0323 28.9563 26.9842 29.0114 26.9361 29.0527C26.9017 29.0802 26.8536 29.1009 26.8054 29.1215C26.7642 29.1422 26.7229 29.156 26.6817 29.1697C26.6267 29.1904 26.5648 29.2042 26.5098 29.211C26.441 29.2179 26.3654 29.211 26.276 29.211C26.2279 29.1146 26.1317 29.1835 26.0285 29.1973C26.0973 29.0045 25.946 29.0871 25.8635 29.0665C25.9391 28.977 25.9942 28.8874 26.0767 28.8324C26.1385 28.791 26.2279 28.7979 26.3104 28.7979C26.3379 28.7979 26.3654 28.8186 26.3929 28.8255C26.6335 28.915 26.7161 28.8737 26.8261 28.6052C26.7917 28.5914 26.7642 28.5845 26.7229 28.5707C26.7642 28.4812 26.7917 28.3986 26.8398 28.316C26.9223 28.1714 27.0392 28.0819 27.2111 28.0681C27.3073 28.0543 27.4173 28.0474 27.5067 28.013C27.5617 27.9924 27.6167 27.9235 27.6305 27.8616C27.658 27.772 27.5961 27.7238 27.5067 27.7445C27.4105 27.772 27.3142 27.8134 27.2248 27.8547C26.9292 27.9855 26.6335 28.1232 26.3311 28.2609C26.2829 28.2816 26.2417 28.3022 26.2004 28.3297C26.0904 28.3848 26.0423 28.4399 26.1523 28.5501ZM24.5503 26.9734C24.4472 27.0904 24.4885 27.2281 24.6191 27.3314C24.7566 27.4347 24.8529 27.5655 24.8391 27.7514C24.8391 27.7996 24.8391 27.8478 24.8529 27.8891C24.8804 27.9855 24.9491 28.0268 25.0454 28.0199C25.1416 28.013 25.2035 27.958 25.1966 27.8547C25.1898 27.6137 25.2722 27.4278 25.4923 27.297C25.6023 27.2281 25.6092 27.0904 25.4991 27.0009C25.4923 27.0353 25.4785 27.0698 25.4785 27.0973C25.4716 27.1868 25.4373 27.2557 25.3479 27.2901C25.3135 27.3039 25.286 27.352 25.2654 27.3865C25.2173 27.4622 25.1691 27.476 25.0866 27.4278C25.0935 27.4002 25.1072 27.3865 25.1072 27.3658C25.1072 27.3245 25.1141 27.2557 25.1004 27.2488C25.0591 27.235 25.0041 27.2488 24.956 27.2488C24.9629 27.2832 24.9629 27.3245 24.9629 27.3589C24.9629 27.3934 24.956 27.4209 24.956 27.4553C24.9147 27.4416 24.8597 27.4416 24.8254 27.414C24.7978 27.3934 24.7978 27.3314 24.7704 27.3245C24.6122 27.2557 24.516 27.1662 24.5503 26.9734ZM24.5228 28.1507C24.4128 28.1232 24.3785 28.0406 24.3785 27.9442C24.3785 27.8616 24.3853 27.7789 24.3922 27.6963C24.3785 27.6963 24.3647 27.6963 24.3578 27.6963C24.2135 27.8891 24.241 28.137 24.4266 28.2403C24.5228 28.2884 24.5847 28.3435 24.6329 28.4261C24.6329 28.433 24.6466 28.4261 24.6741 28.4261C24.6879 28.2747 24.6947 28.1301 24.571 27.9717C24.5503 28.0474 24.5366 28.0956 24.5228 28.1507ZM25.0866 26.9734C25.1141 27.0422 25.121 27.0835 25.1416 27.1111C25.1554 27.1317 25.1966 27.1524 25.2035 27.1455C25.2791 27.0835 25.3548 27.0147 25.4235 26.9458C25.4166 26.9389 25.4098 26.9321 25.4029 26.9252C25.2997 26.9527 25.1966 26.9596 25.0866 26.9734ZM24.7222 26.9389C24.7154 26.9458 24.7085 26.9596 24.7016 26.9665C24.7704 27.0284 24.8391 27.0904 24.9216 27.1731C24.956 27.1042 24.9766 27.056 25.011 26.9871C24.901 26.9665 24.8116 26.9527 24.7222 26.9389ZM25.5404 26.9252C25.5541 26.9252 25.5679 26.9252 25.5885 26.9252C25.6229 26.8701 25.6504 26.815 25.6848 26.7668C25.6779 26.753 25.6641 26.7462 25.6573 26.7324C25.6092 26.753 25.5541 26.7668 25.5198 26.8081C25.506 26.8219 25.5335 26.877 25.5404 26.9252ZM24.4885 26.8908C24.5022 26.8908 24.516 26.8976 24.5366 26.8976C24.5435 26.8495 24.571 26.7944 24.5572 26.753C24.5503 26.7255 24.4885 26.7117 24.4472 26.698C24.4403 26.7048 24.4335 26.7186 24.4266 26.7255C24.4472 26.7806 24.4679 26.8357 24.4885 26.8908Z" fill="#F2F4F8"/>
<path d="M26.4342 27.1181C26.4136 27.0768 26.4136 27.0424 26.393 27.0286C26.3586 27.0079 26.3173 26.9942 26.283 27.0011C26.2624 27.0079 26.228 27.0768 26.2417 27.0905C26.2761 27.1525 26.3242 27.2351 26.3792 27.2489C26.5167 27.2765 26.668 27.2971 26.7986 27.2696C27.1699 27.1869 27.5343 27.0699 27.8987 26.9666C27.9399 26.9529 27.988 26.946 28.0362 26.946C27.8918 27.0699 27.768 27.1938 27.5549 27.2214C27.2936 27.2558 27.0392 27.3591 26.778 27.4142C26.6061 27.4486 26.4274 27.4555 26.2624 27.3729C26.0973 27.2902 26.0355 27.1663 26.0698 26.9942C26.0973 26.8702 26.2349 26.7532 26.393 26.7601C26.613 26.7669 26.8399 26.8014 27.0599 26.822C27.0599 26.8358 27.0668 26.8564 27.0668 26.8702C26.8536 26.9597 26.6405 27.0355 26.4342 27.1181Z" fill="#F2F4F8"/>
<path d="M27.0737 20.7969C26.8536 20.8795 26.6405 20.9622 26.4274 21.0517C26.4136 21.0448 26.4068 21.0379 26.3999 21.031C26.3724 20.9966 26.3449 20.9553 26.3105 20.9277C26.2968 20.9209 26.2349 20.9553 26.2349 20.9691C26.2349 21.0173 26.2349 21.0861 26.2693 21.1205C26.3724 21.2376 26.5236 21.2651 26.6611 21.2307C26.9568 21.1619 27.2455 21.0861 27.5343 21.0035C27.6993 20.9622 27.8643 20.914 28.0293 20.8727C27.8712 20.9966 27.7406 21.1412 27.5137 21.1619C27.2937 21.1825 27.0805 21.2858 26.8605 21.334C26.7093 21.3615 26.5443 21.3615 26.3861 21.3546C26.1799 21.3409 26.0286 21.1756 26.0424 20.9897C26.0493 20.8176 26.2005 20.6799 26.4136 20.6868C26.6336 20.6937 26.8536 20.735 27.0737 20.7625C27.0668 20.7763 27.0737 20.7901 27.0737 20.7969Z" fill="#F2F4F8"/>
<path d="M27.0531 23.8339C26.84 23.9165 26.6269 23.9922 26.4206 24.0749C26.4068 24.068 26.4 24.0611 26.3931 24.0542C26.3656 24.0198 26.3381 23.9784 26.2968 23.9509C26.29 23.944 26.2281 23.9716 26.2281 23.9853C26.2281 24.0335 26.2212 24.1024 26.2487 24.1368C26.3518 24.2608 26.4962 24.2883 26.6406 24.2539C26.9569 24.185 27.2731 24.0955 27.5894 24.0129C27.7338 23.9784 27.8713 23.9303 28.0225 23.889C27.9194 24.0267 27.7269 24.1368 27.5825 24.1713C27.3281 24.2332 27.0738 24.3158 26.8194 24.3709C26.675 24.3985 26.5168 24.3985 26.3725 24.3847C26.2281 24.3709 26.1181 24.2883 26.0562 24.1575C25.9668 23.9647 26.0975 23.7581 26.3243 23.7237C26.4 23.7099 26.4756 23.7099 26.5512 23.7237C26.7162 23.7444 26.8812 23.7788 27.0462 23.7995C27.0531 23.8063 27.0531 23.8201 27.0531 23.8339Z" fill="#F2F4F8"/>
<path d="M25.018 21.4512C25.0799 21.5269 25.1418 21.5889 25.0661 21.6646C25.0455 21.6853 24.9699 21.6715 24.9424 21.644C24.8599 21.5476 24.9699 21.5132 25.018 21.4512Z" fill="#F2F4F8"/>
<path d="M25.018 24.4678C25.0799 24.5435 25.1418 24.6055 25.0661 24.6812C25.0455 24.7019 24.9699 24.6881 24.9424 24.6606C24.8599 24.5711 24.9699 24.5366 25.018 24.4678Z" fill="#F2F4F8"/>
<path d="M25.0111 27.4966C25.1005 27.5861 25.1624 27.6481 25.0799 27.7169C25.0524 27.7376 24.9905 27.71 24.9424 27.71C24.9699 27.6412 24.9836 27.5792 25.0111 27.4966Z" fill="#F2F4F8"/>
</svg>
