<svg width="24" height="24" viewBox="0 0 24 24" fill="none" xmlns="http://www.w3.org/2000/svg">
<path fill-rule="evenodd" clip-rule="evenodd" d="M20.7803 8.0305C20.6397 8.17115 20.4489 8.25017 20.25 8.25017H19.5V18.0002H21V19.5002H3V18.0002H4.5V8.25017H3.75C3.55109 8.25017 3.36032 8.17115 3.21967 8.0305C3.07902 7.88985 3 7.69908 3 7.50017V5.25017C3.00007 5.09603 3.04762 4.94566 3.13619 4.81952C3.22476 4.69337 3.35005 4.59758 3.495 4.54517L11.745 1.54517C11.9098 1.48559 12.0902 1.48559 12.255 1.54517L20.505 4.54517C20.65 4.59758 20.7752 4.69337 20.8638 4.81952C20.9524 4.94566 20.9999 5.09603 21 5.25017V7.50017C21 7.69908 20.921 7.88985 20.7803 8.0305ZM12 3.04517L4.5 5.77517V6.75017H19.5V5.77517L12 3.04517ZM10.5 8.25017V18.0002H13.5V8.25017H10.5ZM9 8.25017H6V18.0002H9V8.25017ZM15 18.0002H18V8.25017H15V18.0002ZM1.5 22.5002V21.0002H22.5V22.5002H1.5Z" fill="#111629"/>
</svg>
