<svg width="24" height="24" viewBox="0 0 24 24" fill="none" xmlns="http://www.w3.org/2000/svg">
<path d="M12 24C18.65 24 24 18.65 24 12C24 5.34996 18.65 0 12 0C5.34996 0 0 5.34996 0 12C0 18.65 5.34996 24 12 24Z" fill="#F2F4F8"/>
<g clip-path="url(#clip0)">
<path fill-rule="evenodd" clip-rule="evenodd" d="M6.77126 5.32367L3.76273 11.9278C3.75129 11.9524 3.74766 11.9801 3.75238 12.007C3.7571 12.0339 3.76993 12.0584 3.78898 12.0772L11.9143 20.2139C11.9374 20.2371 11.9681 20.25 12.0001 20.25C12.0321 20.25 12.0628 20.2371 12.0859 20.2139L20.2112 12.0777C20.2303 12.059 20.2431 12.0344 20.2478 12.0075C20.2525 11.9806 20.2489 11.9529 20.2375 11.9283L17.2289 5.32418C17.2192 5.302 17.2036 5.28321 17.184 5.27006C17.1643 5.25691 17.1414 5.24995 17.1181 5.25001H6.88307C6.85962 5.2497 6.83659 5.2565 6.81675 5.26957C6.79691 5.28264 6.78111 5.30143 6.77126 5.32367Z" fill="#50AF95"/>
<path fill-rule="evenodd" clip-rule="evenodd" d="M13.0439 12.606C12.9856 12.6105 12.6842 12.6293 12.0119 12.6293C11.4772 12.6293 11.0975 12.6126 10.9644 12.606C8.89791 12.511 7.35548 12.135 7.35548 11.6849C7.35548 11.2348 8.89791 10.8594 10.9644 10.7629V12.2316C11.0995 12.2417 11.4864 12.2656 12.0212 12.2656C12.6628 12.2656 12.9841 12.2376 13.042 12.2321V10.7639C15.1041 10.8599 16.6431 11.2359 16.6431 11.6849C16.6431 12.134 15.1045 12.5099 13.042 12.6054L13.0439 12.606ZM13.0439 10.612V9.2978H15.9217V7.2937H8.08659V9.2978H10.9639V10.6115C8.6252 10.7238 6.86646 11.2079 6.86646 11.7881C6.86646 12.3682 8.6252 12.8518 10.9639 12.9646V17.176H13.0434V12.9631C15.3768 12.8508 17.1326 12.3672 17.1326 11.7876C17.1326 11.2079 15.3782 10.7243 13.0434 10.6115L13.0439 10.612Z" fill="white"/>
</g>
<defs>
<clipPath id="clip0">
<rect width="16.5" height="15" fill="white" transform="translate(3.75 5.25)"/>
</clipPath>
</defs>
</svg>
