<svg width="24" height="24" viewBox="0 0 24 24" fill="none" xmlns="http://www.w3.org/2000/svg">
<path d="M12 24C18.65 24 24 18.65 24 12C24 5.34996 18.65 0 12 0C5.34996 0 0 5.34996 0 12C0 18.65 5.34996 24 12 24Z" fill="#2775CA"/>
<path d="M15.3 13.9C15.3 12.15 14.25 11.55 12.15 11.3001C10.65 11.1 10.35 10.7001 10.35 10C10.35 9.29992 10.8501 8.85004 11.85 8.85004C12.75 8.85004 13.2501 9.15004 13.5 9.90004C13.5501 10.05 13.7001 10.15 13.8501 10.15H14.65C14.85 10.15 15 10 15 9.80008V9.75004C14.8 8.65 13.9 7.80004 12.75 7.70008V6.50009C12.75 6.30005 12.6 6.15005 12.3501 6.10001H11.6001C11.4 6.10001 11.25 6.25001 11.2 6.50009V7.65004C9.70001 7.85008 8.7501 8.85004 8.7501 10.1001C8.7501 11.7501 9.75005 12.4 11.85 12.6501C13.2501 12.9 13.7001 13.2 13.7001 14.0001C13.7001 14.8001 13 15.3501 12.0501 15.3501C10.75 15.3501 10.3 14.8 10.15 14.05C10.1001 13.8501 9.95009 13.75 9.80009 13.75H8.95002C8.7501 13.75 8.6001 13.9 8.6001 14.1V14.1501C8.80002 15.4 9.60005 16.3 11.25 16.5501V17.7501C11.25 17.95 11.4 18.1 11.65 18.15H12.4C12.6 18.15 12.75 18 12.8001 17.7501V16.5501C14.3001 16.3 15.3 15.25 15.3 13.9Z" fill="white"/>
<path d="M9.45001 19.15C5.55 17.75 3.54996 13.4 5.00004 9.54995C5.75005 7.44995 7.40005 5.84999 9.45001 5.09999C9.65005 5.00003 9.75002 4.85003 9.75002 4.59995V3.89999C9.75002 3.69995 9.65005 3.54995 9.45001 3.50003C9.39997 3.50003 9.30001 3.50003 9.24997 3.54995C4.5 5.04995 1.89996 10.1 3.39996 14.85C4.29996 17.65 6.45001 19.8 9.24997 20.7C9.45001 20.7999 9.65005 20.7 9.69998 20.5C9.75002 20.45 9.75002 20.4 9.75002 20.3V19.5999C9.75002 19.4499 9.60001 19.25 9.45001 19.15ZM14.7501 3.54995C14.55 3.44999 14.35 3.54995 14.3001 3.74999C14.25 3.80003 14.25 3.84995 14.25 3.95003V4.64999C14.25 4.85003 14.4 5.04995 14.55 5.15003C18.45 6.54995 20.4501 10.9 19 14.75C18.25 16.85 16.6 18.45 14.55 19.2C14.35 19.3 14.25 19.45 14.25 19.7V20.4C14.25 20.6 14.35 20.75 14.55 20.7999C14.6001 20.7999 14.7 20.8 14.7501 20.75C19.5 19.25 22.1001 14.2 20.6001 9.44999C19.7001 6.59999 17.5 4.44995 14.7501 3.54995Z" fill="white"/>
</svg>
