<svg width="20" height="20" viewBox="0 0 20 20" fill="none" xmlns="http://www.w3.org/2000/svg">
<path d="M19.6986 12.419C18.363 17.7762 12.937 21.0365 7.57919 19.7006C2.22361 18.365 -1.03667 12.9387 0.299485 7.58197C1.63447 2.22419 7.06044 -1.03634 12.4166 0.299234C17.774 1.63481 21.0341 7.0617 19.6984 12.4191L19.6985 12.419H19.6986Z" fill="white"/>
<path d="M14.4096 8.57528C14.6086 7.2445 13.5955 6.52915 12.21 6.05194L12.6595 4.24928L11.5622 3.97585L11.1246 5.73105C10.8362 5.6591 10.5399 5.59131 10.2455 5.5241L10.6861 3.75732L9.58949 3.48389L9.13981 5.28596C8.90108 5.23161 8.66661 5.17789 8.43912 5.12129L8.4404 5.11562L6.92715 4.73773L6.63524 5.90976C6.63524 5.90976 7.44937 6.09638 7.43222 6.10786C7.87657 6.21877 7.95693 6.51292 7.94359 6.74608L7.43163 8.79973C7.46223 8.8075 7.50192 8.81875 7.54571 8.83634C7.5091 8.82725 7.47015 8.81733 7.42972 8.80765L6.71213 11.6845C6.65782 11.8195 6.51998 12.0221 6.20931 11.9452C6.22031 11.9611 5.41175 11.7462 5.41175 11.7462L4.86694 13.0023L6.29495 13.3582C6.5606 13.4249 6.82093 13.4946 7.0773 13.5601L6.62322 15.3835L7.71928 15.6569L8.16897 13.8529C8.4684 13.9342 8.75899 14.0092 9.04347 14.0798L8.59529 15.8753L9.69268 16.1488L10.1467 14.3288C12.0179 14.683 13.4249 14.5402 14.0171 12.8477C14.4943 11.4851 13.9934 10.6991 13.0089 10.1865C13.7259 10.0212 14.266 9.54959 14.41 8.57543L14.4097 8.57518L14.4096 8.57528ZM11.9025 12.091C11.5633 13.4536 9.26904 12.717 8.5252 12.5323L9.12778 10.1167C9.87157 10.3024 12.2569 10.6698 11.9025 12.091H11.9025ZM12.2418 8.55553C11.9325 9.79501 10.0229 9.1653 9.40346 9.01089L9.94978 6.82008C10.5692 6.97449 12.5641 7.26268 12.2419 8.55553H12.2418Z" fill="#FFA341"/>
</svg>
