<svg width="140" height="140" viewBox="0 0 140 140" fill="none" xmlns="http://www.w3.org/2000/svg">
<path d="M70 140C108.66 140 140 108.66 140 70C140 31.3401 108.66 0 70 0C31.3401 0 0 31.3401 0 70C0 108.66 31.3401 140 70 140Z" fill="#E0E1FC"/>
<path d="M70.3145 131.236C104.346 131.236 131.934 103.649 131.934 69.6172C131.934 35.5859 104.346 7.99805 70.3145 7.99805C36.2832 7.99805 8.69531 35.5859 8.69531 69.6172C8.69531 103.649 36.2832 131.236 70.3145 131.236Z" fill="#3E54BC"/>
<mask id="mask0" mask-type="alpha" maskUnits="userSpaceOnUse" x="8" y="7" width="124" height="125">
<path d="M70.3145 131.236C104.346 131.236 131.934 103.649 131.934 69.6172C131.934 35.5859 104.346 7.99805 70.3145 7.99805C36.2832 7.99805 8.69531 35.5859 8.69531 69.6172C8.69531 103.649 36.2832 131.236 70.3145 131.236Z" fill="#3E54BC"/>
</mask>
<g mask="url(#mask0)">
<path d="M109.728 37.6733L109.518 129.446C109.513 131.71 108.609 133.879 107.004 135.476C105.4 137.073 103.227 137.967 100.964 137.963L41.4399 137.826C40.319 137.824 39.2096 137.601 38.175 137.17C37.1404 136.738 36.2008 136.107 35.4101 135.313C34.6193 134.519 33.9928 133.576 33.5664 132.54C33.14 131.503 32.922 130.393 32.9248 129.272L33.1332 37.4985C33.1354 36.3775 33.3585 35.2679 33.7897 34.2331C34.2209 33.1983 34.8518 32.2586 35.6464 31.4677C36.4409 30.6768 37.3835 30.0503 38.4203 29.6238C39.4571 29.1974 40.5677 28.9795 41.6888 28.9825L101.212 29.1187C102.332 29.1212 103.442 29.3444 104.476 29.7757C105.511 30.2069 106.451 30.8378 107.241 31.6321C108.032 32.4265 108.659 33.3689 109.085 34.4054C109.512 35.442 109.73 36.5524 109.728 37.6733Z" fill="#E0E1FC"/>
<path d="M102.629 35.1114L37.4193 34.9634C37.0583 34.9626 36.765 35.2546 36.7641 35.6156L36.5412 133.876C36.5404 134.237 36.8324 134.531 37.1934 134.531L102.403 134.679C102.764 134.68 103.057 134.388 103.058 134.027L103.281 35.7666C103.282 35.4055 102.99 35.1122 102.629 35.1114Z" fill="#C6C8E5"/>
<path d="M104.042 34.791L38.8324 34.6431C38.4714 34.6423 38.178 34.9343 38.1772 35.2953L37.959 131.496C37.9581 131.857 38.2501 132.15 38.6112 132.151L103.821 132.299C104.182 132.3 104.475 132.008 104.476 131.647L104.694 35.4462C104.695 35.0852 104.403 34.7919 104.042 34.791Z" fill="white"/>
<path d="M44.9658 34.6572V38.6921L97.0963 39.0081L97.0637 34.2158L44.9658 34.6572Z" fill="#C6C8E5"/>
<path d="M46.1984 30.3286L96.4979 30.4427C96.6661 30.4431 96.8272 30.5103 96.9458 30.6294C97.0644 30.7486 97.1308 30.91 97.1304 31.0781L97.1155 37.6666L45.5481 37.5496L45.563 30.9611C45.5634 30.793 45.6306 30.6319 45.7497 30.5133C45.8689 30.3946 46.0303 30.3282 46.1984 30.3286Z" fill="#E0E1FC"/>
<path d="M71.4694 20.2071C70.0625 20.2036 68.6686 20.4772 67.3675 21.0125C66.0664 21.5477 64.8834 22.334 63.8862 23.3264C62.8889 24.3189 62.097 25.4981 61.5555 26.7967C61.0141 28.0952 60.7337 29.4877 60.7305 30.8946L82.1589 30.944C82.1623 29.5371 81.8885 28.1432 81.3531 26.8421C80.8176 25.541 80.0311 24.3581 79.0384 23.3611C78.0458 22.364 76.8664 21.5723 75.5677 21.0311C74.269 20.4899 72.8763 20.2099 71.4694 20.2071ZM71.4516 28.0843C71.002 28.0842 70.5626 27.9508 70.1889 27.7009C69.8152 27.4509 69.5241 27.0957 69.3524 26.6801C69.1808 26.2646 69.1364 25.8075 69.2247 25.3667C69.3131 24.9258 69.5303 24.5212 69.8488 24.2039C70.1673 23.8866 70.5728 23.671 71.014 23.5844C71.4552 23.4977 71.9121 23.544 72.327 23.7173C72.7418 23.8905 73.0959 24.183 73.3444 24.5577C73.5929 24.9323 73.7246 25.3723 73.7228 25.8219C73.7205 26.4227 73.4802 26.9982 73.0545 27.4222C72.6288 27.8462 72.0524 28.0843 71.4516 28.0843Z" fill="#E0E1FC"/>
<path d="M71.5555 21.6824C74.1402 21.6884 76.6356 22.6287 78.5816 24.3298C80.5275 26.031 81.7929 28.3784 82.1443 30.9391C82.1495 28.0975 81.0257 25.3702 79.0201 23.3572C77.0145 21.3442 74.2914 20.2103 71.4498 20.2051C68.6082 20.1999 65.8809 21.3237 63.8679 23.3293C61.8549 25.3349 60.7211 28.058 60.7158 30.8996H60.9271C61.2884 28.3394 62.5633 25.9962 64.5166 24.3022C66.4699 22.6082 68.9699 21.6777 71.5555 21.6824Z" fill="#F3F4FF"/>
<path d="M45.5568 32.163C45.5566 32.0635 45.5759 31.965 45.6137 31.873C45.6516 31.781 45.7071 31.6974 45.7773 31.6269C45.8474 31.5563 45.9308 31.5003 46.0226 31.462C46.1144 31.4237 46.2128 31.4039 46.3123 31.4036L96.366 31.5182C96.5551 31.5187 96.7371 31.5899 96.8764 31.7178C97.0156 31.8457 97.102 32.0211 97.1185 32.2094V31.1893C97.1187 30.9886 97.0393 30.796 96.8977 30.6538C96.756 30.5116 96.5637 30.4315 96.363 30.4309L46.3123 30.3174C46.1116 30.3171 45.919 30.3965 45.7768 30.5382C45.6346 30.6798 45.5544 30.8721 45.5539 31.0728L45.5391 37.5389L45.5568 32.163Z" fill="#F3F4FF"/>
<path d="M79.5069 48.8575L44.1797 48.7773L44.1747 50.9686L79.502 51.0487L79.5069 48.8575Z" fill="#3E54BC"/>
<path d="M70.3649 52.5409L44.1719 52.4814L44.1669 54.6727L70.3599 54.7321L70.3649 52.5409Z" fill="#3E54BC"/>
<path d="M59.3239 56.219L44.1631 56.1846L44.1581 58.3758L59.319 58.4102L59.3239 56.219Z" fill="#3E54BC"/>
<path d="M79.462 68.8136L44.1348 68.7334L44.1298 70.9246L79.4571 71.0048L79.462 68.8136Z" fill="#3E54BC"/>
<path d="M70.32 72.495L44.127 72.4355L44.122 74.6268L70.315 74.6862L70.32 72.495Z" fill="#3E54BC"/>
<path d="M59.279 76.174L44.1182 76.1396L44.1132 78.3309L59.274 78.3653L59.279 76.174Z" fill="#3E54BC"/>
<path d="M79.4181 88.7686L44.0908 88.6885L44.0858 90.8797L79.4131 90.9599L79.4181 88.7686Z" fill="#3E54BC"/>
<path d="M70.2751 92.4501L44.082 92.3906L44.0771 94.5819L70.2701 94.6413L70.2751 92.4501Z" fill="#3E54BC"/>
<path d="M59.2331 96.1281L44.0723 96.0938L44.0673 98.285L59.2281 98.3194L59.2331 96.1281Z" fill="#3E54BC"/>
<path d="M79.3722 108.722L44.0449 108.642L44.04 110.833L79.3672 110.913L79.3722 108.722Z" fill="#3E54BC"/>
<path d="M70.2292 112.405L44.0361 112.346L44.0312 114.537L70.2242 114.596L70.2292 112.405Z" fill="#3E54BC"/>
<path d="M59.1892 116.083L44.0283 116.049L44.0233 118.24L59.1842 118.274L59.1892 116.083Z" fill="#3E54BC"/>
<path d="M90.1911 91.6522L91.4887 88.9326L92.8583 91.6166L95.8455 92.0106L93.7155 94.1426L94.2635 97.106L91.5785 95.7384L88.9301 97.1762L89.4002 94.1989L87.2148 92.1242L90.1911 91.6522Z" fill="#3E54BC"/>
<path d="M89.7546 111.108L91.0522 108.389L92.4208 111.073L95.409 111.467L93.2789 113.599L93.827 116.561L91.142 115.194L88.4936 116.631L88.9636 113.655L86.7783 111.58L89.7546 111.108Z" fill="#C6C8E5"/>
<path d="M90.3181 71.659L91.6166 68.9395L92.9853 71.6244L95.9724 72.0184L93.8424 74.1494L94.3915 77.1129L91.7055 75.7452L89.057 77.183L89.5281 74.2067L87.3428 72.132L90.3181 71.659Z" fill="#3E54BC"/>
<path d="M90.1862 51.9549L91.4838 49.2354L92.8525 51.9203L95.8406 52.3143L93.7106 54.4453L94.2586 57.4088L91.5737 56.0411L88.9252 57.4789L89.3953 54.5026L87.21 52.4279L90.1862 51.9549Z" fill="#3E54BC"/>
</g>
<g opacity="0.25">
<path opacity="0.25" d="M71.3125 13.2549C94.5017 13.2549 114.829 25.5067 126.177 43.8888C116.401 22.7763 95.028 8.13086 70.2322 8.13086C39.631 8.13086 14.2417 30.4372 9.43262 59.6777C17.2249 32.8585 41.9792 13.2549 71.3125 13.2549Z" fill="#0C0D14"/>
</g>
</svg>
