<svg width="92" height="92" viewBox="0 0 92 92" fill="none" xmlns="http://www.w3.org/2000/svg">
<circle cx="46" cy="46" r="45" fill="white" fill-opacity="0.05" stroke="white" stroke-width="2"/>
<g>
<path d="M44.0554 49.8889L42.1108 47.9443L40.1663 49.8889L42.1108 51.8334L44.0554 49.8889Z" fill="white"/>
<path d="M40.1665 53.778L38.2219 51.8335L36.2774 53.778L38.2219 55.7226L40.1665 53.778Z" fill="white"/>
<path d="M57.0159 48.596L64.4732 41.1387L67.3901 44.0555L69.3346 42.111L49.8892 22.6655L47.9446 24.6101L50.8614 27.5269L43.4041 34.9842C42.9834 35.405 42.7104 35.9508 42.6263 36.5398L41.8679 41.8679L36.5399 42.6263C35.9508 42.7104 35.405 42.9833 34.9842 43.4041L27.5269 50.8614L24.6101 47.9446L22.6655 49.8891L42.111 69.3346L44.0555 67.39L41.1387 64.4732L48.596 57.0159C49.0168 56.5951 49.2897 56.0493 49.3739 55.4603L50.1322 50.1322L55.4603 49.3738C56.0493 49.2897 56.5952 49.0168 57.0159 48.596ZM62.5287 39.1941L55.7228 46.0001L46.0001 36.2773L52.806 29.4714L62.5287 39.1941ZM46.6515 55.0713L39.1942 62.5287L29.4715 52.806L36.9288 45.3486L44.2986 44.2986L45.0278 39.1941L52.806 46.9723L47.7015 47.7015L46.6515 55.0713Z" fill="white"/>
</g>
<defs>
<clipPath id="clip0">
<rect width="44" height="44" fill="white" transform="translate(46 14.8872) rotate(45)"/>
</clipPath>
</defs>
</svg>
