<svg width="24" height="24" viewBox="0 0 24 24" fill="none" xmlns="http://www.w3.org/2000/svg">
<path d="M12 1C5.92487 1 1 5.92487 1 12C1 18.0751 5.92487 23 12 23C18.0751 23 23 18.0751 23 12C23 5.92487 18.0751 1 12 1ZM11.8574 19.2878L7.51032 13.1386L11.8574 15.6838V19.2878ZM11.8574 14.7825L7.48091 12.2189L11.8574 10.3018V14.7825ZM11.8574 9.99382L7.62186 11.8489L11.8574 4.73268V9.99382ZM12.1395 4.73054L16.4345 11.8754L12.1395 9.99382V4.73054ZM12.1395 19.2878V15.6838L16.4866 13.1386L12.1395 19.2878ZM12.1395 14.7826V10.3019L16.5192 12.2204L12.1395 14.7826Z" fill="#008DE5"/>
</svg>
