<svg width="24" height="24" viewBox="0 0 24 24" fill="none" xmlns="http://www.w3.org/2000/svg">
<path d="M12 24C18.65 24 24 18.65 24 12C24 5.34996 18.65 0 12 0C5.34996 0 0 5.34996 0 12C0 18.65 5.34996 24 12 24Z" fill="#F2F4F8"/>
<path d="M14.3242 5.25H8.86353L8.41066 8.05494L13.3396 8.06142C15.7675 8.06142 16.4833 9.03959 16.4629 10.6591C16.4512 11.4882 16.1269 12.894 15.9866 13.3506C15.6127 14.5653 14.8443 15.9483 11.9635 15.9451L7.17186 15.9418L6.72046 18.75H12.1694C14.0919 18.75 14.9071 18.5006 15.7748 18.0601C17.6944 17.0722 18.8368 14.9734 19.2955 12.2332C19.9748 8.15211 19.1275 5.25 14.3242 5.25Z" fill="#008DE4"/>
<path d="M6.50721 10.5908C5.07557 10.5908 4.87106 11.6241 4.73666 12.2492C4.55843 13.0654 4.5 13.399 4.5 13.399H10.0921C11.5238 13.399 11.7283 12.3658 11.8627 11.7407C12.0409 10.9244 12.0993 10.5908 12.0993 10.5908H6.50721Z" fill="#008DE4"/>
</svg>
