<svg width="20" height="20" viewBox="0 0 20 20" fill="none" xmlns="http://www.w3.org/2000/svg">
<path fill-rule="evenodd" clip-rule="evenodd" d="M10 19.1666C15.0627 19.1666 19.1667 15.0626 19.1667 9.99992C19.1667 4.93724 15.0627 0.833252 10 0.833252C4.93737 0.833252 0.833374 4.93724 0.833374 9.99992C0.833374 15.0626 4.93737 19.1666 10 19.1666ZM13.2945 7.13729C13.6557 8.17179 13.3206 9.32154 12.4601 9.99992C13.3206 10.6783 13.6557 11.828 13.2945 12.8625C12.9332 13.897 11.9552 14.5881 10.8594 14.5833H10V15.7291H8.85421V14.5833H6.56254V5.41659H8.85421V4.27075H10V5.41659H10.8594C11.9552 5.41169 12.9332 6.1028 13.2945 7.13729ZM12.2917 7.99471C12.2917 7.20373 11.6504 6.56242 10.8594 6.56242H10V9.427H10.8594C11.6504 9.427 12.2917 8.78569 12.2917 7.99471ZM8.85421 6.56242H7.70837V9.427H8.85421V6.56242ZM7.70837 10.5728V13.4374H8.85421V10.5728H7.70837ZM10 13.4374H10.8594C11.6504 13.4374 12.2917 12.7961 12.2917 12.0051C12.2917 11.2141 11.6504 10.5728 10.8594 10.5728H10V13.4374ZM16.875 8.28117H18.0209V9.427H16.875V8.28117ZM18.0209 10.5728H16.875V11.7187H18.0209V10.5728Z" fill="white"/>
</svg>
