<svg width="24" height="24" viewBox="0 0 24 24" fill="none" xmlns="http://www.w3.org/2000/svg">
<path d="M22.5 21.4423L16.8375 15.7498C18.1912 14.1165 18.8637 12.0245 18.7153 9.90825C18.5669 7.79205 17.609 5.81434 16.0406 4.3859C14.4722 2.95747 12.4138 2.1881 10.293 2.2376C8.17215 2.2871 6.1519 3.15167 4.65184 4.65172C3.15179 6.15178 2.28722 8.17203 2.23772 10.2928C2.18822 12.4137 2.95759 14.4721 4.38603 16.0405C5.81446 17.6089 7.79217 18.5667 9.90838 18.7151C12.0246 18.8635 14.1166 18.191 15.75 16.8373L21.4425 22.4998L22.5 21.4423ZM3.74996 10.4998C3.74996 9.16481 4.14584 7.85977 4.88754 6.74974C5.62924 5.63971 6.68345 4.77454 7.91685 4.26365C9.15025 3.75276 10.5074 3.61909 11.8168 3.87954C13.1262 4.13999 14.3289 4.78286 15.2729 5.72687C16.2169 6.67087 16.8598 7.87361 17.1203 9.18298C17.3807 10.4924 17.247 11.8496 16.7361 13.083C16.2253 14.3164 15.3601 15.3706 14.2501 16.1123C13.14 16.854 11.835 17.2498 10.5 17.2498C8.70975 17.2498 6.99286 16.5387 5.72699 15.2728C4.46112 14.0069 3.74996 12.29 3.74996 10.4998Z" fill="#A3A9AF"/>
</svg>
