<svg width="24" height="24" viewBox="0 0 24 24" fill="none" xmlns="http://www.w3.org/2000/svg">
<path d="M21.5246 15.225L19.4996 13.2V9.75C19.4972 7.88758 18.8067 6.09172 17.5608 4.70739C16.3149 3.32306 14.6015 2.44789 12.7496 2.25V0.75H11.2496V2.25C9.40283 2.46053 7.69691 3.33944 6.45349 4.72102C5.21008 6.10259 4.51509 7.89135 4.49958 9.75V13.2L2.47458 15.225C2.40138 15.2911 2.34336 15.3722 2.30452 15.4628C2.26568 15.5535 2.24694 15.6514 2.24958 15.75V18C2.24296 18.1002 2.25781 18.2007 2.29316 18.2947C2.3285 18.3887 2.38352 18.474 2.45454 18.545C2.52555 18.6161 2.61091 18.6711 2.70491 18.7064C2.79891 18.7418 2.89938 18.7566 2.99958 18.75H8.24958C8.24958 19.7446 8.64467 20.6984 9.34793 21.4016C10.0512 22.1049 11.005 22.5 11.9996 22.5C12.9941 22.5 13.948 22.1049 14.6512 21.4016C15.3545 20.6984 15.7496 19.7446 15.7496 18.75H20.9996C21.0998 18.7566 21.2003 18.7418 21.2943 18.7064C21.3883 18.6711 21.4736 18.6161 21.5446 18.545C21.6156 18.474 21.6707 18.3887 21.706 18.2947C21.7414 18.2007 21.7562 18.1002 21.7496 18V15.75C21.7522 15.6514 21.7335 15.5535 21.6946 15.4628C21.6558 15.3722 21.5978 15.2911 21.5246 15.225ZM11.9996 21C11.4028 21 10.8306 20.7629 10.4086 20.341C9.98664 19.919 9.74958 19.3467 9.74958 18.75H14.2496C14.2496 19.3467 14.0125 19.919 13.5906 20.341C13.1686 20.7629 12.5963 21 11.9996 21Z" fill="#F2F4F8"/>
<path d="M19.5 9.5C21.433 9.5 23 7.933 23 6C23 4.067 21.433 2.5 19.5 2.5C17.567 2.5 16 4.067 16 6C16 7.933 17.567 9.5 19.5 9.5Z" fill="#DB1C27" stroke="#2C2CD1"/>
</svg>
