<svg width="22" height="22" viewBox="0 0 22 22" fill="none" xmlns="http://www.w3.org/2000/svg">
<path fill-rule="evenodd" clip-rule="evenodd" d="M11 22C17.0752 22 22 17.0752 22 11C22 4.92479 17.0752 0 11 0C4.92479 0 0 4.92479 0 11C0 17.0752 4.92479 22 11 22ZM14.9533 7.56485C15.3868 8.80624 14.9847 10.1859 13.9521 11C14.9847 11.8141 15.3868 13.1938 14.9533 14.4352C14.5197 15.6765 13.3462 16.5059 12.0312 16.5H11V17.875H9.625V16.5H6.875V5.5H9.625V4.125H11V5.5H12.0312C13.3462 5.49413 14.5197 6.32346 14.9533 7.56485ZM13.75 8.59375C13.75 7.64458 12.9804 6.875 12.0312 6.875H11V10.3125H12.0312C12.9804 10.3125 13.75 9.54292 13.75 8.59375ZM9.625 6.875H8.25V10.3125H9.625V6.875ZM8.25 11.6875V15.125H9.625V11.6875H8.25ZM11 15.125H12.0312C12.9804 15.125 13.75 14.3554 13.75 13.4062C13.75 12.4571 12.9804 11.6875 12.0312 11.6875H11V15.125ZM19.25 8.9375H20.625V10.3125H19.25V8.9375ZM20.625 11.6875H19.25V13.0625H20.625V11.6875Z" fill="#5DBD61"/>
</svg>
