<svg width="20" height="20" viewBox="0 0 20 20" fill="none" xmlns="http://www.w3.org/2000/svg">
<path d="M10 0.833252C4.93743 0.833252 0.833374 4.93731 0.833374 9.99992C0.833374 15.0625 4.93743 19.1666 10 19.1666C15.0626 19.1666 19.1667 15.0625 19.1667 9.99992C19.1667 4.93731 15.0626 0.833252 10 0.833252ZM9.8812 16.0731L6.25864 10.9488L9.8812 13.0697V16.0731ZM9.8812 12.3187L6.23413 10.1823L9.8812 8.58479V12.3187ZM9.8812 8.3281L6.35159 9.87404L9.8812 3.94382V8.3281ZM10.1163 3.94204L13.6955 9.89605L10.1163 8.3281V3.94204ZM10.1163 16.0731V13.0697L13.7389 10.9488L10.1163 16.0731ZM10.1163 12.3187V8.58487L13.766 10.1836L10.1163 12.3187Z" fill="white"/>
</svg>
