<svg width="24" height="24" viewBox="0 0 24 24" fill="none" xmlns="http://www.w3.org/2000/svg">
<circle cx="12" cy="12" r="12" fill="#00CD8D"/>
<path d="M16.2361 17.6982C13.9815 18.5559 11.4334 18.0112 9.72671 16.3065C9.08918 15.6553 8.59923 14.8744 8.29016 14.017H14.5751C14.823 14.017 15.024 13.816 15.024 13.5681C15.024 13.3202 14.823 13.1192 14.5751 13.1192H8.06567C7.93859 12.453 7.92342 11.7702 8.02078 11.0991H15.2484C15.4964 11.0991 15.6973 10.8981 15.6973 10.6501C15.6973 10.4022 15.4964 10.2012 15.2484 10.2012H8.22283C9.19938 6.9868 12.5968 5.17264 15.8112 6.14919C15.9546 6.19276 16.0963 6.24156 16.2361 6.29561C16.4654 6.38807 16.7263 6.2777 16.8197 6.0487C16.9121 5.81937 16.8017 5.55845 16.5728 5.46509C12.9484 4.07962 8.88713 5.89464 7.5017 9.51896C7.41629 9.74246 7.3423 9.97016 7.28009 10.2012H5.59663C5.34869 10.2012 5.14771 10.4022 5.14771 10.6501C5.14771 10.898 5.34869 11.099 5.59663 11.099H7.12298C7.02949 11.7698 7.03709 12.4507 7.1454 13.1191H5.59663C5.34869 13.1191 5.14771 13.3201 5.14771 13.5681C5.14771 13.816 5.34869 14.017 5.59663 14.017H7.34742C7.6864 15.1169 8.28719 16.1182 9.09821 16.935C10.4128 18.2534 12.197 18.9961 14.0588 19C14.9183 18.996 15.7701 18.8363 16.5727 18.5286C16.8017 18.4353 16.9121 18.1743 16.8196 17.945C16.7263 17.7161 16.4654 17.6057 16.2361 17.6982Z" fill="white"/>
</svg>
