<svg width="12" height="12" viewBox="0 0 12 12" fill="none" xmlns="http://www.w3.org/2000/svg">
<path d="M9.375 4.125L8.84625 4.65375L9.81375 5.625H6.375V2.18625L7.34625 3.15375L7.875 2.625L6 0.75L4.125 2.625L4.65375 3.15375L5.625 2.18625V5.625H2.18625L3.15375 4.65375L2.625 4.125L0.75 6L2.625 7.875L3.15375 7.34625L2.18625 6.375H5.625V9.81375L4.65375 8.84625L4.125 9.375L6 11.25L7.875 9.375L7.34625 8.84625L6.375 9.81375V6.375H9.81375L8.84625 7.34625L9.375 7.875L11.25 6L9.375 4.125Z" fill="#6A7076"/>
</svg>
