<svg width="22" height="22" viewBox="0 0 22 22" fill="none" xmlns="http://www.w3.org/2000/svg">
<path fill-rule="evenodd" clip-rule="evenodd" d="M22 11C22 17.0752 17.0752 22 11 22C4.92479 22 0 17.0752 0 11C0 4.92479 4.92479 0 11 0C17.0752 0 22 4.92479 22 11ZM19.25 8.9375H20.625V10.3125H19.25V8.9375ZM20.625 11.6875H19.25V13.0625H20.625V11.6875ZM10.3125 9.28125C10.3125 7.95224 9.23526 6.875 7.90625 6.875H4.8125V15.125H6.1875V11.6875H6.50725L9.05096 15.5065L10.195 14.7435L8.1414 11.6635C9.36971 11.5452 10.3083 10.5153 10.3125 9.28125ZM7.90625 10.3125H6.1875V8.25H7.90625C8.47575 8.25 8.9375 8.71175 8.9375 9.28125C8.9375 9.85075 8.47575 10.3125 7.90625 10.3125ZM17.1875 8.25H14.0938C13.5242 8.25 13.0625 8.71175 13.0625 9.28125C13.0625 9.85075 13.5242 10.3125 14.0938 10.3125H14.7812C16.0421 10.31 17.09 11.2833 17.1806 12.541C17.2711 13.7985 16.3733 14.9118 15.125 15.0899V16.5H13.75V15.125H11.6875V13.75H14.7812C15.3508 13.75 15.8125 13.2883 15.8125 12.7188C15.8125 12.1492 15.3508 11.6875 14.7812 11.6875H14.0938C12.8329 11.69 11.785 10.7167 11.6944 9.459C11.6039 8.20149 12.5017 7.08817 13.75 6.91008V5.5H15.125V6.875H17.1875V8.25Z" fill="#EBB300"/>
</svg>
