<svg width="24" height="24" viewBox="0 0 24 24" fill="none" xmlns="http://www.w3.org/2000/svg">
<path d="M12 24C18.65 24 24 18.65 24 12C24 5.34996 18.65 0 12 0C5.34996 0 0 5.34996 0 12C0 18.65 5.34996 24 12 24Z" fill="#F2F4F8"/>
<path d="M13.048 18.75C12.1006 18.75 11.4092 18.518 10.9736 18.0539C10.57 17.6611 10.3359 17.1218 10.3222 16.5539C10.3173 16.3814 10.3566 16.2105 10.4363 16.0581C10.5106 15.9265 10.618 15.8172 10.7474 15.7415C10.8979 15.6652 11.0637 15.6255 11.2318 15.6255C11.4 15.6255 11.5658 15.6652 11.7162 15.7415C11.8454 15.8169 11.9523 15.9263 12.0256 16.0581C12.1076 16.2098 12.1484 16.3809 12.1438 16.5539C12.1522 16.7605 12.0939 16.9642 11.9778 17.134C11.881 17.2725 11.7427 17.3755 11.5835 17.4274C11.7392 17.6289 11.9594 17.7685 12.2059 17.8219C12.4816 17.9033 12.7672 17.9452 13.0543 17.9463C13.4344 17.9496 13.8067 17.8364 14.1227 17.6214C14.4504 17.386 14.6948 17.0495 14.8196 16.6617C14.9779 16.2002 15.0552 15.714 15.0478 15.2252C15.0606 14.7157 14.9761 14.2086 14.7989 13.7318C14.6656 13.3504 14.4127 13.0243 14.0791 12.8036C13.769 12.6041 13.409 12.4994 13.042 12.502C12.7223 12.5296 12.4139 12.636 12.1438 12.8121L11.4777 13.1517V12.8121L14.4711 8.72881H10.3222V12.9661C10.3105 13.2719 10.3901 13.5741 10.5504 13.833C10.628 13.9459 10.7329 14.0364 10.8551 14.0959C10.9772 14.1554 11.1123 14.1818 11.2474 14.1726C11.497 14.1675 11.7384 14.081 11.9361 13.9258C12.1601 13.7589 12.355 13.555 12.5128 13.3225C12.527 13.2818 12.5532 13.2465 12.5878 13.2214C12.6156 13.1969 12.6511 13.1835 12.6878 13.1834C12.7599 13.1901 12.8281 13.2196 12.8828 13.2677C12.9522 13.3465 12.9899 13.4489 12.9886 13.5546C12.9806 13.6256 12.9681 13.6961 12.9513 13.7655C12.8039 14.1282 12.5568 14.4401 12.2397 14.6638C11.9451 14.8665 11.5972 14.9739 11.2416 14.9721C10.3433 14.9721 9.72102 14.7921 9.37471 14.4321C9.1967 14.2331 9.05951 14.0001 8.97117 13.7465C8.88284 13.493 8.84512 13.2241 8.86023 12.9555V8.72881H6.75V7.94152H8.87007V6.14644L8.38468 5.65254V5.25H9.79317L10.3222 5.52847V7.94152L15.8028 7.92458L16.3485 8.48144L12.9879 11.9153C13.1909 11.8322 13.4047 11.7796 13.6226 11.7592C14.0539 11.7784 14.4746 11.9005 14.8509 12.1157C15.2866 12.3263 15.6538 12.6595 15.9089 13.0758C16.1375 13.4282 16.2994 13.8209 16.3861 14.2338C16.4573 14.5595 16.4956 14.8917 16.5002 15.2253C16.5024 15.862 16.3604 16.4906 16.0853 17.0625C15.8244 17.6163 15.3852 18.0629 14.8406 18.3282C14.2831 18.6076 13.6695 18.7519 13.048 18.75Z" fill="#2C7DF7"/>
</svg>
