<svg width="24" height="24" viewBox="0 0 24 24" fill="none" xmlns="http://www.w3.org/2000/svg">
<path fill-rule="evenodd" clip-rule="evenodd" d="M12 23C18.0751 23 23 18.0751 23 12C23 5.92487 18.0751 1 12 1C5.92487 1 1 5.92487 1 12C1 18.0751 5.92487 23 12 23ZM12 7.0811C13.602 7.0811 13.7919 7.0872 14.4245 7.1161C14.805 7.12063 15.1818 7.19051 15.5386 7.3227C15.7974 7.42254 16.0324 7.57544 16.2285 7.77155C16.4246 7.96766 16.5775 8.20265 16.6774 8.4614C16.8095 8.8182 16.8794 9.19507 16.884 9.57555C16.9128 10.2082 16.919 10.398 16.919 12C16.919 13.6021 16.9129 13.7919 16.884 14.4246C16.8794 14.805 16.8095 15.1819 16.6774 15.5387C16.5775 15.7975 16.4246 16.0324 16.2285 16.2286C16.0324 16.4247 15.7974 16.5776 15.5386 16.6774C15.1818 16.8096 14.805 16.8795 14.4245 16.884C13.7919 16.9128 13.6022 16.919 12 16.919C10.3978 16.919 10.2081 16.9129 9.5755 16.884C9.19502 16.8795 8.81815 16.8096 8.46135 16.6774C8.2026 16.5776 7.96761 16.4247 7.7715 16.2286C7.57539 16.0324 7.42249 15.7975 7.32265 15.5387C7.19046 15.1819 7.12058 14.805 7.11605 14.4246C7.0872 13.7919 7.08105 13.6021 7.08105 12C7.08105 10.398 7.08715 10.2082 7.11605 9.57555C7.12058 9.19507 7.19046 8.8182 7.32265 8.4614C7.42249 8.20264 7.57538 7.96764 7.77149 7.77152C7.9676 7.5754 8.20259 7.4225 8.46135 7.32265C8.81815 7.19046 9.19502 7.12058 9.5755 7.11605C10.2081 7.0872 10.398 7.08105 12 7.08105V7.0811ZM12 6C10.3705 6 10.1661 6.0069 9.5262 6.0361C9.02853 6.04609 8.53615 6.14039 8.07 6.315C7.67137 6.46916 7.30934 6.7049 7.00712 7.00712C6.7049 7.30934 6.46916 7.67137 6.315 8.07C6.14037 8.53623 6.04606 9.02869 6.0361 9.52645C6.0069 10.1662 6 10.3705 6 12C6 13.6295 6.0069 13.8338 6.0361 14.4738C6.04607 14.9716 6.14037 15.464 6.315 15.9303C6.46916 16.3289 6.7049 16.6909 7.00712 16.9931C7.30934 17.2953 7.67137 17.5311 8.07 17.6852C8.53623 17.8599 9.02869 17.9542 9.52645 17.9641C10.1662 17.9931 10.3705 18 12 18C13.6295 18 13.8338 17.9931 14.4738 17.9639C14.9716 17.9539 15.464 17.8596 15.9303 17.685C16.3289 17.5308 16.6909 17.2951 16.9931 16.9929C17.2953 16.6907 17.5311 16.3286 17.6852 15.93C17.8599 15.4638 17.9542 14.9713 17.9641 14.4735C17.9931 13.8338 18 13.6295 18 12C18 10.3705 17.9931 10.1661 17.9639 9.5262C17.9539 9.02853 17.8596 8.53615 17.685 8.07C17.5308 7.67141 17.2951 7.30943 16.9928 7.00726C16.6906 6.70508 16.3286 6.46938 15.93 6.31525C15.4638 6.14062 14.9713 6.04632 14.4735 6.03635C13.8338 6.0069 13.6295 6 12 6ZM15.923 8.797C15.923 9.19464 15.6006 9.517 15.203 9.517C14.8054 9.517 14.483 9.19464 14.483 8.797C14.483 8.39935 14.8054 8.077 15.203 8.077C15.6006 8.077 15.923 8.39935 15.923 8.797ZM10.2882 9.43816C10.7949 9.0996 11.3906 8.9189 12 8.9189C12.8172 8.9189 13.6008 9.24352 14.1787 9.82133C14.7565 10.3992 15.0811 11.1828 15.0811 12C15.0811 12.6094 14.9004 13.2051 14.5618 13.7118C14.2233 14.2185 13.7421 14.6134 13.1791 14.8466C12.6161 15.0798 11.9966 15.1408 11.3989 15.0219C10.8012 14.903 10.2522 14.6096 9.82133 14.1787C9.39043 13.7478 9.09699 13.1988 8.9781 12.6011C8.85922 12.0034 8.92023 11.3839 9.15344 10.8209C9.38664 10.2579 9.78155 9.77671 10.2882 9.43816ZM10.8889 13.6629C11.2178 13.8827 11.6044 14 12 14C12.5304 14 13.0391 13.7893 13.4142 13.4142C13.7893 13.0391 14 12.5304 14 12C14 11.6044 13.8827 11.2178 13.6629 10.8889C13.4432 10.56 13.1308 10.3036 12.7654 10.1522C12.3999 10.0009 11.9978 9.96126 11.6098 10.0384C11.2219 10.1156 10.8655 10.3061 10.5858 10.5858C10.3061 10.8655 10.1156 11.2219 10.0384 11.6098C9.96126 11.9978 10.0009 12.3999 10.1522 12.7654C10.3036 13.1308 10.56 13.4432 10.8889 13.6629Z" fill="white"/>
</svg>
