<svg width="24" height="24" viewBox="0 0 24 24" fill="none" xmlns="http://www.w3.org/2000/svg">
<path fill-rule="evenodd" clip-rule="evenodd" d="M12 23C18.0751 23 23 18.0751 23 12C23 5.92487 18.0751 1 12 1C5.92487 1 1 5.92487 1 12C1 18.0751 5.92487 23 12 23ZM17.3591 8.61014C17.5448 8.78707 17.6786 9.00736 17.7468 9.24898C17.9213 10.1564 18.0059 11.0775 17.9997 12C18.0059 12.9225 17.9213 13.8436 17.7468 14.751C17.6786 14.9926 17.5448 15.2129 17.3591 15.3899C17.1733 15.5668 16.942 15.6941 16.6883 15.7592C15.7541 16 12 16 12 16C12 16 8.24592 16 7.31168 15.7592C7.058 15.6941 6.8267 15.5668 6.64093 15.3899C6.45517 15.2129 6.32145 14.9926 6.25317 14.751C6.07872 13.8436 5.99407 12.9225 6.00032 12C5.99407 11.0775 6.07872 10.1564 6.25317 9.24898C6.32145 9.00736 6.45517 8.78707 6.64093 8.61014C6.8267 8.43321 7.058 8.30585 7.31168 8.24082C8.24592 8 12 8 12 8C12 8 15.7541 8 16.6883 8.24082C16.942 8.30585 17.1733 8.43321 17.3591 8.61014ZM13.9156 12L10.8001 10.2857V13.7143L13.9156 12Z" fill="white"/>
</svg>
