<svg width="16" height="16" viewBox="0 0 16 16" fill="none" xmlns="http://www.w3.org/2000/svg">
<path d="M15 9.99975C14.9993 8.66372 14.6122 7.35641 13.8854 6.23535L13.1628 6.958C13.7107 7.87804 13.9999 8.92895 14 9.99975H15Z" fill="#111629"/>
<path d="M14 4.707L13.293 4L9.0095 8.28345C8.70467 8.09978 8.35589 8.00185 8 8C7.60444 8 7.21776 8.1173 6.88886 8.33706C6.55996 8.55682 6.30362 8.86918 6.15224 9.23463C6.00087 9.60009 5.96126 10.0022 6.03843 10.3902C6.1156 10.7781 6.30608 11.1345 6.58579 11.4142C6.86549 11.6939 7.22186 11.8844 7.60982 11.9616C7.99778 12.0387 8.39992 11.9991 8.76537 11.8478C9.13082 11.6964 9.44318 11.44 9.66294 11.1111C9.8827 10.7822 10 10.3956 10 10C9.99813 9.6441 9.9002 9.29531 9.71655 8.99045L14 4.707ZM8 11C7.80222 11 7.60888 10.9414 7.44443 10.8315C7.27998 10.7216 7.15181 10.5654 7.07612 10.3827C7.00043 10.2 6.98063 9.99889 7.01922 9.80491C7.0578 9.61093 7.15304 9.43275 7.29289 9.29289C7.43275 9.15304 7.61093 9.0578 7.80491 9.01921C7.99889 8.98063 8.19996 9.00043 8.38269 9.07612C8.56541 9.15181 8.72159 9.27998 8.83147 9.44443C8.94135 9.60888 9 9.80222 9 10C8.9997 10.2651 8.89424 10.5193 8.70677 10.7068C8.5193 10.8942 8.26512 10.9997 8 11Z" fill="#111629"/>
<path d="M8.00001 4.00001C9.07072 4.00051 10.1215 4.28971 11.0417 4.83716L11.7685 4.11036C10.7119 3.43101 9.49185 3.04896 8.23655 3.0044C6.98125 2.95984 5.73715 3.25443 4.63512 3.85717C3.5331 4.45991 2.61388 5.34851 1.97419 6.42951C1.33449 7.5105 0.997967 8.74393 1.00001 10H2.00001C2.00182 8.40927 2.63455 6.8842 3.75937 5.75937C4.8842 4.63455 6.40927 4.00183 8.00001 4.00001Z" fill="#111629"/>
</svg>
