<svg width="24" height="24" viewBox="0 0 24 24" fill="none" xmlns="http://www.w3.org/2000/svg">
<path fill-rule="evenodd" clip-rule="evenodd" d="M12 23C18.0752 23 23 18.0752 23 12C23 5.92479 18.0752 1 12 1C5.92479 1 1 5.92479 1 12C1 18.0752 5.92479 23 12 23ZM15.9533 8.56485C16.3868 9.80624 15.9847 11.1859 14.9521 12C15.9847 12.8141 16.3868 14.1938 15.9533 15.4352C15.5197 16.6765 14.3462 17.5059 13.0312 17.5H12V18.875H10.625V17.5H7.875V6.5H10.625V5.125H12V6.5H13.0312C14.3462 6.49413 15.5197 7.32346 15.9533 8.56485ZM14.75 9.59375C14.75 8.64458 13.9804 7.875 13.0312 7.875H12V11.3125H13.0312C13.9804 11.3125 14.75 10.5429 14.75 9.59375ZM10.625 7.875H9.25V11.3125H10.625V7.875ZM9.25 12.6875V16.125H10.625V12.6875H9.25ZM12 16.125H13.0312C13.9804 16.125 14.75 15.3554 14.75 14.4062C14.75 13.4571 13.9804 12.6875 13.0312 12.6875H12V16.125ZM20.25 9.9375H21.625V11.3125H20.25V9.9375ZM21.625 12.6875H20.25V14.0625H21.625V12.6875Z" fill="#5DBD61"/>
</svg>
