<svg width="24" height="24" viewBox="0 0 24 24" fill="none" xmlns="http://www.w3.org/2000/svg">
<path fill-rule="evenodd" clip-rule="evenodd" d="M23 12C23 18.0751 18.0751 23 12 23C5.92487 23 1 18.0751 1 12C1 5.92487 5.92487 1 12 1C18.0751 1 23 5.92487 23 12ZM18.5725 17.4209V12.8859C18.5725 10.4573 17.2756 9.32711 15.5457 9.32711C14.1486 9.32711 13.5255 10.0958 13.176 10.6334V9.5128H10.5463C10.5816 10.2546 10.5463 17.4207 10.5463 17.4207H13.1758V13.0041C13.1758 12.767 13.1937 12.5323 13.2629 12.3633C13.4535 11.8903 13.8851 11.4019 14.6116 11.4019C15.5636 11.4019 15.9432 12.1274 15.9432 13.1898V17.4209H18.5725ZM13.176 10.6334V10.6593H13.1586C13.1611 10.6548 13.1644 10.6503 13.1677 10.6457C13.1706 10.6417 13.1736 10.6376 13.176 10.6334ZM6.30776 7.06703C6.30776 6.29132 6.89621 5.7009 7.79566 5.7009C8.6953 5.7009 9.24806 6.29132 9.26551 7.06703C9.26551 7.82627 8.6953 8.43374 7.77821 8.43374H7.76115C6.87915 8.43374 6.30776 7.82627 6.30776 7.06703ZM9.09257 17.4209H6.46404V9.5128H9.09257V17.4209Z" fill="white"/>
</svg>
