<svg width="12" height="12" viewBox="0 0 12 12" fill="none" xmlns="http://www.w3.org/2000/svg">
<path d="M6 1.5C6.89002 1.5 7.76005 1.76392 8.50007 2.25839C9.24009 2.75285 9.81686 3.45566 10.1575 4.27792C10.4981 5.10019 10.5872 6.00499 10.4135 6.87791C10.2399 7.75082 9.81132 8.55264 9.18198 9.18198C8.55265 9.81132 7.75082 10.2399 6.87791 10.4135C6.00499 10.5872 5.10019 10.4981 4.27793 10.1575C3.45566 9.81686 2.75286 9.24009 2.25839 8.50007C1.76392 7.76005 1.5 6.89002 1.5 6C1.5 4.80653 1.97411 3.66193 2.81802 2.81802C3.66194 1.97411 4.80653 1.5 6 1.5ZM6 0.75C4.96165 0.75 3.94662 1.05791 3.08326 1.63478C2.2199 2.21166 1.54699 3.0316 1.14963 3.99091C0.752275 4.95022 0.648307 6.00582 0.85088 7.02422C1.05345 8.04262 1.55347 8.97808 2.28769 9.71231C3.02192 10.4465 3.95738 10.9466 4.97578 11.1491C5.99418 11.3517 7.04978 11.2477 8.00909 10.8504C8.9684 10.453 9.78834 9.7801 10.3652 8.91674C10.9421 8.05339 11.25 7.03835 11.25 6C11.25 4.60761 10.6969 3.27226 9.71231 2.28769C8.72775 1.30312 7.39239 0.75 6 0.75Z" fill="#111629"/>
<path d="M4.5 8.62469C4.43269 8.62467 4.36663 8.60654 4.30875 8.57219C4.25277 8.539 4.20639 8.49182 4.17418 8.43527C4.14196 8.37873 4.12501 8.31477 4.125 8.24969V3.74969C4.12501 3.68461 4.14196 3.62066 4.17418 3.56412C4.20639 3.50757 4.25277 3.46038 4.30875 3.42719C4.36576 3.39428 4.43042 3.37695 4.49625 3.37695C4.56208 3.37695 4.62674 3.39428 4.68375 3.42719L8.80875 5.67719C8.86828 5.70933 8.91801 5.75696 8.95267 5.81506C8.98733 5.87315 9.00563 5.93954 9.00563 6.00719C9.00563 6.07484 8.98733 6.14123 8.95267 6.19933C8.91801 6.25742 8.86828 6.30506 8.80875 6.33719L4.68375 8.58719C4.62666 8.61505 4.56344 8.62796 4.5 8.62469ZM4.875 4.37969V7.61969L7.84125 5.99969L4.875 4.37969Z" fill="#111629"/>
</svg>
