<svg width="18" height="12" viewBox="0 0 18 12" fill="none" xmlns="http://www.w3.org/2000/svg">
<path d="M16.6519 0H1.34807C0.603527 0 0 0.614112 0 1.37171V10.6283C0 11.3858 0.603527 12 1.34807 12H16.6519C17.3964 12 18 11.3859 18 10.6283V1.37171C18 0.614112 17.3965 0 16.6519 0Z" fill="#F5F5F5"/>
<path d="M0.0739746 0.923083H17.9257C17.743 0.385882 17.2418 0 16.6518 0H1.3479C0.757834 0 0.256682 0.385882 0.0739746 0.923083Z" fill="#FF4B55"/>
<path d="M18 3.69238H0V4.61543H18V3.69238Z" fill="#FF4B55"/>
<path d="M18 1.84619H0V2.76924H18V1.84619Z" fill="#FF4B55"/>
<path d="M0 6.14585C0 6.32025 0.138973 6.46166 0.310359 6.46166H18V5.53857H0V6.14585Z" fill="#FF4B55"/>
<path d="M18 9.23096H0V10.154H18V9.23096Z" fill="#FF4B55"/>
<path d="M17.9257 11.0771H0.0739746C0.256682 11.6143 0.757869 12.0002 1.3479 12.0002H16.6518C17.2418 12.0002 17.743 11.6143 17.9257 11.0771Z" fill="#FF4B55"/>
<path d="M18 7.38477H0V8.30781H18V7.38477Z" fill="#FF4B55"/>
<path d="M0.310359 6.46154H8.06899C8.24038 6.46154 8.37935 6.32013 8.37935 6.14574V0.315803C8.37935 0.141374 8.24038 0 8.06899 0H1.34807C0.603527 3.57728e-05 0 0.614148 0 1.37175V6.14574C0 6.32017 0.138973 6.46154 0.310359 6.46154Z" fill="#41479B"/>
<path d="M0.871395 0.724949L0.940091 0.934578L1.15725 0.936259C1.18538 0.93651 1.19701 0.972998 1.17441 0.98999L0.999716 1.12124L1.06525 1.33191C1.07375 1.35917 1.0432 1.38177 1.02032 1.3651L0.843657 1.23664L0.666997 1.36514C0.64411 1.38181 0.61363 1.3592 0.622067 1.33194L0.687599 1.12128L0.512907 0.990026C0.490302 0.972998 0.501938 0.93651 0.530063 0.936295L0.747224 0.934614L0.815919 0.724985C0.824778 0.697797 0.862466 0.697797 0.871395 0.724949Z" fill="#F5F5F5"/>
<path d="M0.871395 1.8216L0.940091 2.03123L1.15725 2.03291C1.18538 2.03316 1.19701 2.06962 1.17441 2.08664L0.999716 2.21793L1.06525 2.4286C1.07375 2.45585 1.0432 2.47846 1.02032 2.46179L0.843657 2.33333L0.666997 2.46183C0.64411 2.47846 0.61363 2.45589 0.622067 2.42863L0.687599 2.21796L0.512907 2.08668C0.490302 2.06965 0.501938 2.0332 0.530063 2.03295L0.747224 2.03127L0.815919 1.82164C0.824778 1.79449 0.862466 1.79449 0.871395 1.8216Z" fill="#F5F5F5"/>
<path d="M0.871395 2.91782L0.940091 3.12745L1.15725 3.12913C1.18538 3.12938 1.19701 3.16583 1.17441 3.18286L0.999716 3.31415L1.06525 3.52481C1.07375 3.55207 1.0432 3.57468 1.02032 3.55801L0.843657 3.42955L0.666997 3.55805C0.64411 3.57468 0.61363 3.55214 0.622067 3.52485L0.687599 3.31418L0.512907 3.1829C0.490302 3.16587 0.501938 3.12942 0.530063 3.12917L0.747224 3.12748L0.815919 2.91786C0.824778 2.89067 0.862466 2.89067 0.871395 2.91782Z" fill="#F5F5F5"/>
<path d="M0.871395 4.0145L0.940091 4.22413L1.15725 4.22581C1.18538 4.22606 1.19701 4.26255 1.17441 4.27954L0.999716 4.41083L1.06525 4.62149C1.07375 4.64875 1.0432 4.67136 1.02032 4.65469L0.843657 4.52623L0.666997 4.65473C0.64411 4.67136 0.61363 4.64879 0.622067 4.62153L0.687599 4.41086L0.512907 4.27958C0.490302 4.26262 0.501938 4.2261 0.530063 4.22585L0.747224 4.22416L0.815919 4.01454C0.824778 3.98735 0.862466 3.98735 0.871395 4.0145Z" fill="#F5F5F5"/>
<path d="M0.871395 5.11115L0.940091 5.32078L1.15725 5.32246C1.18538 5.32271 1.19701 5.35917 1.17441 5.37619L0.999716 5.50748L1.06525 5.71815C1.07375 5.7454 1.0432 5.76801 1.02032 5.75134L0.843657 5.62288L0.666997 5.75138C0.64411 5.76801 0.61363 5.74544 0.622067 5.71818L0.687599 5.50752L0.512907 5.37623C0.490302 5.3592 0.501938 5.32275 0.530063 5.3225L0.747224 5.32082L0.815919 5.11119C0.824778 5.08404 0.862466 5.08404 0.871395 5.11115Z" fill="#F5F5F5"/>
<path d="M1.70782 1.26252L1.77652 1.47215L1.99368 1.47383C2.0218 1.47409 2.03344 1.51057 2.01083 1.52757L1.83614 1.65885L1.90167 1.86952C1.91018 1.89678 1.87963 1.91939 1.85674 1.90272L1.68008 1.77422L1.50342 1.90272C1.48054 1.91935 1.45006 1.89678 1.45849 1.86952L1.52402 1.65885L1.34933 1.52757C1.32673 1.51054 1.33836 1.47409 1.36649 1.47383L1.58365 1.47215L1.65234 1.26252C1.6612 1.23541 1.69893 1.23541 1.70782 1.26252Z" fill="#F5F5F5"/>
<path d="M1.70782 2.35923L1.77652 2.56886L1.99368 2.57054C2.0218 2.57079 2.03344 2.60728 2.01083 2.62427L1.83614 2.75556L1.90167 2.96622C1.91018 2.99348 1.87963 3.01609 1.85674 2.99942L1.68008 2.87093L1.50342 2.99942C1.48054 3.01606 1.45006 2.99352 1.45849 2.96622L1.52402 2.75556L1.34933 2.62427C1.32673 2.60732 1.33836 2.57079 1.36649 2.57054L1.58365 2.56886L1.65234 2.35923C1.6612 2.33208 1.69893 2.33208 1.70782 2.35923Z" fill="#F5F5F5"/>
<path d="M1.70782 3.45591L1.77652 3.66554L1.99368 3.66722C2.0218 3.66747 2.03344 3.70392 2.01083 3.72095L1.83614 3.85224L1.90167 4.0629C1.91018 4.09016 1.87963 4.11277 1.85674 4.0961L1.68008 3.96761L1.50342 4.0961C1.48054 4.11274 1.45006 4.09016 1.45849 4.0629L1.52402 3.85224L1.34933 3.72095C1.32673 3.70392 1.33836 3.66747 1.36649 3.66722L1.58365 3.66554L1.65234 3.45591C1.6612 3.42876 1.69893 3.42876 1.70782 3.45591Z" fill="#F5F5F5"/>
<path d="M1.70782 4.55256L1.77652 4.76219L1.99368 4.76387C2.0218 4.76412 2.03344 4.80058 2.01083 4.8176L1.83614 4.94889L1.90167 5.15956C1.91018 5.18682 1.87963 5.20942 1.85674 5.19275L1.68008 5.06426L1.50342 5.19275C1.48054 5.20942 1.45006 5.18682 1.45849 5.15956L1.52402 4.94889L1.34933 4.8176C1.32673 4.80058 1.33836 4.76412 1.36649 4.76387L1.58365 4.76219L1.65234 4.55256C1.6612 4.52545 1.69893 4.52545 1.70782 4.55256Z" fill="#F5F5F5"/>
<path d="M2.54425 0.724954L2.61294 0.934582L2.8301 0.936264C2.85823 0.936514 2.86986 0.973002 2.84726 0.989994L2.67257 1.12124L2.7381 1.33191C2.74661 1.35917 2.71606 1.38178 2.69317 1.36511L2.51651 1.23661L2.33985 1.36511C2.31696 1.38178 2.28648 1.35917 2.29492 1.33191L2.36045 1.12124L2.18576 0.989994C2.16315 0.972967 2.17479 0.936478 2.20291 0.936264L2.42008 0.934582L2.48877 0.724954C2.49763 0.697802 2.53535 0.697802 2.54425 0.724954Z" fill="#F5F5F5"/>
<path d="M2.54425 1.82112L2.61294 2.03075L2.8301 2.03243C2.85823 2.03268 2.86986 2.06913 2.84726 2.08616L2.67257 2.21745L2.7381 2.42811C2.74661 2.45537 2.71606 2.47798 2.69317 2.46131L2.51651 2.33281L2.33985 2.46131C2.31696 2.47794 2.28648 2.45537 2.29492 2.42811L2.36045 2.21745L2.18576 2.08616C2.16315 2.06913 2.17479 2.03268 2.20291 2.03243L2.42008 2.03075L2.48877 1.82112C2.49763 1.794 2.53535 1.794 2.54425 1.82112Z" fill="#F5F5F5"/>
<path d="M2.54425 2.91782L2.61294 3.12745L2.8301 3.12914C2.85823 3.12939 2.86986 3.16584 2.84726 3.18287L2.67257 3.31415L2.7381 3.52482C2.74661 3.55208 2.71606 3.57469 2.69317 3.55802L2.51651 3.42952L2.33985 3.55802C2.31696 3.57465 2.28648 3.55211 2.29492 3.52482L2.36045 3.31415L2.18576 3.18287C2.16315 3.16584 2.17479 3.12939 2.20291 3.12914L2.42008 3.12745L2.48877 2.91782C2.49763 2.89067 2.53535 2.89067 2.54425 2.91782Z" fill="#F5F5F5"/>
<path d="M2.54425 4.0145L2.61294 4.22413L2.8301 4.22581C2.85823 4.22606 2.86986 4.26255 2.84726 4.27955L2.67257 4.41083L2.7381 4.6215C2.74661 4.64876 2.71606 4.67137 2.69317 4.6547L2.51651 4.5262L2.33985 4.6547C2.31696 4.67133 2.28648 4.64876 2.29492 4.6215L2.36045 4.41083L2.18576 4.27955C2.16315 4.26259 2.17479 4.22606 2.20291 4.22581L2.42008 4.22413L2.48877 4.0145C2.49763 3.98735 2.53535 3.98735 2.54425 4.0145Z" fill="#F5F5F5"/>
<path d="M2.54425 5.11116L2.61294 5.32079L2.8301 5.32247C2.85823 5.32272 2.86986 5.35917 2.84726 5.3762L2.67257 5.50748L2.7381 5.71815C2.74661 5.74541 2.71606 5.76802 2.69317 5.75135L2.51651 5.62285L2.33985 5.75135C2.31696 5.76798 2.28648 5.74541 2.29492 5.71815L2.36045 5.50748L2.18576 5.3762C2.16315 5.35917 2.17479 5.32272 2.20291 5.32247L2.42008 5.32079L2.48877 5.11116C2.49763 5.08404 2.53535 5.08404 2.54425 5.11116Z" fill="#F5F5F5"/>
<path d="M3.38116 1.26252L3.44986 1.47215L3.66702 1.47383C3.69514 1.47409 3.70678 1.51057 3.68417 1.52757L3.50948 1.65885L3.57501 1.86952C3.58352 1.89678 3.55297 1.91939 3.53008 1.90272L3.35342 1.77422L3.17676 1.90272C3.15388 1.91935 3.1234 1.89678 3.13183 1.86952L3.19736 1.65885L3.02267 1.52757C3.00007 1.51054 3.0117 1.47409 3.03983 1.47383L3.25699 1.47215L3.32568 1.26252C3.33451 1.23541 3.37227 1.23541 3.38116 1.26252Z" fill="#F5F5F5"/>
<path d="M3.38116 2.35923L3.44986 2.56886L3.66702 2.57054C3.69514 2.57079 3.70678 2.60728 3.68417 2.62427L3.50948 2.75556L3.57501 2.96622C3.58352 2.99348 3.55297 3.01609 3.53008 2.99942L3.35342 2.87093L3.17676 2.99942C3.15388 3.01606 3.1234 2.99352 3.13183 2.96622L3.19736 2.75556L3.02267 2.62427C3.00007 2.60732 3.0117 2.57079 3.03983 2.57054L3.25699 2.56886L3.32568 2.35923C3.33451 2.33208 3.37227 2.33208 3.38116 2.35923Z" fill="#F5F5F5"/>
<path d="M3.38116 3.45591L3.44986 3.66554L3.66702 3.66722C3.69514 3.66747 3.70678 3.70392 3.68417 3.72095L3.50948 3.85224L3.57501 4.0629C3.58352 4.09016 3.55297 4.11277 3.53008 4.0961L3.35342 3.96761L3.17676 4.0961C3.15388 4.11274 3.1234 4.09016 3.13183 4.0629L3.19736 3.85224L3.02267 3.72095C3.00007 3.70392 3.0117 3.66747 3.03983 3.66722L3.25699 3.66554L3.32568 3.45591C3.33451 3.42876 3.37227 3.42876 3.38116 3.45591Z" fill="#F5F5F5"/>
<path d="M3.38116 4.55256L3.44986 4.76219L3.66702 4.76387C3.69514 4.76412 3.70678 4.80058 3.68417 4.8176L3.50948 4.94889L3.57501 5.15956C3.58352 5.18682 3.55297 5.20942 3.53008 5.19275L3.35342 5.06426L3.17676 5.19275C3.15388 5.20942 3.1234 5.18682 3.13183 5.15956L3.19736 4.94889L3.02267 4.8176C3.00007 4.80058 3.0117 4.76412 3.03983 4.76387L3.25699 4.76219L3.32568 4.55256C3.33451 4.52545 3.37227 4.52545 3.38116 4.55256Z" fill="#F5F5F5"/>
<path d="M4.21713 0.724949L4.28583 0.934578L4.50299 0.936259C4.53111 0.93651 4.54275 0.972998 4.52015 0.98999L4.34545 1.12124L4.41099 1.33191C4.41949 1.35917 4.38894 1.38177 4.36606 1.3651L4.18936 1.23664L4.0127 1.36514C3.98981 1.38181 3.95933 1.3592 3.96777 1.33194L4.0333 1.12128L3.85861 0.990026C3.836 0.972998 3.84764 0.93651 3.87577 0.936295L4.09293 0.934614L4.16162 0.724985C4.17052 0.697797 4.20824 0.697797 4.21713 0.724949Z" fill="#F5F5F5"/>
<path d="M4.21713 1.82112L4.28583 2.03075L4.50299 2.03243C4.53111 2.03268 4.54275 2.06913 4.52015 2.08616L4.34545 2.21745L4.41099 2.42811C4.41949 2.45537 4.38894 2.47798 4.36606 2.46131L4.18936 2.33281L4.0127 2.46131C3.98981 2.47794 3.95933 2.45537 3.96777 2.42811L4.0333 2.21745L3.85861 2.08616C3.836 2.06913 3.84764 2.03268 3.87577 2.03243L4.09293 2.03075L4.16162 1.82112C4.17052 1.794 4.20824 1.794 4.21713 1.82112Z" fill="#F5F5F5"/>
<path d="M4.21713 2.91783L4.28583 3.12746L4.50299 3.12914C4.53111 3.12939 4.54275 3.16584 4.52015 3.18287L4.34545 3.31416L4.41099 3.52482C4.41949 3.55208 4.38894 3.57469 4.36606 3.55802L4.18936 3.42949L4.0127 3.55798C3.98981 3.57462 3.95933 3.55205 3.96777 3.52479L4.0333 3.31412L3.85861 3.18283C3.836 3.16581 3.84764 3.12935 3.87577 3.1291L4.09293 3.12742L4.16162 2.91779C4.17052 2.89068 4.20824 2.89068 4.21713 2.91783Z" fill="#F5F5F5"/>
<path d="M4.21713 4.0145L4.28583 4.22413L4.50299 4.22581C4.53111 4.22606 4.54275 4.26255 4.52015 4.27955L4.34545 4.41083L4.41099 4.6215C4.41949 4.64876 4.38894 4.67137 4.36606 4.6547L4.18936 4.5262L4.0127 4.6547C3.98981 4.67133 3.95933 4.64876 3.96777 4.6215L4.0333 4.41083L3.85861 4.27955C3.836 4.26259 3.84764 4.22606 3.87577 4.22581L4.09293 4.22413L4.16162 4.0145C4.17052 3.98735 4.20824 3.98735 4.21713 4.0145Z" fill="#F5F5F5"/>
<path d="M4.21713 5.11116L4.28583 5.32079L4.50299 5.32247C4.53111 5.32272 4.54275 5.35917 4.52015 5.3762L4.34545 5.50748L4.41099 5.71815C4.41949 5.74541 4.38894 5.76802 4.36606 5.75135L4.18936 5.62285L4.0127 5.75135C3.98981 5.76798 3.95933 5.74541 3.96777 5.71815L4.0333 5.50748L3.85861 5.3762C3.836 5.35917 3.84764 5.32272 3.87577 5.32247L4.09293 5.32079L4.16162 5.11116C4.17052 5.08404 4.20824 5.08404 4.21713 5.11116Z" fill="#F5F5F5"/>
<path d="M5.05401 1.26252L5.12271 1.47215L5.33987 1.47383C5.36799 1.47409 5.37963 1.51057 5.35702 1.52757L5.18233 1.65885L5.24786 1.86952C5.25637 1.89678 5.22582 1.91939 5.20293 1.90272L5.02627 1.77422L4.84961 1.90272C4.82673 1.91935 4.79625 1.89678 4.80468 1.86952L4.87022 1.65885L4.69552 1.52757C4.67292 1.51054 4.68456 1.47409 4.71268 1.47383L4.92984 1.47215L4.99854 1.26252C5.00743 1.23541 5.04512 1.23541 5.05401 1.26252Z" fill="#F5F5F5"/>
<path d="M5.05401 2.35923L5.12271 2.56886L5.33987 2.57054C5.36799 2.57079 5.37963 2.60728 5.35702 2.62427L5.18233 2.75556L5.24786 2.96622C5.25637 2.99348 5.22582 3.01609 5.20293 2.99942L5.02627 2.87093L4.84961 2.99942C4.82673 3.01606 4.79625 2.99352 4.80468 2.96622L4.87022 2.75556L4.69552 2.62427C4.67292 2.60732 4.68456 2.57079 4.71268 2.57054L4.92984 2.56886L4.99854 2.35923C5.00743 2.33208 5.04512 2.33208 5.05401 2.35923Z" fill="#F5F5F5"/>
<path d="M5.05401 3.45591L5.12271 3.66554L5.33987 3.66722C5.36799 3.66747 5.37963 3.70392 5.35702 3.72095L5.18233 3.85224L5.24786 4.0629C5.25637 4.09016 5.22582 4.11277 5.20293 4.0961L5.02627 3.96761L4.84961 4.0961C4.82673 4.11274 4.79625 4.09016 4.80468 4.0629L4.87022 3.85224L4.69552 3.72095C4.67292 3.70392 4.68456 3.66747 4.71268 3.66722L4.92984 3.66554L4.99854 3.45591C5.00743 3.42876 5.04512 3.42876 5.05401 3.45591Z" fill="#F5F5F5"/>
<path d="M5.05401 4.55256L5.12271 4.76219L5.33987 4.76387C5.36799 4.76412 5.37963 4.80058 5.35702 4.8176L5.18233 4.94889L5.24786 5.15956C5.25637 5.18682 5.22582 5.20942 5.20293 5.19275L5.02627 5.06426L4.84961 5.19275C4.82673 5.20942 4.79625 5.18682 4.80468 5.15956L4.87022 4.94889L4.69552 4.8176C4.67292 4.80058 4.68456 4.76412 4.71268 4.76387L4.92984 4.76219L4.99854 4.55256C5.00743 4.52545 5.04512 4.52545 5.05401 4.55256Z" fill="#F5F5F5"/>
<path d="M5.89019 0.724954L5.95889 0.934582L6.17605 0.936264C6.20417 0.936514 6.21581 0.973002 6.19321 0.989994L6.01851 1.12124L6.08405 1.33191C6.09255 1.35917 6.062 1.38178 6.03912 1.36511L5.86246 1.23661L5.6858 1.36511C5.66291 1.38178 5.63243 1.35917 5.64087 1.33191L5.7064 1.12124L5.53171 0.989994C5.5091 0.972967 5.52074 0.936478 5.54886 0.936264L5.76602 0.934582L5.83472 0.724954C5.84354 0.697802 5.8813 0.697802 5.89019 0.724954Z" fill="#F5F5F5"/>
<path d="M5.89019 1.82112L5.95889 2.03075L6.17605 2.03243C6.20417 2.03268 6.21581 2.06913 6.19321 2.08616L6.01851 2.21745L6.08405 2.42811C6.09255 2.45537 6.062 2.47798 6.03912 2.46131L5.86246 2.33281L5.6858 2.46131C5.66291 2.47794 5.63243 2.45537 5.64087 2.42811L5.7064 2.21745L5.53171 2.08616C5.5091 2.06913 5.52074 2.03268 5.54886 2.03243L5.76602 2.03075L5.83472 1.82112C5.84354 1.794 5.8813 1.794 5.89019 1.82112Z" fill="#F5F5F5"/>
<path d="M5.89019 2.91782L5.95889 3.12745L6.17605 3.12914C6.20417 3.12939 6.21581 3.16584 6.19321 3.18287L6.01851 3.31415L6.08405 3.52482C6.09255 3.55208 6.062 3.57469 6.03912 3.55802L5.86246 3.42952L5.6858 3.55802C5.66291 3.57465 5.63243 3.55211 5.64087 3.52482L5.7064 3.31415L5.53171 3.18287C5.5091 3.16584 5.52074 3.12939 5.54886 3.12914L5.76602 3.12745L5.83472 2.91782C5.84354 2.89067 5.8813 2.89067 5.89019 2.91782Z" fill="#F5F5F5"/>
<path d="M5.89019 4.0145L5.95889 4.22413L6.17605 4.22581C6.20417 4.22606 6.21581 4.26255 6.19321 4.27955L6.01851 4.41083L6.08405 4.6215C6.09255 4.64876 6.062 4.67137 6.03912 4.6547L5.86246 4.5262L5.6858 4.6547C5.66291 4.67133 5.63243 4.64876 5.64087 4.6215L5.7064 4.41083L5.53171 4.27955C5.5091 4.26259 5.52074 4.22606 5.54886 4.22581L5.76602 4.22413L5.83472 4.0145C5.84354 3.98735 5.8813 3.98735 5.89019 4.0145Z" fill="#F5F5F5"/>
<path d="M5.89019 5.11116L5.95889 5.32079L6.17605 5.32247C6.20417 5.32272 6.21581 5.35917 6.19321 5.3762L6.01851 5.50748L6.08405 5.71815C6.09255 5.74541 6.062 5.76802 6.03912 5.75135L5.86246 5.62285L5.6858 5.75135C5.66291 5.76798 5.63243 5.74541 5.64087 5.71815L5.7064 5.50748L5.53171 5.3762C5.5091 5.35917 5.52074 5.32272 5.54886 5.32247L5.76602 5.32079L5.83472 5.11116C5.84354 5.08404 5.8813 5.08404 5.89019 5.11116Z" fill="#F5F5F5"/>
<path d="M6.72662 1.26252L6.79532 1.47215L7.01248 1.47383C7.0406 1.47409 7.05224 1.51057 7.02963 1.52757L6.85494 1.65885L6.92047 1.86952C6.92898 1.89678 6.89843 1.91939 6.87554 1.90272L6.69888 1.77422L6.52222 1.90272C6.49933 1.91935 6.46885 1.89678 6.47729 1.86952L6.54282 1.65885L6.36813 1.52757C6.34553 1.51054 6.35716 1.47409 6.38529 1.47383L6.60245 1.47215L6.67114 1.26252C6.68 1.23541 6.71773 1.23541 6.72662 1.26252Z" fill="#F5F5F5"/>
<path d="M6.72662 2.35923L6.79532 2.56886L7.01248 2.57054C7.0406 2.57079 7.05224 2.60728 7.02963 2.62427L6.85494 2.75556L6.92047 2.96622C6.92898 2.99348 6.89843 3.01609 6.87554 2.99942L6.69888 2.87093L6.52222 2.99942C6.49933 3.01606 6.46885 2.99352 6.47729 2.96622L6.54282 2.75556L6.36813 2.62427C6.34553 2.60732 6.35716 2.57079 6.38529 2.57054L6.60245 2.56886L6.67114 2.35923C6.68 2.33208 6.71773 2.33208 6.72662 2.35923Z" fill="#F5F5F5"/>
<path d="M6.72662 3.45591L6.79532 3.66554L7.01248 3.66722C7.0406 3.66747 7.05224 3.70392 7.02963 3.72095L6.85494 3.85224L6.92047 4.0629C6.92898 4.09016 6.89843 4.11277 6.87554 4.0961L6.69888 3.96761L6.52222 4.0961C6.49933 4.11274 6.46885 4.09016 6.47729 4.0629L6.54282 3.85224L6.36813 3.72095C6.34553 3.70392 6.35716 3.66747 6.38529 3.66722L6.60245 3.66554L6.67114 3.45591C6.68 3.42876 6.71773 3.42876 6.72662 3.45591Z" fill="#F5F5F5"/>
<path d="M6.72662 4.55256L6.79532 4.76219L7.01248 4.76387C7.0406 4.76412 7.05224 4.80058 7.02963 4.8176L6.85494 4.94889L6.92047 5.15956C6.92898 5.18682 6.89843 5.20942 6.87554 5.19275L6.69888 5.06426L6.52222 5.19275C6.49933 5.20942 6.46885 5.18682 6.47729 5.15956L6.54282 4.94889L6.36813 4.8176C6.34553 4.80058 6.35716 4.76412 6.38529 4.76387L6.60245 4.76219L6.67114 4.55256C6.68 4.52545 6.71773 4.52545 6.72662 4.55256Z" fill="#F5F5F5"/>
<path d="M7.56305 0.724954L7.63174 0.934582L7.8489 0.936264C7.87703 0.936514 7.88866 0.973002 7.86606 0.989994L7.69137 1.12124L7.7569 1.33191C7.76541 1.35917 7.73485 1.38178 7.71197 1.36511L7.53531 1.23661L7.35865 1.36511C7.33576 1.38178 7.30528 1.35917 7.31372 1.33191L7.37925 1.12124L7.20456 0.989994C7.18195 0.972967 7.19359 0.936478 7.22171 0.936264L7.43887 0.934582L7.50757 0.724954C7.51643 0.697802 7.55412 0.697802 7.56305 0.724954Z" fill="#F5F5F5"/>
<path d="M7.56305 1.82112L7.63174 2.03075L7.8489 2.03243C7.87703 2.03268 7.88866 2.06913 7.86606 2.08616L7.69137 2.21745L7.7569 2.42811C7.76541 2.45537 7.73485 2.47798 7.71197 2.46131L7.53531 2.33281L7.35865 2.46131C7.33576 2.47794 7.30528 2.45537 7.31372 2.42811L7.37925 2.21745L7.20456 2.08616C7.18195 2.06913 7.19359 2.03268 7.22171 2.03243L7.43887 2.03075L7.50757 1.82112C7.51643 1.794 7.55412 1.794 7.56305 1.82112Z" fill="#F5F5F5"/>
<path d="M7.56305 2.91782L7.63174 3.12745L7.8489 3.12914C7.87703 3.12939 7.88866 3.16584 7.86606 3.18287L7.69137 3.31415L7.7569 3.52482C7.76541 3.55208 7.73485 3.57469 7.71197 3.55802L7.53531 3.42952L7.35865 3.55802C7.33576 3.57465 7.30528 3.55211 7.31372 3.52482L7.37925 3.31415L7.20456 3.18287C7.18195 3.16584 7.19359 3.12939 7.22171 3.12914L7.43887 3.12745L7.50757 2.91782C7.51643 2.89067 7.55412 2.89067 7.56305 2.91782Z" fill="#F5F5F5"/>
<path d="M7.56305 4.0145L7.63174 4.22413L7.8489 4.22581C7.87703 4.22606 7.88866 4.26255 7.86606 4.27955L7.69137 4.41083L7.7569 4.6215C7.76541 4.64876 7.73485 4.67137 7.71197 4.6547L7.53531 4.5262L7.35865 4.6547C7.33576 4.67133 7.30528 4.64876 7.31372 4.6215L7.37925 4.41083L7.20456 4.27955C7.18195 4.26259 7.19359 4.22606 7.22171 4.22581L7.43887 4.22413L7.50757 4.0145C7.51643 3.98735 7.55412 3.98735 7.56305 4.0145Z" fill="#F5F5F5"/>
<path d="M7.56305 5.11116L7.63174 5.32079L7.8489 5.32247C7.87703 5.32272 7.88866 5.35917 7.86606 5.3762L7.69137 5.50748L7.7569 5.71815C7.76541 5.74541 7.73485 5.76802 7.71197 5.75135L7.53531 5.62285L7.35865 5.75135C7.33576 5.76798 7.30528 5.74541 7.31372 5.71815L7.37925 5.50748L7.20456 5.3762C7.18195 5.35917 7.19359 5.32272 7.22171 5.32247L7.43887 5.32079L7.50757 5.11116C7.51643 5.08404 7.55412 5.08404 7.56305 5.11116Z" fill="#F5F5F5"/>
</svg>
