<svg width="140" height="140" viewBox="0 0 140 140" fill="none" xmlns="http://www.w3.org/2000/svg">
<path d="M69.9872 139.974C108.64 139.974 139.974 108.64 139.974 69.9872C139.974 31.3343 108.64 0 69.9872 0C31.3343 0 0 31.3343 0 69.9872C0 108.64 31.3343 139.974 69.9872 139.974Z" fill="#E0E1FC"/>
<path d="M70.4995 131.212C104.525 131.212 132.107 103.629 132.107 69.604C132.107 35.5789 104.525 7.99609 70.4995 7.99609C36.4744 7.99609 8.8916 35.5789 8.8916 69.604C8.8916 103.629 36.4744 131.212 70.4995 131.212Z" fill="#3E54BC"/>
<g opacity="0.25">
<path opacity="0.25" d="M71.515 13.2374C94.7 13.2374 115.023 25.4859 126.369 43.8656C116.594 22.757 95.2252 8.11328 70.4339 8.11328C39.8383 8.11328 14.4537 30.4165 9.64551 59.6507C17.4373 32.8364 42.1861 13.2374 71.515 13.2374Z" fill="#0C0D14"/>
</g>
<mask id="mask0" mask-type="alpha" maskUnits="userSpaceOnUse" x="8" y="7" width="125" height="125">
<path d="M70.4995 131.212C104.525 131.212 132.107 103.629 132.107 69.604C132.107 35.5789 104.525 7.99609 70.4995 7.99609C36.4744 7.99609 8.8916 35.5789 8.8916 69.604C8.8916 103.629 36.4744 131.212 70.4995 131.212Z" fill="#3E54BC"/>
</mask>
<g mask="url(#mask0)">
<path d="M42.3789 80.0223C42.4204 79.9976 42.4579 79.967 42.5013 79.9453C42.4539 79.971 42.4204 79.9976 42.3789 80.0223Z" fill="#C4C4C4"/>
<path d="M42.9199 79.774C42.9673 79.7582 43.0098 79.7345 43.0572 79.7207C43.0098 79.7375 42.9673 79.7612 42.9199 79.774Z" fill="#C4C4C4"/>
<path d="M41.9092 80.3663C41.9437 80.3357 41.9734 80.3002 42.0079 80.2676C41.9734 80.2982 41.9437 80.3337 41.9092 80.3663Z" fill="#C4C4C4"/>
<path d="M46.4826 131.141C46.4145 131.13 46.3493 131.111 46.2852 131.094C46.3493 131.113 46.4135 131.13 46.4826 131.141Z" fill="#C4C4C4"/>
<path d="M45.8352 130.951C45.768 130.923 45.7019 130.893 45.6377 130.86C45.7019 130.894 45.767 130.923 45.8352 130.951Z" fill="#C4C4C4"/>
<path d="M41.5952 80.6777L41.5752 80.6978V80.7048C41.5832 80.6968 41.5882 80.6867 41.5952 80.6777Z" fill="#C4C4C4"/>
<path d="M45.2271 130.607C45.1807 130.572 45.1284 130.541 45.085 130.508C45.1304 130.541 45.1797 130.571 45.2271 130.607Z" fill="#C4C4C4"/>
<path d="M68.542 80.7309C68.5983 80.6568 68.6565 80.5838 68.7197 80.5146C68.6565 80.5838 68.5993 80.6618 68.542 80.7309Z" fill="#C4C4C4"/>
<path d="M68.0371 81.7625C68.0661 81.6456 68.1021 81.5306 68.1447 81.418C68.1016 81.5304 68.0657 81.6455 68.0371 81.7625Z" fill="#C4C4C4"/>
<path d="M68.2461 81.209C68.29 81.1155 68.3391 81.0246 68.3932 80.9365C68.3395 81.0248 68.2904 81.1157 68.2461 81.209Z" fill="#C4C4C4"/>
<path d="M68.915 80.325C68.9792 80.2678 69.0454 80.2125 69.1125 80.1611C69.0454 80.2125 68.9802 80.2668 68.915 80.325Z" fill="#C4C4C4"/>
<path d="M69.8418 79.7566C69.9158 79.729 69.9919 79.7092 70.0679 79.6865C69.9919 79.7092 69.9158 79.729 69.8418 79.7566Z" fill="#C4C4C4"/>
<path d="M67.9268 82.516C67.9271 82.325 67.9463 82.1345 67.984 81.9473C67.9463 82.1345 67.9271 82.325 67.9268 82.516Z" fill="#C4C4C4"/>
<path d="M69.3525 79.9993C69.4217 79.9569 69.4937 79.9193 69.5658 79.8828C69.4927 79.9193 69.4217 79.9569 69.3525 79.9993Z" fill="#C4C4C4"/>
<path d="M70.422 79.5996C70.406 79.5996 70.392 79.6076 70.377 79.6106C70.391 79.6106 70.407 79.6106 70.422 79.6056V79.5996Z" fill="#C4C4C4"/>
<path d="M69.1125 130.639C69.0434 130.586 68.9772 130.532 68.915 130.474C68.9802 130.532 69.0454 130.586 69.1125 130.639Z" fill="#C4C4C4"/>
<path d="M68.7168 130.285C68.6538 130.216 68.5945 130.143 68.5391 130.068C68.5993 130.143 68.6566 130.216 68.7168 130.285Z" fill="#C4C4C4"/>
<path d="M70.0679 131.114C69.9919 131.092 69.9158 131.072 69.8418 131.044C69.9158 131.071 69.9919 131.091 70.0679 131.114Z" fill="#C4C4C4"/>
<path d="M68.3932 129.862C68.3391 129.774 68.29 129.683 68.2461 129.59C68.2902 129.683 68.3393 129.774 68.3932 129.862Z" fill="#C4C4C4"/>
<path d="M69.5658 130.916C69.4937 130.88 69.4217 130.842 69.3525 130.801C69.4217 130.843 69.4927 130.881 69.5658 130.916Z" fill="#C4C4C4"/>
<path d="M70.377 131.189C70.392 131.189 70.406 131.198 70.422 131.201V131.194C70.407 131.192 70.396 131.192 70.377 131.189Z" fill="#C4C4C4"/>
<path d="M68.1447 129.383C68.1022 129.27 68.0663 129.154 68.0371 129.037C68.0658 129.154 68.1017 129.27 68.1447 129.383Z" fill="#C4C4C4"/>
<path d="M67.9869 128.853C67.9493 128.666 67.9302 128.475 67.9297 128.284C67.9302 128.475 67.9493 128.666 67.9869 128.853Z" fill="#C4C4C4"/>
<path d="M55.0504 37.1567L59.0075 38.1568L65.9424 39.9103L70.0417 40.9469L73.2485 41.7624L76.0129 42.4624L81.3444 43.8091L89.9872 45.995L90.6941 46.1737L100.322 48.6074L102.231 49.0902H108.661C108.667 48.8928 108.684 48.6894 108.673 48.4919L35.6499 30.0293C35.2667 30.6535 34.9808 31.3323 34.8018 32.0424L48.4374 35.4842L55.0504 37.1567Z" fill="#C6C8E5"/>
<path d="M64.2454 28.8545C64.4601 28.0096 65.0011 27.2845 65.7498 26.838C66.4985 26.3916 67.3937 26.2604 68.239 26.4731L82.7742 30.1478C83.619 30.3625 84.3442 30.9036 84.7906 31.6523C85.2371 32.401 85.3683 33.2962 85.1556 34.1415L84.4003 37.1301L86.1774 37.5803L86.9327 34.5927C87.264 33.2747 87.0591 31.879 86.3631 30.7118C85.667 29.5445 84.5365 28.7009 83.2194 28.3658L68.6893 24.691C67.3712 24.3597 65.9756 24.5646 64.8083 25.2606C63.6411 25.9567 62.7974 27.0872 62.4623 28.4043L61.707 31.3958L63.4842 31.847L64.2454 28.8545Z" fill="#F3F4FF"/>
<path d="M80.0657 75.1299H42.7031H36.5502H34.0938L34.1974 76.521H38.9029H39.4301H41.3169H70.4207H86.577H91.2953H102.857H107.575L107.679 75.1299H99.0694H80.0657Z" fill="#C6C8E5"/>
<path d="M99.0699 71.7832H33.5128C33.3772 71.7833 33.2438 71.8172 33.1247 71.8819C33.033 71.932 32.9516 71.999 32.8848 72.0794C32.8004 72.1816 32.7424 72.303 32.716 72.4329C32.7049 72.4868 32.6993 72.5417 32.6992 72.5967V73.4162C32.6992 73.2004 32.7849 72.9935 32.9375 72.8409C33.0901 72.6884 33.297 72.6027 33.5128 72.6027H108.271C108.486 72.6027 108.693 72.6884 108.846 72.8409C108.998 72.9935 109.084 73.2004 109.084 73.4162V72.5967C109.084 72.5417 109.078 72.4868 109.067 72.4329C109.052 72.3545 109.024 72.279 108.986 72.2087C108.916 72.0802 108.813 71.9729 108.687 71.8981C108.561 71.8234 108.417 71.7841 108.271 71.7842H99.0748L99.0699 71.7832Z" fill="#F3F4FF"/>
<path d="M108.672 48.4876L107.666 46.4824C107.22 45.5937 106.588 44.8114 105.813 44.1885C105.038 43.5657 104.138 43.117 103.174 42.8728L42.997 27.6574C41.9594 27.3952 40.8752 27.377 39.8294 27.6041C38.7837 27.8313 37.8047 28.2976 36.9695 28.9666L35.6484 30.024L108.672 48.4876Z" fill="#E0E1FC"/>
<path d="M42.997 27.6566L103.174 42.872C104.138 43.1159 105.039 43.5645 105.814 44.1873C106.589 44.8102 107.222 45.5926 107.667 46.4815L108.674 48.4868C108.587 46.9515 108.013 45.484 107.034 44.2977C106.056 43.1115 104.724 42.2685 103.233 41.8916L86.1827 37.58L84.4056 37.1298L63.4944 31.8428L61.7074 31.3955L43.5706 26.8065C42.0797 26.4293 40.5073 26.5379 39.0823 27.1165C37.6574 27.6951 36.4544 28.7134 35.6484 30.0232L36.9695 28.9657C37.8047 28.2968 38.7837 27.8304 39.8294 27.6033C40.8752 27.3761 41.9594 27.3944 42.997 27.6566Z" fill="#F3F4FF"/>
<path d="M36.5504 56.7256H32.7266L32.848 58.3517H47.939H104.393H108.925L109.046 56.7256H80.0659H36.5504Z" fill="#C6C8E5"/>
<path d="M70.8886 131.242C71.1242 131.241 71.3589 131.212 71.5876 131.155C70.954 131 70.3906 130.637 69.9877 130.124C69.5847 129.611 69.3656 128.978 69.3652 128.326V83.2106C69.3641 82.7732 69.4617 82.3411 69.6507 81.9465C69.8397 81.552 70.1152 81.2051 70.4568 80.9318C70.7984 80.6584 71.1972 80.4656 71.6236 80.3677C72.0499 80.2698 72.4929 80.2693 72.9195 80.3662C72.3714 79.8461 71.6442 79.557 70.8886 79.5586C70.7323 79.562 70.5765 79.5775 70.4226 79.605C70.4078 79.605 70.392 79.605 70.3782 79.6099C70.2725 79.6287 70.1718 79.6583 70.0701 79.6869C69.9941 79.7097 69.9181 79.7294 69.8441 79.7571C69.7453 79.7936 69.6584 79.837 69.5676 79.8824C69.4955 79.919 69.4235 79.9565 69.3544 79.9989C69.272 80.0491 69.1922 80.1035 69.1154 80.1618C69.0463 80.2132 68.9802 80.2685 68.918 80.3257C68.8558 80.383 68.7857 80.4492 68.7205 80.5153C68.6553 80.5815 68.5991 80.6575 68.5428 80.7315C68.4865 80.8056 68.4441 80.8658 68.3937 80.9369C68.3396 81.0249 68.2905 81.1159 68.2466 81.2094C68.212 81.2785 68.1745 81.3456 68.1479 81.4177C68.1052 81.5303 68.0693 81.6454 68.0402 81.7623C68.0245 81.8245 68.0008 81.8837 67.9889 81.9479C67.9512 82.1351 67.932 82.3256 67.9316 82.5166V128.284C67.9321 128.475 67.9513 128.666 67.9889 128.853C68.0008 128.916 68.0245 128.975 68.0402 129.037C68.0694 129.155 68.1053 129.27 68.1479 129.383C68.1765 129.455 68.214 129.521 68.2466 129.59C68.2905 129.684 68.3396 129.775 68.3937 129.863C68.4401 129.935 68.4924 130.001 68.5428 130.068C68.5982 130.143 68.6575 130.215 68.7205 130.284C68.7827 130.352 68.8479 130.413 68.918 130.474C68.9881 130.535 69.0483 130.587 69.1154 130.639C69.1826 130.691 69.2714 130.75 69.3544 130.802C69.4373 130.853 69.4955 130.881 69.5676 130.917C69.6584 130.963 69.7493 131.006 69.8441 131.043C69.9181 131.07 69.9941 131.091 70.0701 131.113C70.1712 131.144 70.2741 131.17 70.3782 131.19C70.392 131.19 70.4078 131.19 70.4226 131.19C70.5763 131.22 70.7321 131.237 70.8886 131.242Z" fill="#B4B8D6"/>
<path d="M69.3633 83.2107V128.331C69.3637 128.983 69.5829 129.616 69.9858 130.129C70.3887 130.642 70.9521 131.005 71.5858 131.16C72.2294 131.004 72.8018 130.636 73.2113 130.115C73.6207 129.595 73.8434 128.951 73.8437 128.289V82.5166C73.844 82.1136 73.7615 81.7147 73.6014 81.3448C73.4412 80.9749 73.2068 80.6419 72.9127 80.3663C72.4861 80.2693 72.0431 80.2698 71.6168 80.3678C71.1904 80.4657 70.7916 80.6585 70.45 80.9318C70.1084 81.2052 69.8329 81.552 69.6439 81.9466C69.4549 82.3411 69.3573 82.7732 69.3584 83.2107H69.3633Z" fill="#C6C8E5"/>
<path d="M58.8273 131.233C59.061 131.225 59.2931 131.19 59.5184 131.127C58.8811 130.989 58.3087 130.641 57.8927 130.139C57.4766 129.637 57.2412 129.01 57.2239 128.358L56.0391 83.2578C56.0292 82.8743 56.095 82.4926 56.2328 82.1346C56.3706 81.7766 56.5776 81.4494 56.8422 81.1716C57.1067 80.8937 57.4234 80.6709 57.7742 80.5157C58.125 80.3605 58.503 80.2761 58.8865 80.2672C59.0998 80.2617 59.3131 80.2799 59.5224 80.3215C59.0923 79.937 58.559 79.6867 57.9884 79.6016C57.4177 79.5166 56.8347 79.6004 56.3111 79.8428C55.7876 80.0852 55.3464 80.4756 55.0421 80.9658C54.7378 81.4559 54.5836 82.0245 54.5987 82.6012L55.7933 128.349C55.8137 129.134 56.1447 129.878 56.7136 130.419C57.2825 130.959 58.0427 131.252 58.8273 131.233Z" fill="#B4B8D6"/>
<path d="M56.0479 83.2581L57.2326 128.358C57.2499 129.01 57.4854 129.637 57.9014 130.139C58.3174 130.642 58.8899 130.99 59.5271 131.128C60.1662 130.954 60.7284 130.571 61.1237 130.04C61.519 129.509 61.7245 128.86 61.7071 128.198L60.5095 82.4466C60.4991 82.0437 60.4061 81.6472 60.2363 81.2818C60.0665 80.9163 59.8234 80.5896 59.5222 80.3219C59.3129 80.2802 59.0997 80.262 58.8864 80.2676C58.5036 80.2776 58.1266 80.3628 57.7768 80.5185C57.427 80.6742 57.1113 80.8973 56.8478 81.175C56.5842 81.4527 56.3779 81.7796 56.2406 82.137C56.1034 82.4944 56.0379 82.8754 56.0479 83.2581Z" fill="#C6C8E5"/>
<path d="M44.6262 130.033C44.7622 130.206 44.9168 130.365 45.0872 130.505C45.1326 130.541 45.186 130.572 45.2294 130.603C45.359 130.699 45.496 130.784 45.6391 130.857C45.7043 130.89 45.7704 130.919 45.8366 130.948C45.9815 131.008 46.1311 131.056 46.2838 131.091C46.351 131.108 46.4161 131.128 46.4813 131.139C46.7076 131.179 46.938 131.193 47.1675 131.179C47.4023 131.162 47.6344 131.118 47.8586 131.046C47.216 130.934 46.6295 130.61 46.1927 130.126C45.756 129.642 45.4943 129.025 45.4496 128.374L42.3889 83.3618C42.3586 82.926 42.4268 82.489 42.5884 82.0831C42.75 81.6772 43.0009 81.313 43.3224 81.0173C43.644 80.7216 44.028 80.5021 44.446 80.3751C44.8639 80.248 45.3051 80.2167 45.7369 80.2834C45.1565 79.8039 44.4146 79.5648 43.6635 79.615C43.4591 79.6297 43.2566 79.6651 43.0593 79.7206C43.0119 79.7344 42.9695 79.7581 42.9221 79.7739C42.7787 79.8193 42.6391 79.8758 42.5044 79.9427C42.461 79.9645 42.4235 79.9951 42.382 80.0198C42.2522 80.092 42.1284 80.1745 42.0118 80.2666C41.9752 80.2952 41.9456 80.3308 41.913 80.3653C41.8006 80.4619 41.6957 80.5669 41.5991 80.6793C41.5922 80.6882 41.5872 80.698 41.5803 80.7059C41.5458 80.7484 41.5171 80.7938 41.4816 80.8382C41.4097 80.9327 41.3437 81.0317 41.2841 81.1344C41.2496 81.1966 41.2259 81.2647 41.1953 81.3319C41.1443 81.4326 41.0992 81.5361 41.06 81.6419C41.0319 81.7377 41.0088 81.8349 40.9909 81.9331C40.9721 82.02 40.9445 82.102 40.9326 82.1908C40.907 82.3846 40.9008 82.5804 40.9139 82.7753L44.019 128.438C44.033 128.617 44.0631 128.794 44.1088 128.967C44.1226 129.02 44.1394 129.066 44.1552 129.121C44.1933 129.242 44.2391 129.36 44.2924 129.475C44.3142 129.523 44.3349 129.574 44.3596 129.619C44.4357 129.764 44.5235 129.902 44.6222 130.032C44.6235 130.032 44.6248 130.033 44.6262 130.033Z" fill="#B4B8D6"/>
<path d="M42.3908 83.3645L45.4515 128.377C45.4962 129.027 45.7579 129.644 46.1946 130.129C46.6313 130.613 47.2179 130.937 47.8605 131.048C48.4916 130.848 49.0374 130.442 49.4105 129.895C49.7837 129.347 49.9627 128.691 49.919 128.03L46.8139 82.3683C46.7864 81.9662 46.6768 81.574 46.4919 81.2159C46.307 80.8578 46.0507 80.5413 45.7388 80.2861C45.307 80.2194 44.8658 80.2507 44.4479 80.3778C44.0299 80.5048 43.6459 80.7243 43.3243 81.02C43.0028 81.3157 42.7519 81.68 42.5903 82.0858C42.4287 82.4917 42.3605 82.9287 42.3908 83.3645Z" fill="#C6C8E5"/>
<path d="M82.9463 131.233C83.7001 131.252 84.4327 130.983 84.994 130.479C84.5653 130.564 84.1232 130.551 83.7002 130.441C83.2773 130.332 82.8844 130.128 82.5507 129.846C82.217 129.564 81.9511 129.211 81.7726 128.812C81.5941 128.413 81.5076 127.979 81.5196 127.543L82.7044 82.4426C82.722 81.7917 82.9572 81.1654 83.3724 80.6638C83.7876 80.1622 84.3588 79.8141 84.9949 79.6751C84.5628 79.5561 84.1093 79.5372 83.6688 79.6199C83.2283 79.7025 82.8124 79.8844 82.4528 80.1519C82.0932 80.4194 81.7993 80.7653 81.5934 81.1635C81.3876 81.5616 81.2752 82.0014 81.2649 82.4495L80.0712 128.198C80.0516 128.982 80.3431 129.741 80.8819 130.31C81.4208 130.878 82.1631 131.211 82.9463 131.233Z" fill="#B4B8D6"/>
<path d="M82.7005 82.4393L81.5157 127.539C81.5038 127.976 81.5902 128.41 81.7687 128.809C81.9472 129.207 82.2132 129.561 82.5468 129.843C82.8805 130.125 83.2734 130.328 83.6963 130.438C84.1193 130.547 84.5615 130.56 84.9901 130.476C85.2913 130.208 85.5343 129.881 85.7041 129.515C85.8739 129.15 85.9669 128.753 85.9774 128.35L87.1799 82.6012C87.1962 81.9392 86.9896 81.2909 86.5934 80.7602C86.1973 80.2296 85.6344 79.8473 84.995 79.6748C84.3586 79.8129 83.7869 80.1602 83.371 80.6613C82.9551 81.1624 82.719 81.7883 82.7005 82.4393Z" fill="#C6C8E5"/>
<path d="M93.3337 127.435L96.3943 82.4239C96.4392 81.7734 96.7009 81.1566 97.1376 80.6723C97.5744 80.188 98.1608 79.864 98.8033 79.7523C98.3765 79.6148 97.9239 79.5765 97.48 79.6404C97.0362 79.7043 96.6128 79.8687 96.2421 80.121C95.8714 80.3734 95.5631 80.707 95.3409 81.0965C95.1187 81.486 94.9883 81.9211 94.9597 82.3687L91.8547 128.031C91.8149 128.607 91.9449 129.182 92.2285 129.685C92.5121 130.188 92.937 130.597 93.4505 130.861C93.964 131.126 94.5437 131.234 95.118 131.172C95.6922 131.11 96.2358 130.882 96.6816 130.515C96.4709 130.547 96.2574 130.556 96.0448 130.542C95.2733 130.49 94.5543 130.133 94.0459 129.55C93.5375 128.967 93.2813 128.207 93.3337 127.435Z" fill="#B4B8D6"/>
<path d="M98.8035 79.752C98.161 79.8637 97.5745 80.1876 97.1378 80.6719C96.7011 81.1563 96.4394 81.773 96.3945 82.4236L93.3338 127.435C93.2815 128.206 93.5377 128.967 94.0461 129.55C94.5545 130.132 95.2735 130.489 96.045 130.542C96.2576 130.556 96.4711 130.546 96.6818 130.514C96.9937 130.259 97.25 129.943 97.4349 129.584C97.6198 129.226 97.7294 128.834 97.757 128.432L100.862 82.7692C100.907 82.1083 100.728 81.4516 100.355 80.9044C99.9815 80.3573 99.4351 79.9514 98.8035 79.752Z" fill="#C6C8E5"/>
<path d="M109.942 49.085H31.8311C31.4719 49.085 31.1273 49.2277 30.8733 49.4817C30.6193 49.7357 30.4766 50.0803 30.4766 50.4395V52.039C30.4766 51.8611 30.5116 51.6849 30.5797 51.5206C30.6477 51.3563 30.7475 51.2069 30.8733 51.0811C30.9991 50.9554 31.1484 50.8556 31.3128 50.7875C31.4771 50.7194 31.6533 50.6844 31.8311 50.6844H109.942C110.12 50.6844 110.296 50.7194 110.46 50.7875C110.625 50.8556 110.774 50.9554 110.9 51.0811C111.025 51.2069 111.125 51.3563 111.193 51.5206C111.261 51.6849 111.296 51.8611 111.296 52.039V50.4395C111.296 50.0803 111.154 49.7357 110.9 49.4817C110.646 49.2277 110.301 49.085 109.942 49.085Z" fill="#F3F4FF"/>
<path d="M104.394 58.3486H32.8486L32.898 59.0131L33.3107 64.5756L33.4331 66.2145L33.5072 67.2186L33.4331 66.2145L33.8468 71.7799H107.927L108.876 59.0131L108.925 58.3486H104.394ZM35.2912 70.8124L35.3347 70.845L35.2912 70.8124Z" fill="#E0E1FC"/>
<path d="M102.857 76.5215H34.1982L34.7906 84.5256L38.0221 128.019L38.0932 128.976L38.4446 133.715H103.323L107.569 76.5235L102.857 76.5215ZM47.8645 131.048C47.6403 131.12 47.4083 131.165 47.1734 131.182C46.9439 131.195 46.7136 131.182 46.4872 131.141C46.4181 131.13 46.354 131.111 46.2898 131.094C46.137 131.058 45.9875 131.01 45.8425 130.951C45.7744 130.922 45.7092 130.893 45.6451 130.86C45.5019 130.786 45.3649 130.701 45.2353 130.606C45.1879 130.571 45.1366 130.541 45.0932 130.507C44.9225 130.368 44.7678 130.21 44.6321 130.036C44.5334 129.906 44.4455 129.767 44.3695 129.622C44.3448 129.574 44.3241 129.523 44.3023 129.478C44.249 129.363 44.2032 129.245 44.1651 129.124C44.1493 129.073 44.1325 129.025 44.1187 128.97C44.073 128.797 44.0429 128.62 44.0288 128.441L40.9238 82.778C40.9107 82.5831 40.9169 82.3873 40.9425 82.1936C40.9544 82.1047 40.982 82.0228 41.0008 81.9359C41.0187 81.8376 41.0418 81.7404 41.0699 81.6446C41.1091 81.5388 41.1542 81.4353 41.2052 81.3346C41.2358 81.2704 41.2595 81.2023 41.294 81.1371C41.3536 81.0344 41.4195 80.9355 41.4915 80.8409C41.5241 80.7955 41.5497 80.7422 41.5853 80.7017L41.605 80.682C41.7019 80.5698 41.8068 80.4649 41.919 80.368C41.9535 80.3374 41.9832 80.3019 42.0177 80.2693C42.1345 80.1775 42.2583 80.0949 42.3879 80.0225C42.4294 79.9978 42.4669 79.9672 42.5104 79.9455C42.645 79.8785 42.7846 79.822 42.928 79.7766C42.9754 79.7608 43.0178 79.7371 43.0652 79.7233C43.2626 79.6679 43.465 79.6325 43.6695 79.6177C44.452 79.5653 45.2234 79.8255 45.8144 80.3412C46.4054 80.8569 46.7677 81.5859 46.8219 82.3683L49.927 128.03C49.9713 128.692 49.7915 129.35 49.4167 129.897C49.0419 130.445 48.4938 130.85 47.8606 131.048H47.8645ZM59.5276 131.127C59.0949 131.248 58.6403 131.268 58.1987 131.186C57.757 131.104 57.3401 130.922 56.9797 130.653C56.6193 130.385 56.325 130.038 56.1195 129.639C55.9139 129.239 55.8024 128.798 55.7936 128.349L54.5989 82.6013C54.6205 81.8441 54.9313 81.1238 55.4676 80.5887C56.0038 80.0536 56.7247 79.7444 57.4821 79.7245C58.2394 79.7047 58.9755 79.9757 59.539 80.482C60.1026 80.9883 60.4508 81.6912 60.5119 82.4463L61.7076 128.198C61.7247 128.861 61.5187 129.509 61.1226 130.041C60.7265 130.572 60.1634 130.955 59.5236 131.127H59.5276ZM73.8435 128.284C73.8409 129.068 73.5287 129.819 72.9749 130.374C72.421 130.929 71.6704 131.242 70.8865 131.246C70.7304 131.244 70.5746 131.231 70.4205 131.205C70.4047 131.205 70.3909 131.197 70.3761 131.194C70.272 131.174 70.1691 131.148 70.0681 131.117C69.992 131.095 69.916 131.074 69.842 131.046C69.7432 131.01 69.6564 130.966 69.5655 130.921C69.4925 130.885 69.4214 130.847 69.3523 130.806C69.2831 130.764 69.1903 130.701 69.1133 130.643C69.0363 130.584 68.9791 130.536 68.9159 130.478C68.8527 130.42 68.7836 130.355 68.7184 130.288C68.6533 130.221 68.598 130.147 68.5407 130.072C68.4834 129.997 68.437 129.939 68.3916 129.867C68.3377 129.778 68.2886 129.688 68.2445 129.594C68.21 129.525 68.1724 129.459 68.1458 129.387C68.1028 129.274 68.0669 129.159 68.0382 129.041C68.0224 128.979 67.9987 128.92 67.9868 128.857C67.9492 128.669 67.93 128.479 67.9296 128.288V82.5164C67.9299 82.3254 67.9491 82.1349 67.9868 81.9477C67.9987 81.8835 68.0224 81.8243 68.0382 81.7621C68.0667 81.6451 68.1027 81.53 68.1458 81.4175C68.1744 81.3455 68.2119 81.2783 68.2445 81.2092C68.2888 81.1159 68.3379 81.025 68.3916 80.9367C68.437 80.8656 68.4903 80.7985 68.5407 80.7314C68.5911 80.6642 68.6552 80.5842 68.7184 80.5151C68.7816 80.446 68.8458 80.3868 68.9159 80.3256C68.986 80.2644 69.0462 80.213 69.1133 80.1617C69.1901 80.1033 69.2699 80.049 69.3523 79.9988C69.4214 79.9563 69.4925 79.9188 69.5655 79.8823C69.6564 79.8369 69.7472 79.7934 69.842 79.7569C69.916 79.7292 69.992 79.7095 70.0681 79.6868C70.1668 79.6582 70.2655 79.6285 70.3761 79.6098C70.3909 79.6098 70.4047 79.6009 70.4205 79.5989C70.5745 79.5729 70.7304 79.5594 70.8865 79.5584C71.6712 79.5597 72.4233 79.8724 72.9777 80.4277C73.5321 80.983 73.8435 81.7357 73.8435 82.5204V128.284ZM82.9455 131.233C82.1625 131.21 81.4204 130.878 80.8818 130.309C80.3432 129.74 80.0518 128.981 80.0714 128.198L81.269 82.4463C81.3343 81.6945 81.6841 80.996 82.2469 80.4934C82.8097 79.9907 83.5432 79.7219 84.2975 79.7416C85.0518 79.7614 85.7702 80.0684 86.3059 80.5998C86.8416 81.1313 87.1543 81.8472 87.18 82.6013L85.9805 128.349C85.959 129.133 85.6276 129.876 85.0588 130.416C84.4901 130.956 83.7304 131.248 82.9465 131.229L82.9455 131.233ZM88.8595 132.615L89.1843 128.245L88.8595 132.615ZM89.2011 128.015L92.551 82.9548L89.1942 128.082L89.2011 128.015ZM100.861 82.7642L97.7561 128.427C97.6651 129.18 97.2885 129.87 96.7039 130.354C96.1193 130.838 95.3714 131.079 94.6143 131.027C93.8573 130.976 93.1488 130.636 92.6352 130.077C92.1216 129.518 91.842 128.784 91.854 128.025L94.96 82.3683C95.051 81.6151 95.4275 80.9255 96.012 80.4417C96.5965 79.958 97.3443 79.7169 98.1013 79.7683C98.8582 79.8197 99.5666 80.1597 100.08 80.718C100.594 81.2764 100.874 82.0105 100.862 82.7692L100.861 82.7642Z" fill="#E0E1FC"/>
<path d="M38.0955 128.977L38.0244 128.021L38.0955 128.977Z" fill="#B2B2B2"/>
<path d="M109.942 50.6846H31.8311C31.6533 50.6846 31.4771 50.7196 31.3128 50.7877C31.1484 50.8558 30.9991 50.9555 30.8733 51.0813C30.7475 51.2071 30.6477 51.3564 30.5797 51.5208C30.5116 51.6851 30.4766 51.8613 30.4766 52.0392V55.3713C30.4766 55.7306 30.6193 56.0751 30.8733 56.3291C31.1273 56.5832 31.4719 56.7259 31.8311 56.7259H109.942C110.301 56.7259 110.646 56.5832 110.9 56.3291C111.154 56.0751 111.296 55.7306 111.296 55.3713V52.0392C111.296 51.8613 111.261 51.6851 111.193 51.5208C111.125 51.3564 111.025 51.2071 110.9 51.0813C110.774 50.9555 110.625 50.8558 110.46 50.7877C110.296 50.7196 110.12 50.6846 109.942 50.6846Z" fill="#E0E1FC"/>
<path d="M108.266 72.6016H33.5079C33.2921 72.6016 33.0852 72.6873 32.9326 72.8399C32.78 72.9924 32.6943 73.1994 32.6943 73.4151V74.3175C32.6946 74.5331 32.7804 74.7398 32.933 74.8921C33.0855 75.0445 33.2923 75.1301 33.5079 75.1301H108.266C108.439 75.1306 108.608 75.0749 108.748 74.9711C108.782 74.9469 108.815 74.9205 108.846 74.8921C108.89 74.8476 108.928 74.7982 108.961 74.745C109.041 74.617 109.084 74.4688 109.084 74.3175V73.4151C109.084 73.3079 109.063 73.2017 109.022 73.1026C108.981 73.0036 108.92 72.9137 108.844 72.8381C108.768 72.7625 108.678 72.7027 108.579 72.6621C108.479 72.6215 108.373 72.6009 108.266 72.6016Z" fill="#E0E1FC"/>
</g>
</svg>
