<svg width="16" height="16" viewBox="0 0 16 16" fill="none" xmlns="http://www.w3.org/2000/svg">
<g clip-path="url(#clip0)">
<path d="M8 0L2 2.98895V10.0219C2 11.6132 2.63214 13.1393 3.75736 14.2645C4.88258 15.3898 6.4087 16.0219 8 16.0219C9.5913 16.0219 11.1174 15.3898 12.2426 14.2645C13.3679 13.1393 14 11.6132 14 10.0219V2.98895L8 0ZM11.415 13.6569L8 11.9557V13.0697L10.5181 14.3242C9.75947 14.7659 8.89798 15.0002 8.02016 15.0036C7.14233 15.0069 6.27909 14.7791 5.51719 14.3431C4.75529 13.9071 4.12157 13.2782 3.67971 12.5197C3.23786 11.7612 3.00343 10.8997 3 10.0219V3.60475L8 1.11395L13 3.60475V5.47975L8 2.9889V4.10285L13 6.59365V8.46865L8 5.97785V7.0918L13 9.58255V10.0219C13.0002 10.4761 12.938 10.9282 12.815 11.3654L8 8.96675V10.0807L12.4476 12.2964C12.1838 12.8056 11.8345 13.2658 11.415 13.6569Z" fill="#111629"/>
</g>
<defs>
<clipPath id="clip0">
<rect width="16" height="16" fill="white"/>
</clipPath>
</defs>
</svg>
