<svg width="120" height="120" viewBox="0 0 120 120" fill="none" xmlns="http://www.w3.org/2000/svg">
<ellipse opacity="0.05" cx="60" cy="59.9961" rx="60" ry="59.9961" fill="white"/>
<path d="M51.9675 78.528L45.7025 72.2459H81V68.7461H45.7025L51.9675 62.464L49.5 59.9967L39 70.496L49.5 80.9953L51.9675 78.528ZM81 49.4974L70.5 38.998L68.0325 41.4654L74.2975 47.7475H39V51.2472H74.2975L68.0325 57.5293L70.5 59.9967L81 49.4974Z" fill="white"/>
<path d="M119 60.0039C119 92.5865 92.5849 119 60 119C27.4151 119 1 92.5865 1 60.0039C1 27.4213 27.4151 1.00781 60 1.00781C92.5849 1.00781 119 27.4213 119 60.0039Z" stroke="white" stroke-width="2"/>
</svg>
