<svg width="24" height="24" viewBox="0 0 24 24" fill="none" xmlns="http://www.w3.org/2000/svg">
<path fill-rule="evenodd" clip-rule="evenodd" d="M12 23C18.0752 23 23 18.0752 23 12C23 5.92479 18.0752 1 12 1C5.92479 1 1 5.92479 1 12C1 18.0752 5.92479 23 12 23ZM11.1301 19.4917C11.6698 19.8296 12.2938 20.0084 12.9306 20.0073C13.5676 20.0087 14.192 19.8299 14.732 19.4917C15.6309 18.9353 16.2261 17.9982 16.3475 16.948C16.4683 15.907 16.1053 14.8682 15.3624 14.1292C15.0368 13.8056 14.6484 13.552 14.221 13.3839L14.0238 13.1619C13.8241 12.937 13.7527 12.6256 13.8348 12.3361C13.9167 12.0465 14.1406 11.8188 14.4287 11.732L14.6809 11.6563C16.0156 11.9306 17.3863 11.3893 18.1733 10.2771C18.9605 9.16479 19.0151 7.69227 18.3123 6.52473C17.7612 5.61332 16.8208 5.00639 15.7632 4.87966C14.669 4.74941 13.579 5.15292 12.8334 5.96429C12.0879 6.77566 11.7777 7.89587 11.9997 8.97512L11.9249 9.23226C11.8379 9.52029 11.6102 9.74419 11.3206 9.8261C11.0311 9.90801 10.7199 9.83685 10.4948 9.63711L10.2721 9.43972C9.94614 8.60133 9.29355 7.93128 8.46388 7.5835C6.8821 6.89382 5.03411 7.4838 4.14452 8.96253C3.25493 10.4411 3.59952 12.35 4.94985 13.4246C6.30017 14.499 8.23779 14.4056 9.47869 13.2065C9.74455 13.178 10.0091 13.2713 10.1981 13.4605C10.3871 13.6496 10.4802 13.9143 10.4515 14.18C9.7412 14.9164 9.39745 15.9317 9.51444 16.948C9.63596 17.9982 10.231 18.9353 11.1301 19.4917Z" fill="#1275A7"/>
</svg>
