<svg width="16" height="16" viewBox="0 0 16 16" fill="none" xmlns="http://www.w3.org/2000/svg">
<path fill-rule="evenodd" clip-rule="evenodd" d="M10.3333 15H4.33325C4.06813 14.9997 3.81395 14.8942 3.62648 14.7068C3.43901 14.5193 3.33356 14.2651 3.33325 14V2C3.33356 1.73488 3.43901 1.4807 3.62648 1.29323C3.81395 1.10576 4.06813 1.0003 4.33325 1H10.3333C10.5984 1.0003 10.8526 1.10576 11.04 1.29323C11.2275 1.4807 11.3329 1.73488 11.3333 2V3.5H10.3333V2H4.33325V7.5H11.0859L9.29292 5.707L9.99992 5L12.9999 8L9.99992 11L9.29292 10.293L11.0859 8.5H4.33325V14H10.3333V12.5H11.3333V14C11.3329 14.2651 11.2275 14.5193 11.04 14.7068C10.8526 14.8942 10.5984 14.9997 10.3333 15Z" fill="#111629"/>
</svg>
